<?xml version="1.0" encoding="UTF-8"?><svg xmlns="http://www.w3.org/2000/svg" xmlns:xlink="http://www.w3.org/1999/xlink" viewBox="0 0 195 400"><defs><style>.cls-1,.cls-2,.cls-3,.cls-4,.cls-5,.cls-6,.cls-7,.cls-8,.cls-9,.cls-10,.cls-11{fill:none;}.cls-12{fill:url(#Degradado_sin_nombre_48-8);}.cls-12,.cls-13,.cls-14,.cls-15{mix-blend-mode:multiply;opacity:.5;}.cls-13{fill:url(#Degradado_sin_nombre_48-2);}.cls-14{fill:url(#Degradado_sin_nombre_48-4);}.cls-15{fill:url(#Degradado_sin_nombre_48-6);}.cls-2,.cls-6,.cls-7,.cls-9,.cls-10{stroke-width:.75px;}.cls-2,.cls-8{stroke-linejoin:round;}.cls-2,.cls-8,.cls-9,.cls-10{stroke-linecap:round;}.cls-2,.cls-8,.cls-10,.cls-11{stroke:#fff;}.cls-16{fill:url(#linear-gradient);}.cls-3{clip-path:url(#clippath-2);}.cls-4{clip-path:url(#clippath-1);}.cls-5{stroke:#a1a1a1;stroke-width:.41px;}.cls-5,.cls-6,.cls-7,.cls-9,.cls-10,.cls-11{stroke-miterlimit:10;}.cls-17{fill:#00267e;}.cls-18{fill:#f0f0f0;}.cls-19{fill:#ededed;}.cls-20{fill:#fffcf2;}.cls-21{fill:#fff;}.cls-22{fill:#fbff5e;}.cls-23{fill:#f09d4b;}.cls-24{fill:#a1a1a1;}.cls-25{fill:#da4042;}.cls-26{fill:#ccc;}.cls-27{fill:#d0d2d3;}.cls-28{fill:#dededf;}.cls-29{fill:#da1d30;}.cls-30{fill:#d82f28;}.cls-31{fill:#aa2335;}.cls-32{fill:#130179;}.cls-33{fill:#1f2a78;}.cls-34{fill:#3f8427;}.cls-35{fill:#09090c;}.cls-36{fill:#444;}.cls-37{fill:#479ed8;}.cls-38{fill:#606060;}.cls-39{clip-path:url(#clippath-4);}.cls-40{clip-path:url(#clippath-3);}.cls-41{clip-path:url(#clippath-5);}.cls-6{stroke:#d0d2d3;}.cls-7{stroke:#dededf;}.cls-8,.cls-11{stroke-width:.5px;}.cls-42{fill:url(#linear-gradient-2);}.cls-43{fill:url(#Degradado_sin_nombre_48);}.cls-44{isolation:isolate;}.cls-45{fill:url(#Degradado_sin_nombre_48-5);}.cls-46{fill:url(#Degradado_sin_nombre_48-3);}.cls-47{fill:url(#Degradado_sin_nombre_48-7);}.cls-9{stroke:#4a4a4a;}</style><linearGradient id="Degradado_sin_nombre_48" x1=".86" y1="68.91" x2=".86" y2="49.05" gradientTransform="matrix(1, 0, 0, 1, 0, 0)" gradientUnits="userSpaceOnUse"><stop offset="0" stop-color="#6d6f71"/><stop offset=".01" stop-color="#7b7d7f"/><stop offset=".05" stop-color="#9b9c9e"/><stop offset=".08" stop-color="#b6b7b8"/><stop offset=".12" stop-color="#cccdce"/><stop offset=".17" stop-color="#ddddde"/><stop offset=".23" stop-color="#e9e9ea"/><stop offset=".32" stop-color="#f0f0f1"/><stop offset=".55" stop-color="#f2f2f3"/><stop offset=".74" stop-color="#f0f0f1"/><stop offset=".81" stop-color="#e9e9ea"/><stop offset=".86" stop-color="#ddddde"/><stop offset=".9" stop-color="#cccdce"/><stop offset=".93" stop-color="#b6b7b8"/><stop offset=".96" stop-color="#9b9c9e"/><stop offset=".99" stop-color="#7b7d7f"/><stop offset="1" stop-color="#6d6f71"/></linearGradient><linearGradient id="Degradado_sin_nombre_48-2" x1="-.25" y1="58.98" x2="1.97" y2="58.98" xlink:href="#Degradado_sin_nombre_48"/><linearGradient id="Degradado_sin_nombre_48-3" x1=".98" y1="123.35" x2=".98" y2="89.5" xlink:href="#Degradado_sin_nombre_48"/><linearGradient id="Degradado_sin_nombre_48-4" x1="-.25" y1="106.43" x2="2.2" y2="106.43" xlink:href="#Degradado_sin_nombre_48"/><linearGradient id="Degradado_sin_nombre_48-5" x1=".98" y1="166.16" x2=".98" y2="132.31" xlink:href="#Degradado_sin_nombre_48"/><linearGradient id="Degradado_sin_nombre_48-6" x1="-.25" y1="149.24" x2="2.2" y2="149.24" xlink:href="#Degradado_sin_nombre_48"/><linearGradient id="Degradado_sin_nombre_48-7" x1="194.14" y1="153.09" x2="194.14" y2="102.58" xlink:href="#Degradado_sin_nombre_48"/><linearGradient id="Degradado_sin_nombre_48-8" x1="193.28" y1="127.83" x2="195" y2="127.83" xlink:href="#Degradado_sin_nombre_48"/><clipPath id="clippath-1"><path class="cls-1" d="M165.06,8.06h-18.86c-1.28,0-2.32,1.04-2.32,2.32v6.51c0,3.72-3.4,6.74-7.59,6.74H58.71c-4.19,0-7.59-3.02-7.59-6.74v-6.51c0-1.28-1.04-2.32-2.32-2.32H29.94c-11,0-19.91,8.91-19.91,19.91V369.06c0,11,8.91,19.91,19.91,19.91H165.06c11,0,19.91-8.91,19.91-19.91V27.98c0-11-8.91-19.91-19.91-19.91Z"/></clipPath><clipPath id="clippath-2"><path class="cls-4" d="M185.1,27.98V369.06c0,11.05-8.99,20.04-20.04,20.04H29.94c-11.05,0-20.04-8.99-20.04-20.04V27.98c0-11.05,8.99-20.04,20.04-20.04h18.86c1.35,0,2.45,1.1,2.45,2.45v6.51c0,3.65,3.35,6.62,7.46,6.62h77.58c4.11,0,7.46-2.97,7.46-6.62v-6.51c0-1.35,1.1-2.45,2.45-2.45h18.86c11.05,0,20.04,8.99,20.04,20.04Z"/></clipPath><clipPath id="clippath-3"><path class="cls-3" d="M184.84,27.98c0-10.91-8.87-19.79-19.79-19.79h-18.86c-1.21,0-2.2,.99-2.2,2.2v6.51c0,3.79-3.46,6.87-7.71,6.87H58.71c-4.25,0-7.71-3.08-7.71-6.87v-6.51c0-1.21-.99-2.2-2.2-2.2H29.94c-10.91,0-19.79,8.88-19.79,19.79V369.06c0,10.91,8.87,19.79,19.79,19.79H165.06c10.91,0,19.79-8.88,19.79-19.79V27.98Z"/></clipPath><clipPath id="clippath-4"><rect class="cls-1" x="24.7" y="194.32" width="16.2" height="12.3"/></clipPath><linearGradient id="linear-gradient" x1="-626.47" y1="-585.14" x2="-626.47" y2="-736.79" gradientTransform="translate(723.25 795.09)" gradientUnits="userSpaceOnUse"><stop offset=".04" stop-color="#fd606d"/><stop offset=".19" stop-color="#fd726d"/><stop offset=".35" stop-color="#fe806e"/><stop offset=".49" stop-color="#ff866f"/><stop offset=".76" stop-color="#ffa470"/><stop offset="1" stop-color="#ffbc71"/></linearGradient><clipPath id="clippath-5"><circle class="cls-1" cx="157.89" cy="371.63" r="4.41"/></clipPath><linearGradient id="linear-gradient-2" x1="-418.93" y1="-726.73" x2="-418.93" y2="-744.85" gradientTransform="translate(591.1 1078.01)" gradientUnits="userSpaceOnUse"><stop offset="0" stop-color="#ee6934"/><stop offset=".39" stop-color="#f26646"/><stop offset="1" stop-color="#fd606d"/></linearGradient></defs><g class="cls-44"><g id="Layer_1"><g><path class="cls-26" d="M165.06,0H29.94C14.52,0,1.97,12.55,1.97,27.98V372.06c0,15.43,12.55,27.98,27.98,27.98H165.06c15.43,0,27.98-12.55,27.98-27.98V27.98c0-15.43-12.55-27.98-27.98-27.98Zm20.04,372.06c0,11.05-8.99,20.04-20.04,20.04H29.94c-11.05,0-20.04-8.99-20.04-20.04V27.98c0-11.05,8.99-20.04,20.04-20.04h18.86c1.35,0,2.45,1.1,2.45,2.45v6.51c0,3.65,3.35,6.62,7.46,6.62h77.58c4.11,0,7.46-2.97,7.46-6.62v-6.51c0-1.35,1.1-2.45,2.45-2.45h18.86c11.05,0,20.04,8.99,20.04,20.04V372.06Z"/><path class="cls-36" d="M113.77,12.55h-32.54c-.83,0-1.51,.68-1.51,1.51s.68,1.51,1.51,1.51h32.54c.83,0,1.51-.68,1.51-1.51s-.68-1.51-1.51-1.51Z"/><g><path class="cls-43" d="M-.25,51.23v15.51c0,1.2,.97,2.17,2.17,2.17h.04v-19.86h-.04c-1.2,0-2.17,.97-2.17,2.17Z"/><path class="cls-13" d="M-.25,51.23v15.51c0,1.2,.97,2.17,2.17,2.17h.04v-19.86h-.04c-1.2,0-2.17,.97-2.17,2.17Z"/></g><g><g><path class="cls-46" d="M-.25,91.74v29.37c0,1.24,1,2.24,2.24,2.24h.21v-33.85h-.21c-1.24,0-2.24,1-2.24,2.24Z"/><path class="cls-14" d="M-.25,91.74v29.37c0,1.24,1,2.24,2.24,2.24h.21v-33.85h-.21c-1.24,0-2.24,1-2.24,2.24Z"/></g><g><path class="cls-45" d="M-.25,134.55v29.37c0,1.24,1,2.24,2.24,2.24h.21v-33.85h-.21c-1.24,0-2.24,1-2.24,2.24Z"/><path class="cls-15" d="M-.25,134.55v29.37c0,1.24,1,2.24,2.24,2.24h.21v-33.85h-.21c-1.24,0-2.24,1-2.24,2.24Z"/></g></g><path class="cls-35" d="M189.25,27.98V369.06c0,13.34-10.85,24.19-24.19,24.19H29.94c-13.34,0-24.19-10.85-24.19-24.19V27.98C5.75,14.64,16.6,3.79,29.94,3.79H165.06c13.34,0,24.19,10.85,24.19,24.19Zm-24.19-19.91h-18.86c-1.28,0-2.32,1.04-2.32,2.32v6.51c0,3.72-3.4,6.74-7.59,6.74H58.71c-4.19,0-7.59-3.02-7.59-6.74v-6.51c0-1.28-1.04-2.32-2.32-2.32H29.94c-11,0-19.91,8.91-19.91,19.91V369.06c0,11,8.91,19.91,19.91,19.91H165.06c11,0,19.91-8.91,19.91-19.91V27.98c0-11-8.91-19.91-19.91-19.91Zm20.04,19.91V369.06c0,11.05-8.99,20.04-20.04,20.04H29.94c-11.05,0-20.04-8.99-20.04-20.04V27.98c0-11.05,8.99-20.04,20.04-20.04h18.86c1.35,0,2.45,1.1,2.45,2.45v6.51c0,3.65,3.35,6.62,7.46,6.62h77.58c4.11,0,7.46-2.97,7.46-6.62v-6.51c0-1.35,1.1-2.45,2.45-2.45h18.86c11.05,0,20.04,8.99,20.04,20.04Zm-.25,0c0-10.91-8.87-19.79-19.79-19.79h-18.86c-1.21,0-2.2,.99-2.2,2.2v6.51c0,3.79-3.46,6.87-7.71,6.87H58.71c-4.25,0-7.71-3.08-7.71-6.87v-6.51c0-1.21-.99-2.2-2.2-2.2H29.94c-10.91,0-19.79,8.88-19.79,19.79V369.06c0,10.91,8.87,19.79,19.79,19.79H165.06c10.91,0,19.79-8.88,19.79-19.79V27.98Z"/><g><path class="cls-47" d="M193.28,102.58h0v50.51h0c.95,0,1.72-.99,1.72-2.21v-46.09c0-1.22-.77-2.21-1.72-2.21Z"/><path class="cls-12" d="M193.28,102.58h0v50.51h0c.95,0,1.72-.99,1.72-2.21v-46.09c0-1.22-.77-2.21-1.72-2.21Z"/></g></g><g class="cls-40"><g><rect class="cls-18" x="6.94" y="37.68" width="181.12" height="332.34"/><rect class="cls-21" x="6.94" y="358.42" width="181.12" height="36.1"/><rect class="cls-21" x="15.03" y="302.51" width="163.76" height="24.39" rx="3" ry="3"/><rect class="cls-21" x="15.03" y="331.15" width="163.76" height="24.39" rx="3" ry="3"/><rect class="cls-21" x="15.03" y="245.24" width="163.76" height="24.39" rx="3" ry="3"/><rect class="cls-21" x="15.03" y="273.88" width="163.76" height="24.39" rx="3" ry="3"/><rect class="cls-21" x="15.03" y="187.98" width="163.76" height="24.39" rx="3" ry="3"/><rect class="cls-21" x="15.03" y="216.61" width="163.76" height="24.39" rx="3" ry="3"/><rect class="cls-21" x="6.94" y="2.52" width="181.12" height="105.51"/><rect class="cls-38" x="31.7" y="380.89" width="10.77" height="2.41" rx="1.2" ry="1.2"/><rect class="cls-24" x="151.53" y="380.89" width="12.69" height="2.41" rx="1.2" ry="1.2"/><rect class="cls-24" x="87.95" y="380.89" width="19.14" height="2.41" rx="1.2" ry="1.2"/><g><g><rect class="cls-30" x="23.94" y="279.55" width="16.2" height="12.3"/><polygon class="cls-22" points="33.38 286.25 34.19 288.75 32.06 287.21 29.93 288.75 30.74 286.25 28.62 284.7 31.25 284.7 32.06 282.2 32.88 284.7 35.5 284.7 33.38 286.25"/></g><g><rect class="cls-30" x="35.81" y="307.95" width="5.4" height="12.3"/><rect class="cls-20" x="30.41" y="307.95" width="5.4" height="12.3"/><rect class="cls-17" x="25.01" y="307.95" width="5.4" height="12.3"/></g><g><g><rect class="cls-23" x="24.42" y="251.14" width="16.2" height="4.1"/><rect class="cls-20" x="24.42" y="255.24" width="16.2" height="4.1"/><rect class="cls-34" x="24.42" y="259.34" width="16.2" height="4.1"/></g><g><path class="cls-32" d="M32.52,255.45c-1.02,0-1.85,.82-1.85,1.84s.83,1.85,1.85,1.85,1.85-.83,1.85-1.85c0-1.02-.83-1.84-1.85-1.84m0,.18l-.05,.93,.05,.53,.05-.53-.05-.93s.1,0,.14,0h0s.03,.09,.08,.09c.04,0,.07-.03,.07-.07,.05,0,.09,.02,.14,.03l-.28,.88-.09,.52,.18-.5,.2-.91s.09,.03,.13,.04c0,0,0,.02,0,.03,0,.04,.03,.08,.08,.08,.03,0,.06-.02,.07-.05,.04,.02,.08,.04,.12,.07l-.5,.78-.22,.49,.31-.43,.42-.82s.08,.05,.12,.07c-.01,.01-.02,.03-.02,.05,0,.04,.03,.08,.08,.08,.02,0,.05,0,.06-.03,.04,.03,.07,.06,.1,.1l-.69,.62-.34,.41,.41-.34,.62-.69s.06,.07,.09,.1c-.02,.01-.03,.04-.03,.06,0,.04,.03,.08,.07,.08,.02,0,.03,0,.05-.01,.03,.04,.05,.08,.07,.12l-.82,.42-.43,.31,.48-.22,.78-.51s.05,.09,.07,.13c-.03,.01-.05,.04-.05,.07,0,.04,.03,.08,.07,.08,.01,0,.02,0,.03,0,.01,.04,.03,.09,.04,.13l-.91,.19-.5,.18,.52-.09,.88-.28s.02,.09,.03,.13c-.04,0-.07,.03-.07,.08s.04,.08,.08,.08h0s0,.09,0,.14l-.93-.04-.53,.05,.53,.05,.93-.05s0,.1,0,.14h0s-.08,.04-.08,.08,.03,.07,.07,.08c0,.05-.02,.09-.03,.13l-.32-.1-.57-.18-.52-.09h0l.5,.18,.91,.19s-.02,.09-.04,.13h-.03s-.08,.03-.08,.07c0,.01,0,.02,0,.03h0s.01,.02,.02,.03h.02c-.02,.05-.04,.1-.07,.14l-.78-.5h0l-.48-.22h0l.25,.18,.18,.13h0l.82,.42s-.05,.08-.08,.12c-.01,0-.03-.01-.04-.01-.04,0-.08,.03-.08,.07,0,.02,0,.05,.03,.06-.03,.03-.06,.07-.09,.1l-.62-.69-.41-.34,.34,.41,.69,.62s-.06,.06-.1,.09c-.01-.01-.03-.02-.05-.02-.04,0-.08,.04-.08,.08,0,.01,0,.02,0,.03-.04,.02-.08,.05-.12,.08l-.42-.82-.31-.44h0l.22,.48,.5,.78s-.08,.04-.12,.06c-.01-.03-.04-.05-.07-.05-.04,0-.08,.04-.08,.08,0,0,0,.02,0,.03-.04,.01-.09,.03-.13,.04l-.2-.91-.18-.49h0l.09,.52,.28,.88s-.09,.02-.14,.03c0-.03-.04-.06-.07-.06-.04,0-.08,.03-.08,.07h0s-.09,.02-.14,.02l.05-.93-.05-.53-.05,.53,.05,.93s-.09,0-.14,0h0s-.03-.08-.08-.08c-.04,0-.07,.03-.07,.06-.05,0-.09-.02-.13-.03l.28-.88,.09-.52-.18,.49-.19,.91s-.09-.02-.13-.04c0,0,0-.02,0-.03,0-.04-.03-.08-.07-.08-.03,0-.06,.02-.07,.05-.04-.02-.08-.04-.12-.06l.5-.78,.22-.48-.31,.43-.42,.83s-.08-.05-.12-.08c0,0,.01-.02,.01-.04,0-.04-.03-.08-.07-.08-.03,0-.05,.01-.06,.03-.04-.03-.07-.06-.1-.09l.69-.62,.34-.41h0l-.41,.34-.62,.69s-.07-.07-.1-.1c.02-.01,.03-.04,.03-.06,0-.04-.03-.07-.08-.07-.02,0-.03,0-.05,.01-.03-.04-.05-.08-.07-.12l.83-.42,.43-.3-.48,.22-.78,.5s-.04-.08-.06-.12c.03,0,.05-.04,.05-.07,0-.04-.03-.08-.08-.08-.01,0-.02,0-.03,0-.01-.04-.03-.09-.04-.13l.91-.19,.5-.18-.53,.09-.88,.28s-.02-.09-.03-.14c.04,0,.07-.03,.07-.07,0-.04-.03-.08-.08-.08h0s0-.09,0-.14l.93,.05,.53-.05-.53-.05-.93,.04s0-.09,0-.14h.01s.08-.03,.08-.08c0-.04-.03-.07-.07-.08,0-.04,.02-.09,.03-.13l.88,.28,.53,.09-.5-.18-.91-.19s.03-.09,.04-.13c0,0,.02,0,.03,0,.04,0,.08-.03,.08-.08,0-.03-.02-.06-.05-.07,.02-.04,.04-.09,.06-.13l.78,.51,.48,.22-.43-.31-.83-.42s.05-.08,.08-.12c.01,.01,.03,.02,.05,.02,.04,0,.08-.03,.08-.08,0-.02-.01-.04-.03-.06,.03-.03,.06-.07,.09-.1l.62,.69,.41,.34-.34-.41-.69-.62s.07-.06,.1-.09c.01,.02,.03,.03,.06,.03,.04,0,.08-.03,.08-.08,0-.02,0-.03-.02-.05,.04-.02,.08-.05,.12-.07l.42,.82,.31,.43-.22-.48-.5-.78s.08-.05,.12-.07c.01,.03,.04,.05,.07,.05,.04,0,.08-.03,.08-.07,0-.01,0-.02,0-.03,.04-.02,.09-.03,.13-.04l.2,.91,.18,.5-.09-.52-.28-.88s.09-.02,.13-.03c0,.04,.04,.07,.07,.07,.04,0,.08-.03,.08-.08h0s.09-.01,.14-.01"/><path class="cls-21" d="M32.52,257.01c.15,0,.27,.13,.27,.27s-.12,.28-.27,.28-.28-.13-.28-.28,.12-.27,.28-.27"/><path class="cls-32" d="M32.52,257.08c.12,0,.21,.09,.21,.21s-.1,.22-.21,.22-.22-.1-.22-.22,.1-.21,.22-.21"/></g></g><g><rect class="cls-25" x="23.94" y="336.36" width="16.2" height="4.1"/><rect class="cls-20" x="23.94" y="340.46" width="16.2" height="4.1"/><rect class="cls-37" x="23.94" y="344.56" width="16.2" height="4.1"/></g><g><rect class="cls-29" x="24.68" y="222.73" width="16.2" height="12.3"/><g><path class="cls-21" d="M29.45,225.81c1.7,0,3.08,1.38,3.08,3.07s-1.38,3.07-3.08,3.07-3.07-1.38-3.07-3.07,1.38-3.07,3.07-3.07"/><path class="cls-29" d="M30.21,226.42c1.36,0,2.46,1.1,2.46,2.46s-1.1,2.46-2.46,2.46-2.46-1.1-2.46-2.46,1.1-2.46,2.46-2.46"/><polygon class="cls-21" points="32.04 228.88 33.5 229.36 33.74 228.62 32.04 228.88"/><polygon class="cls-21" points="32.04 228.88 33.5 228.41 33.74 229.14 32.04 228.88"/><polygon class="cls-21" points="33.11 227.42 33.11 228.96 33.87 228.96 33.11 227.42"/><polygon class="cls-21" points="33.11 227.42 34.01 228.66 33.39 229.11 33.11 227.42"/><polygon class="cls-21" points="33.11 230.35 34.01 229.1 33.39 228.65 33.11 230.35"/><polygon class="cls-21" points="33.11 230.35 33.11 228.81 33.87 228.81 33.11 230.35"/><polygon class="cls-21" points="34.82 227.98 33.36 228.45 33.6 229.18 34.82 227.98"/><polygon class="cls-21" points="34.82 227.98 33.92 229.22 33.3 228.77 34.82 227.98"/><polygon class="cls-21" points="34.82 229.79 33.92 228.54 33.3 228.99 34.82 229.79"/><polygon class="cls-21" points="34.82 229.79 33.36 229.31 33.6 228.58 34.82 229.79"/></g></g><g id="COSTA_RICA"><g class="cls-39"><rect class="cls-33" x="24.7" y="194.32" width="16.2" height="12.3"/><rect class="cls-20" x="24.7" y="196.37" width="16.2" height="8.2"/><rect class="cls-31" x="24.7" y="198.42" width="16.2" height="4.1"/></g></g></g><rect class="cls-27" x="47.58" y="198.52" width="26.89" height="5.14" rx="2.57" ry="2.57"/><rect class="cls-27" x="47.58" y="227.21" width="26.89" height="5.14" rx="2.57" ry="2.57"/><rect class="cls-27" x="47.58" y="254.99" width="26.89" height="5.14" rx="2.57" ry="2.57"/><rect class="cls-27" x="47.58" y="283.61" width="26.89" height="5.14" rx="2.57" ry="2.57"/><rect class="cls-27" x="47.58" y="312.22" width="26.89" height="5.14" rx="2.57" ry="2.57"/><rect class="cls-27" x="47.58" y="340.84" width="26.89" height="5.14" rx="2.57" ry="2.57"/><g><g><rect class="cls-16" x="80.05" y="53.27" width="33.46" height="163" rx="3" ry="3" transform="translate(231.54 37.99) rotate(90)"/><g><path class="cls-8" d="M24.89,142.27v-2.89s3.6-1.48,5.79-.78l1.41,.71s.71,.35,2.82,.42c0,0,2.3-.14,2.26,.92-.02,.68-4.02,1.13-4.02,1.13,0,0,4.85-.64,7.86-.98,2.12-.24,2.59-.4,2.73,.34,.16,.85-.52,.89-1.69,1.2-2.94,.76-8.82,2.12-8.82,2.12l-5.79-2.05-2.54-.14Z"/><g><circle class="cls-11" cx="36.81" cy="127.51" r="1.69"/><path class="cls-21" d="M39.1,126.73h.82c.28,0,.5-.21,.5-.47h0c0-.26-.22-.47-.5-.47h-1.58l.76,.93Z"/><path class="cls-21" d="M39.1,128.28h.82c.28,0,.5,.21,.5,.47h0c0,.26-.22,.47-.5,.47h-1.58l.76-.93Z"/><path class="cls-21" d="M39.18,127.06h.94c.25,0,.45,.2,.45,.45h0c0,.25-.2,.45-.45,.45h-.94v-.89h0Z"/></g><g><circle class="cls-11" cx="31.36" cy="131.74" r="1.69"/><path class="cls-21" d="M33.65,130.96h.82c.28,0,.5-.21,.5-.47h0c0-.26-.22-.47-.5-.47h-1.58l.76,.93Z"/><path class="cls-21" d="M33.65,132.51h.82c.28,0,.5,.21,.5,.47h0c0,.26-.22,.47-.5,.47h-1.58l.76-.93Z"/><path class="cls-21" d="M33.73,131.29h.94c.25,0,.45,.2,.45,.45h0c0,.25-.2,.45-.45,.45h-.94v-.89h0Z"/></g><g><circle class="cls-11" cx="36.81" cy="136.11" r="1.69"/><path class="cls-21" d="M39.1,135.34h.82c.28,0,.5-.21,.5-.47h0c0-.26-.22-.47-.5-.47h-1.58l.76,.93Z"/><path class="cls-21" d="M39.1,136.89h.82c.28,0,.5,.21,.5,.47h0c0,.26-.22,.47-.5,.47h-1.58l.76-.93Z"/><path class="cls-21" d="M39.19,135.67h.94c.25,0,.45,.2,.45,.45h0c0,.25-.2,.45-.45,.45h-.94v-.89h0Z"/></g></g></g><rect class="cls-21" x="53.3" y="128.92" width="86.96" height="4.66" rx="2.33" ry="2.33"/><rect class="cls-21" x="53.3" y="137.25" width="86.96" height="4.66" rx="2.33" ry="2.33"/></g><rect class="cls-27" x="76.89" y="95.33" width="40.57" height="5.14" rx="2.57" ry="2.57"/><rect class="cls-27" x="14.83" y="49.38" width="79.53" height="10.32" rx="4.88" ry="4.88"/><rect class="cls-27" x="136.56" y="95.34" width="31.94" height="5.14" rx="2.28" ry="2.28"/><rect class="cls-28" x="15.62" y="65.85" width="164.07" height="15.93" rx="4.79" ry="4.79"/><rect class="cls-7" x="144.68" y="30.72" width="34.26" height="11.66" rx="1.45" ry="1.45"/><rect class="cls-27" x="160.08" y="33.98" width="4.2" height="5.51" rx="1.85" ry="1.85"/><rect class="cls-27" x="166.39" y="33.98" width="4.2" height="5.51" rx="1.85" ry="1.85"/><rect class="cls-27" x="149.98" y="33.98" width="7.77" height="3.69" rx="1.85" ry="1.85"/><rect class="cls-27" x="153.86" y="25.16" width="21.94" height="3.09" rx="1.55" ry="1.55"/><g><circle class="cls-6" cx="148.1" cy="26.65" r="2.19"/><path class="cls-27" d="M151.06,25.65h1.06c.36,0,.65-.27,.65-.6h0c0-.33-.29-.6-.65-.6h-2.04l.98,1.21Z"/><path class="cls-27" d="M151.06,27.65h1.06c.36,0,.65,.27,.65,.6h0c0,.33-.29,.6-.65,.6h-2.04l.98-1.21Z"/><path class="cls-27" d="M151.16,26.07h1.21c.32,0,.58,.26,.58,.58h0c0,.32-.26,.58-.58,.58h-1.21v-1.15h0Z"/></g><g><path class="cls-38" d="M33.25,366.84h7.62l.91,2.32c.36,.91-.31,1.89-1.29,1.89h0c-.79,0-1.42-.66-1.38-1.46l.04-.83h-.71v1c-.02,.71-.6,1.29-1.31,1.29h0c-.73,0-1.31-.6-1.3-1.33l.02-.96h-.64l-.1,1.03c-.07,.71-.66,1.25-1.37,1.25h0c-.94,0-1.61-.92-1.31-1.81l.8-2.4Z"/><path class="cls-38" d="M33.32,372.3h1.16v2.11c0,.2,.17,.37,.37,.37h4.57c.2,0,.37-.17,.37-.37v-2.11h1.05v3.24c0,.5-.4,.9-.9,.9h-5.73c-.5,0-.9-.4-.9-.9v-3.24Z"/></g><g><g><rect class="cls-24" x="92.64" y="368.79" width="1.39" height=".8" rx=".13" ry=".13"/><rect class="cls-24" x="92.64" y="369.94" width="1.39" height=".8" rx=".13" ry=".13"/><rect class="cls-24" x="92.64" y="372.82" width="1.39" height=".8" rx=".13" ry=".13"/><rect class="cls-24" x="92.64" y="373.92" width="1.39" height=".8" rx=".13" ry=".13"/><circle class="cls-24" cx="93.23" cy="371.78" r=".65"/></g><g><rect class="cls-24" x="101.14" y="368.79" width="1.39" height=".8" rx=".13" ry=".13"/><rect class="cls-24" x="101.14" y="369.94" width="1.39" height=".8" rx=".13" ry=".13"/><rect class="cls-24" x="101.14" y="372.82" width="1.39" height=".8" rx=".13" ry=".13"/><rect class="cls-24" x="101.14" y="373.92" width="1.39" height=".8" rx=".13" ry=".13"/><circle class="cls-24" cx="101.72" cy="371.78" r=".65"/></g><rect class="cls-24" x="94.41" y="368.81" width="6.14" height="5.89" rx=".71" ry=".71"/><g><rect class="cls-24" x="94.23" y="367.07" width="1.39" height=".8" rx=".13" ry=".13" transform="translate(-272.55 462.39) rotate(-90)"/><rect class="cls-24" x="95.37" y="367.07" width="1.39" height=".8" rx=".13" ry=".13" transform="translate(-271.41 463.54) rotate(-90)"/><rect class="cls-24" x="98.25" y="367.07" width="1.39" height=".8" rx=".13" ry=".13" transform="translate(-268.52 466.42) rotate(-90)"/><rect class="cls-24" x="99.35" y="367.07" width="1.39" height=".8" rx=".13" ry=".13" transform="translate(-267.43 467.52) rotate(-90)"/><circle class="cls-24" cx="97.51" cy="367.58" r=".65"/></g><g><rect class="cls-24" x="94.23" y="375.57" width="1.39" height=".8" rx=".13" ry=".13" transform="translate(-281.05 470.89) rotate(-90)"/><rect class="cls-24" x="95.37" y="375.57" width="1.39" height=".8" rx=".13" ry=".13" transform="translate(-279.9 472.03) rotate(-90)"/><rect class="cls-24" x="98.25" y="375.57" width="1.39" height=".8" rx=".13" ry=".13" transform="translate(-277.02 474.92) rotate(-90)"/><rect class="cls-24" x="99.35" y="375.57" width="1.39" height=".8" rx=".13" ry=".13" transform="translate(-275.92 476.01) rotate(-90)"/><circle class="cls-24" cx="97.51" cy="376.08" r=".65"/></g></g><g><circle class="cls-5" cx="157.89" cy="371.63" r="4.41"/><g class="cls-41"><path class="cls-24" d="M156.3,373.02h3.06c.54,0,.97,.44,.97,.97v2.31h-5.01v-2.31c0-.54,.44-.97,.97-.97Z"/><circle class="cls-24" cx="157.81" cy="370.75" r="1.61"/></g></g><g><polyline class="cls-9" points="166.86 198.52 169.36 201.01 166.86 203.5"/><polyline class="cls-10" points="166.86 133.17 169.36 135.66 166.86 138.15"/><polyline class="cls-9" points="166.86 227.03 169.36 229.52 166.86 232.01"/><polyline class="cls-9" points="166.86 255.32 169.36 257.82 166.86 260.31"/><polyline class="cls-9" points="166.86 283.83 169.36 286.32 166.86 288.82"/><polyline class="cls-9" points="166.86 312.34 169.36 314.83 166.86 317.32"/><polyline class="cls-9" points="166.86 340.85 169.36 343.34 166.86 345.83"/></g><g><rect class="cls-42" x="162.43" y="332.56" width="19.47" height="19.47" rx="3" ry="3" transform="translate(514.47 170.13) rotate(90)"/><g><path class="cls-2" d="M174.58,339.39h-4.83c-.35,0-.63,.28-.63,.63v3.06c0,.35,.28,.63,.63,.63h.81l-.13,1.49,1.76-1.49h2.38c.35,0,.63-.28,.63-.63v-3.06c0-.35-.28-.63-.63-.63Z"/><g><line class="cls-8" x1="170.46" y1="340.64" x2="173.33" y2="340.64"/><line class="cls-8" x1="170.46" y1="341.64" x2="173.33" y2="341.64"/><line class="cls-8" x1="170.46" y1="342.64" x2="172.77" y2="342.64"/></g></g></g><rect class="cls-27" x="171.6" y="33.98" width="4.2" height="5.51" rx="1.85" ry="1.85"/><g><rect class="cls-19" x="15.62" y="91.61" width="53.04" height="12.61" rx="3" ry="3"/><rect class="cls-27" x="26.44" y="95.33" width="31.39" height="5.14" rx="2.26" ry="2.26"/></g></g><rect class="cls-27" x="24.47" y="169.83" width="68.46" height="9.91" rx="4.95" ry="4.95"/></g></g></g></svg>