<?xml version="1.0" encoding="UTF-8"?><svg xmlns="http://www.w3.org/2000/svg" xmlns:xlink="http://www.w3.org/1999/xlink" viewBox="0 0 195 400"><defs><style>.cls-1,.cls-2,.cls-3,.cls-4,.cls-5,.cls-6,.cls-7,.cls-8,.cls-9,.cls-10,.cls-11{fill:none;}.cls-12{fill:url(#Degradado_sin_nombre_48-8);}.cls-12,.cls-13,.cls-14,.cls-15{mix-blend-mode:multiply;opacity:.5;}.cls-13{fill:url(#Degradado_sin_nombre_48-2);}.cls-14{fill:url(#Degradado_sin_nombre_48-4);}.cls-15{fill:url(#Degradado_sin_nombre_48-6);}.cls-16{fill:url(#linear-gradient);}.cls-2{clip-path:url(#clippath-2);}.cls-3{clip-path:url(#clippath-1);}.cls-4{stroke:#61cce5;stroke-width:4.55px;}.cls-4,.cls-5,.cls-6,.cls-7,.cls-8,.cls-9{stroke-linecap:round;}.cls-4,.cls-5,.cls-8,.cls-9,.cls-10,.cls-11{stroke-miterlimit:10;}.cls-17{fill:#f8bc5a;}.cls-18{fill:#f8bb5f;}.cls-19{fill:#f9f6ea;}.cls-20{fill:#f9b959;}.cls-21{fill:#f9b64d;}.cls-22{fill:#f8e1b9;}.cls-23{fill:#f9b74c;}.cls-24{fill:#f9ba5c;}.cls-25{fill:#ededed;}.cls-26{fill:#fffffe;}.cls-27{fill:#fff;}.cls-28{fill:#fffefe;}.cls-29{fill:#e8e8e8;}.cls-30{fill:#fefffe;}.cls-31{fill:#feffef;}.cls-32{fill:#fefefe;}.cls-33{fill:#ffb259;}.cls-34{fill:#fafafa;}.cls-35{fill:#ffb64f;}.cls-36{fill:#ffb743;}.cls-37{fill:#fbecce;}.cls-38{fill:#fdb64e;}.cls-39{fill:#feb549;}.cls-40{fill:#feb143;}.cls-41{fill:#fdfefd;}.cls-42{fill:#0099b9;}.cls-43{fill:#0099c7;}.cls-44{fill:#666;}.cls-45{fill:#ccc;}.cls-46{fill:#d0d2d3;}.cls-47{fill:#1f1602;}.cls-48{fill:#231704;}.cls-49{fill:#221809;}.cls-50{fill:#211603;}.cls-51{fill:#211602;}.cls-52{fill:#211502;}.cls-53{fill:#201503;}.cls-54{fill:#201502;}.cls-55{fill:#201602;}.cls-56{fill:#201504;}.cls-57{fill:#231605;}.cls-58{fill:#09090c;}.cls-59{fill:#141b02;}.cls-60{fill:#444;}.cls-61{fill:#61cce5;}.cls-62{fill:#606060;}.cls-5{stroke:#d0d2d3;}.cls-5,.cls-6{stroke-width:.5px;}.cls-63{clip-path:url(#clippath-4);}.cls-64{clip-path:url(#clippath-3);}.cls-65{fill:url(#linear-gradient-3);}.cls-66{fill:url(#linear-gradient-2);}.cls-67{fill:url(#Degradado_sin_nombre_48);}.cls-6,.cls-7{stroke-linejoin:round;}.cls-6,.cls-11{stroke:#606060;}.cls-7{stroke-width:1px;}.cls-7,.cls-8{stroke:#4a4a4a;}.cls-68{isolation:isolate;}.cls-69{fill:url(#Degradado_sin_nombre_48-5);}.cls-70{fill:url(#Degradado_sin_nombre_48-3);}.cls-71{fill:url(#Degradado_sin_nombre_48-7);}.cls-8,.cls-9{stroke-width:.75px;}.cls-9,.cls-10{stroke:#fff;}.cls-10,.cls-11{stroke-width:.5px;}</style><linearGradient id="Degradado_sin_nombre_48" x1="1.11" y1="68.91" x2="1.11" y2="49.05" gradientTransform="matrix(1, 0, 0, 1, 0, 0)" gradientUnits="userSpaceOnUse"><stop offset="0" stop-color="#6d6f71"/><stop offset=".01" stop-color="#7b7d7f"/><stop offset=".05" stop-color="#9b9c9e"/><stop offset=".08" stop-color="#b6b7b8"/><stop offset=".12" stop-color="#cccdce"/><stop offset=".17" stop-color="#ddddde"/><stop offset=".23" stop-color="#e9e9ea"/><stop offset=".32" stop-color="#f0f0f1"/><stop offset=".55" stop-color="#f2f2f3"/><stop offset=".74" stop-color="#f0f0f1"/><stop offset=".81" stop-color="#e9e9ea"/><stop offset=".86" stop-color="#ddddde"/><stop offset=".9" stop-color="#cccdce"/><stop offset=".93" stop-color="#b6b7b8"/><stop offset=".96" stop-color="#9b9c9e"/><stop offset=".99" stop-color="#7b7d7f"/><stop offset="1" stop-color="#6d6f71"/></linearGradient><linearGradient id="Degradado_sin_nombre_48-2" x1="0" y1="58.98" x2="2.21" y2="58.98" xlink:href="#Degradado_sin_nombre_48"/><linearGradient id="Degradado_sin_nombre_48-3" x1="1.23" y1="123.35" x2="1.23" y2="89.5" xlink:href="#Degradado_sin_nombre_48"/><linearGradient id="Degradado_sin_nombre_48-4" x1="0" y1="106.43" x2="2.45" y2="106.43" xlink:href="#Degradado_sin_nombre_48"/><linearGradient id="Degradado_sin_nombre_48-5" x1="1.23" y1="166.16" x2="1.23" y2="132.31" xlink:href="#Degradado_sin_nombre_48"/><linearGradient id="Degradado_sin_nombre_48-6" x1="0" y1="149.24" x2="2.45" y2="149.24" xlink:href="#Degradado_sin_nombre_48"/><linearGradient id="Degradado_sin_nombre_48-7" x1="194.39" y1="153.09" x2="194.39" y2="102.58" xlink:href="#Degradado_sin_nombre_48"/><linearGradient id="Degradado_sin_nombre_48-8" x1="193.53" y1="127.83" x2="195.25" y2="127.83" xlink:href="#Degradado_sin_nombre_48"/><clipPath id="clippath-1"><path class="cls-1" d="M165.31,8.06h-18.86c-1.28,0-2.32,1.04-2.32,2.32v6.51c0,3.72-3.4,6.74-7.59,6.74H58.96c-4.19,0-7.59-3.02-7.59-6.74v-6.51c0-1.28-1.04-2.32-2.32-2.32H30.19c-11,0-19.91,8.91-19.91,19.91V369.06c0,11,8.91,19.91,19.91,19.91H165.31c11,0,19.91-8.91,19.91-19.91V27.98c0-11-8.91-19.91-19.91-19.91Z"/></clipPath><clipPath id="clippath-2"><path class="cls-3" d="M185.34,27.98V369.06c0,11.05-8.99,20.04-20.04,20.04H30.19c-11.05,0-20.04-8.99-20.04-20.04V27.98c0-11.05,8.99-20.04,20.04-20.04h18.86c1.35,0,2.45,1.1,2.45,2.45v6.51c0,3.65,3.35,6.62,7.46,6.62h77.58c4.11,0,7.46-2.97,7.46-6.62v-6.51c0-1.35,1.1-2.45,2.45-2.45h18.86c11.05,0,20.04,8.99,20.04,20.04Z"/></clipPath><clipPath id="clippath-3"><path class="cls-2" d="M185.09,27.98c0-10.91-8.87-19.79-19.79-19.79h-18.86c-1.21,0-2.2,.99-2.2,2.2v6.51c0,3.79-3.46,6.87-7.71,6.87H58.96c-4.25,0-7.71-3.08-7.71-6.87v-6.51c0-1.21-.99-2.2-2.2-2.2H30.19c-10.91,0-19.79,8.88-19.79,19.79V369.06c0,10.91,8.87,19.79,19.79,19.79H165.3c10.91,0,19.79-8.88,19.79-19.79V27.98Z"/></clipPath><linearGradient id="linear-gradient" x1="7.19" y1="71.01" x2="187.81" y2="71.01" gradientTransform="matrix(1, 0, 0, 1, 0, 0)" gradientUnits="userSpaceOnUse"><stop offset="0" stop-color="#61cce5"/><stop offset=".39" stop-color="#6cd4e5"/><stop offset="1" stop-color="#87e8e5"/></linearGradient><linearGradient id="linear-gradient-2" x1="14.95" y1="117.06" x2="180.14" y2="117.06" gradientTransform="translate(-.41 25.33) rotate(-.16) scale(1 .96) skewX(.01)" gradientUnits="userSpaceOnUse"><stop offset="0" stop-color="#ff5a2b"/><stop offset=".9" stop-color="#f2a040"/></linearGradient><clipPath id="clippath-4"><rect class="cls-1" x="98.46" y="43.06" width="79.37" height="48.43" rx="5.8" ry="5.8"/></clipPath><linearGradient id="linear-gradient-3" x1="138.07" y1="94.32" x2="138.07" y2="39.93" gradientTransform="matrix(1, 0, 0, 1, 0, 0)" gradientUnits="userSpaceOnUse"><stop offset="0" stop-color="#fcfad6"/><stop offset=".08" stop-color="#dff4d2"/><stop offset=".27" stop-color="#a0e8c9"/><stop offset=".45" stop-color="#6bdec2"/><stop offset=".62" stop-color="#42d6bc"/><stop offset=".77" stop-color="#25d0b8"/><stop offset=".91" stop-color="#13cdb5"/><stop offset="1" stop-color="#0dccb5"/></linearGradient></defs><g class="cls-68"><g id="Layer_1"><g><g><path class="cls-45" d="M165.31,0H30.19C14.76,0,2.21,12.55,2.21,27.98V372.06c0,15.43,12.55,27.98,27.98,27.98H165.31c15.43,0,27.98-12.55,27.98-27.98V27.98c0-15.43-12.55-27.98-27.98-27.98Zm20.04,372.06c0,11.05-8.99,20.04-20.04,20.04H30.19c-11.05,0-20.04-8.99-20.04-20.04V27.98c0-11.05,8.99-20.04,20.04-20.04h18.86c1.35,0,2.45,1.1,2.45,2.45v6.51c0,3.65,3.35,6.62,7.46,6.62h77.58c4.11,0,7.46-2.97,7.46-6.62v-6.51c0-1.35,1.1-2.45,2.45-2.45h18.86c11.05,0,20.04,8.99,20.04,20.04V372.06Z"/><path class="cls-60" d="M114.02,12.55h-32.54c-.83,0-1.51,.68-1.51,1.51s.68,1.51,1.51,1.51h32.54c.83,0,1.51-.68,1.51-1.51s-.68-1.51-1.51-1.51Z"/><g><path class="cls-67" d="M0,51.23v15.51c0,1.2,.97,2.17,2.17,2.17h.04v-19.86h-.04c-1.2,0-2.17,.97-2.17,2.17Z"/><path class="cls-13" d="M0,51.23v15.51c0,1.2,.97,2.17,2.17,2.17h.04v-19.86h-.04c-1.2,0-2.17,.97-2.17,2.17Z"/></g><g><g><path class="cls-70" d="M0,91.74v29.37c0,1.24,1,2.24,2.24,2.24h.21v-33.85h-.21c-1.24,0-2.24,1-2.24,2.24Z"/><path class="cls-14" d="M0,91.74v29.37c0,1.24,1,2.24,2.24,2.24h.21v-33.85h-.21c-1.24,0-2.24,1-2.24,2.24Z"/></g><g><path class="cls-69" d="M0,134.55v29.37c0,1.24,1,2.24,2.24,2.24h.21v-33.85h-.21c-1.24,0-2.24,1-2.24,2.24Z"/><path class="cls-15" d="M0,134.55v29.37c0,1.24,1,2.24,2.24,2.24h.21v-33.85h-.21c-1.24,0-2.24,1-2.24,2.24Z"/></g></g><path class="cls-58" d="M189.49,27.98V369.06c0,13.34-10.85,24.19-24.19,24.19H30.19c-13.34,0-24.19-10.85-24.19-24.19V27.98C6,14.64,16.85,3.79,30.19,3.79H165.31c13.34,0,24.19,10.85,24.19,24.19Zm-24.19-19.91h-18.86c-1.28,0-2.32,1.04-2.32,2.32v6.51c0,3.72-3.4,6.74-7.59,6.74H58.96c-4.19,0-7.59-3.02-7.59-6.74v-6.51c0-1.28-1.04-2.32-2.32-2.32H30.19c-11,0-19.91,8.91-19.91,19.91V369.06c0,11,8.91,19.91,19.91,19.91H165.31c11,0,19.91-8.91,19.91-19.91V27.98c0-11-8.91-19.91-19.91-19.91Zm20.04,19.91V369.06c0,11.05-8.99,20.04-20.04,20.04H30.19c-11.05,0-20.04-8.99-20.04-20.04V27.98c0-11.05,8.99-20.04,20.04-20.04h18.86c1.35,0,2.45,1.1,2.45,2.45v6.51c0,3.65,3.35,6.62,7.46,6.62h77.58c4.11,0,7.46-2.97,7.46-6.62v-6.51c0-1.35,1.1-2.45,2.45-2.45h18.86c11.05,0,20.04,8.99,20.04,20.04Zm-.25,0c0-10.91-8.87-19.79-19.79-19.79h-18.86c-1.21,0-2.2,.99-2.2,2.2v6.51c0,3.79-3.46,6.87-7.71,6.87H58.96c-4.25,0-7.71-3.08-7.71-6.87v-6.51c0-1.21-.99-2.2-2.2-2.2H30.19c-10.91,0-19.79,8.88-19.79,19.79V369.06c0,10.91,8.87,19.79,19.79,19.79H165.3c10.91,0,19.79-8.88,19.79-19.79V27.98Z"/><g><path class="cls-71" d="M193.53,102.58h0v50.51h0c.95,0,1.72-.99,1.72-2.21v-46.09c0-1.22-.77-2.21-1.72-2.21Z"/><path class="cls-12" d="M193.53,102.58h0v50.51h0c.95,0,1.72-.99,1.72-2.21v-46.09c0-1.22-.77-2.21-1.72-2.21Z"/></g></g><g class="cls-64"><rect class="cls-46" x="24.71" y="169.83" width="68.46" height="9.91" rx="4.95" ry="4.95"/><g><g><rect class="cls-29" x="7.19" y="112.35" width="180.61" height="269.98"/><g><rect class="cls-16" x="7.19" y="4.29" width="180.61" height="133.43"/><rect class="cls-34" x="7.19" y="379.5" width="180.61" height="14.47"/><rect class="cls-27" x="15.21" y="315.15" width="163.83" height="61.22" rx="4.99" ry="4.99"/><rect class="cls-27" x="15.21" y="230.47" width="163.83" height="76.06" rx="4.99" ry="4.99"/><rect class="cls-27" x="15.21" y="188.8" width="163.83" height="33.89" rx="4.99" ry="4.99"/></g><g><rect class="cls-66" x="14.93" y="121.14" width="165.1" height="33.17" rx="2.69" ry="2.69" transform="translate(.41 -.29) rotate(.17)"/><g><rect class="cls-27" x="22.85" y="127.66" width="147.83" height="5.68" rx="2.84" ry="2.84"/><rect class="cls-27" x="22.85" y="136.1" width="142.83" height="5.68" rx="2.84" ry="2.84"/><rect class="cls-27" x="22.85" y="144.54" width="18.9" height="5.68" rx="2.84" ry="2.84"/></g></g><g><rect class="cls-10" x="56.81" y="100.7" width="81.33" height="11.65" rx="1.99" ry="1.99"/><rect class="cls-27" x="80.21" y="105.2" width="33.79" height="3.1" rx="1.55" ry="1.55"/></g><g><rect class="cls-11" x="56.83" y="365.23" width="81.33" height="11.65" rx="1.99" ry="1.99"/><rect class="cls-44" x="80.23" y="369.73" width="33.79" height="3.1" rx="1.55" ry="1.55"/></g><rect class="cls-27" x="17.58" y="47.35" width="34.87" height="5.68" rx="1.38" ry="1.38"/><rect class="cls-27" x="83.83" y="32.33" width="26.96" height="5.68" rx="1.21" ry="1.21"/><rect class="cls-27" x="17.58" y="72.5" width="25.67" height="5.68" rx="1.18" ry="1.18"/><rect class="cls-27" x="17.58" y="81.32" width="18.38" height="5.68" rx="1" ry="1"/><rect class="cls-27" x="17.58" y="56.55" width="65.09" height="5.68" rx="1.88" ry="1.88"/><g><rect class="cls-10" x="55.37" y="47.6" width="3.24" height="3.94" rx=".3" ry=".3"/><rect class="cls-10" x="57.37" y="49.08" width="3.24" height="3.94" rx=".3" ry=".3"/></g><polyline class="cls-9" points="17.16 38.46 13.87 35.17 17.16 31.89"/><polyline class="cls-8" points="167.49 209.14 169.87 206.77 167.49 204.39"/><g><circle class="cls-27" cx="165.73" cy="34.77" r="1.13"/><circle class="cls-27" cx="169.6" cy="34.77" r="1.13"/><circle class="cls-27" cx="173.3" cy="34.77" r="1.13"/></g><rect class="cls-46" x="15.95" y="172.47" width="72.61" height="6.36" rx="3.18" ry="3.18"/><rect class="cls-46" x="37.72" y="204.33" width="80.11" height="6.36" rx="3.18" ry="3.18"/><rect class="cls-46" x="21.67" y="238.67" width="29.46" height="6.36" rx="3.18" ry="3.18"/><rect class="cls-25" x="100.28" y="258.44" width="26.64" height="5.1" rx="2.55" ry="2.55"/><rect class="cls-46" x="100.28" y="267.52" width="14.37" height="5.1" rx="1.87" ry="1.87"/><rect class="cls-25" x="100.28" y="287.16" width="26.64" height="5.1" rx="2.55" ry="2.55"/><rect class="cls-46" x="100.28" y="296.24" width="14.37" height="5.1" rx="1.87" ry="1.87"/><g><g><line class="cls-5" x1="29.41" y1="203.24" x2="29.41" y2="207.74"/><polyline class="cls-5" points="30.88 206.51 29.41 207.98 27.94 206.51"/></g><polyline class="cls-5" points="30.59 205.04 32.06 205.04 32.06 209.97 26.74 209.97 26.74 205.04 28.28 205.04"/></g><g><line class="cls-7" x1="162.21" y1="239.65" x2="166.57" y2="239.65"/><line class="cls-7" x1="162.21" y1="244.15" x2="164.39" y2="244.15"/><line class="cls-7" x1="162.21" y1="241.9" x2="167.93" y2="241.9"/></g><rect class="cls-46" x="22.68" y="323.6" width="33.26" height="5.69" rx="2.85" ry="2.85"/><rect class="cls-46" x="34.77" y="294.6" width="43.14" height="5.69" rx="2.85" ry="2.85"/><rect class="cls-46" x="48.11" y="283.97" width="16.47" height="5.69" rx="2.85" ry="2.85"/><rect class="cls-46" x="22.68" y="346.96" width="47.61" height="5.69" rx="2.85" ry="2.85"/><rect class="cls-61" x="125.66" y="345.52" width="44.84" height="8.16" rx="1.91" ry="1.91"/><rect class="cls-27" x="129.73" y="347.91" width="36.7" height="3.38" rx="1.69" ry="1.69"/><g><rect class="cls-62" x="162.11" y="325.11" width="6.97" height="5.06" rx=".59" ry=".59"/><line class="cls-6" x1="163.26" y1="324.29" x2="167.92" y2="324.29"/><line class="cls-6" x1="163.9" y1="323.48" x2="167.28" y2="323.48"/></g><path class="cls-4" d="M30.67,290.2c0-14.73,11.94-26.66,26.66-26.66s26.66,11.94,26.66,26.66"/></g><g class="cls-63"><g><rect class="cls-65" x="98.63" y="42.43" width="78.89" height="49.15"/><g><path class="cls-28" d="M161.48,54.76c-.02-.08-.09-.14-.19-.15-.09,0-.19,0-.28,0-.12,0-.21,.1-.21,.22,0,.38,0,.76,0,1.15,0,0,0,.02,0,.02,0,.01,0,.02,.02,.02h.11c0-.34,0-.68,0-1.02,0-.14,.11-.25,.25-.25,.1,0,.19,0,.29,0Z"/><rect class="cls-43" x="159.64" y="56.94" width="8.18" height="8.18" rx=".65" ry=".65"/><path class="cls-35" d="M161.57,65.41c0,.05,0,.1,0,.16,0,.04,0,.04,.04,.04,.02,0,.04,0,.06,0,.02,0,.02,0,.02,.02,0,0,0,.02,0,.02,0,.4,0,.79,0,1.19,0,.09-.04,.16-.11,.21-.04,.03-.08,.04-.13,.04-.09,0-.18,0-.27,0-.09,0-.17-.04-.21-.13,.02-.02,.04-.02,.06-.02,.09,0,.17,0,.26,0,.1,0,.17-.05,.23-.13,0-.01,.01-.02,.02-.03,0,0,0-.02,0-.02,0,0-.02,0-.03,0,0,0-.01,.02-.02,.02-.05,.08-.12,.12-.21,.12-.09,0-.17,0-.26,0-.03,0-.07,0-.08-.04,0-.02,0-.05,0-.07,0-.36,0-.73,0-1.09,0,0,0-.02,0-.03,0-.07,.02-.08,.08-.08,.13,0,.26,0,.39,0,.06,0,.08,0,.08-.06,0-.01,0-.03,.01-.04,.02,0,.02,.02,.03,.03,0,.02,0,.04,0,.07,0,.31,0,.61,0,.92,0,.02,0,.07,.01,.07,.03,0,.02-.04,.02-.07,0-.33,0-.67,0-1,0-.03,0-.06,.02-.08Z"/><path class="cls-35" d="M163.81,65.61s.06,0,.1,0c.03,0,.03,.01,.03,.03,0,0,0,.01,0,.02,0,.39,0,.77,0,1.16,0,.08-.02,.16-.08,.21-.05,.04-.1,.07-.16,.07-.09,0-.19,0-.28,0-.09,0-.16-.05-.2-.13,.02-.02,.04-.02,.06-.02,.09,0,.17,0,.26,0,.1,0,.17-.05,.23-.13,0,0,.01-.02,.01-.03,0,0,0-.02,0-.03-.01,0-.02,0-.03,0-.01,.01-.02,.02-.02,.04-.04,.06-.1,.1-.17,.1-.1,0-.2,0-.3,0-.03,0-.07,0-.08-.04,0-.02,0-.05,0-.07,0-.36,0-.72,0-1.09,0,0,0-.02,0-.02,0-.08,.02-.09,.09-.09,.14,0,.28,0,.42,0,.02,0,.04,0,.06,.01,.02,.03,.02,.06,.02,.09,0,.27,0,.53,0,.8,0,.02,0,.03,0,.05,0,.01,0,.03,.02,.03,.02,0,.02-.02,.02-.03,0-.02,0-.03,0-.05,0-.27,0-.53,0-.8,0-.03,0-.06,.02-.08Z"/><path class="cls-35" d="M169.57,62.81c.09,.04,.15,.11,.15,.22,0,.09,0,.18,0,.27,0,.13-.1,.25-.26,.25-.05,0-.1,0-.15,0-.34,0-.68,0-1.02,0-.06,0-.06,0-.06-.06,0-.07,0-.06-.06-.07-.05,0-.09,0-.14,0,.02-.03,.05-.02,.08-.02,.33,0,.66,0,.98,0,.02,0,.04,0,.06,0,.01,0,.02,0,.02-.02,0-.01,0-.02-.02-.02-.02,0-.03,0-.05,0-.27,0-.53,0-.8,0-.06,0-.11,.01-.17,0-.02,0-.05,0-.05-.03,.02-.02,.04-.02,.07-.02,.05,0,.06,0,.06-.06,0-.12,0-.24,0-.36,0-.02,0-.04,0-.06,0-.06,.02-.08,.08-.08,.13,0,.26,0,.39,0,.26,0,.52,0,.78,0,.03,0,.04,.03,.05,.05,.01,.05,0,.09,0,.14,0,.05,0,.1,0,.15,0,.09-.04,.16-.12,.21h-.02s-.02,.03-.01,.05c0,.02,.02,.01,.03,0,.04-.02,.07-.04,.09-.07,.05-.06,.07-.13,.07-.2,0-.09,0-.17,0-.26,0-.01,0-.03,.01-.04Z"/><path class="cls-35" d="M169.57,59.45c.09,.04,.14,.11,.15,.21,0,.1,0,.2,0,.3,0,.12-.12,.22-.25,.23-.01,0-.02,0-.03,0-.38,0-.77,0-1.15,0,0,0,0,0-.01,0-.04,0-.04,0-.04-.04,0-.03,0-.06,0-.09,.02-.03,.05-.02,.08-.02,.26,0,.52,0,.78,0,.02,0,.04,0,.06,0,.01,0,.02,0,.02-.02,0-.01-.01-.02-.02-.02-.02,0-.04,0-.06,0-.26,0-.53,0-.79,0-.03,0-.06,0-.08-.02-.01-.02-.01-.04-.01-.06,0-.14,0-.28,0-.42,0-.08,.02-.1,.1-.1,.37,0,.74,0,1.11,0,.02,0,.03,0,.05,0,.03,0,.05,.04,.05,.06,.01,.11,.02,.23,0,.34-.01,.07-.05,.12-.11,.16,0,0-.02,.01-.03,.02,0,0,0,.02,0,.03,0,0,.01,0,.02,0,.02,0,.04-.02,.06-.03,.08-.06,.11-.14,.11-.24,0-.08,0-.17,0-.25,0-.02,0-.03,.01-.04Z"/><path class="cls-35" d="M169.62,60.59c.07,.06,.11,.13,.11,.23,0,.08,0,.16,0,.23,0,.14-.12,.26-.25,.26-.4,0-.79,0-1.19,0-.04,0-.05,0-.05-.04,0-.03,0-.05,0-.08,.02-.02,.05-.02,.08-.02,.26,0,.53,0,.79,0,.02,0,.04,0,.06,0,0,0,.02,0,.02-.02,0-.01,0-.02-.02-.02-.02,0-.04,0-.06,0-.26,0-.53,0-.79,0-.03,0-.06,0-.08-.02-.01-.02-.01-.04-.01-.06,0-.15,0-.29,0-.44,0-.07,.02-.08,.08-.09,.38,0,.77,0,1.15,0h.02s.03,.02,.04,.04c.01,.03,.02,.06,.02,.09,0,.07,0,.14,0,.21,0,.1-.04,.18-.13,.22h-.01s-.02,.03-.01,.04c0,.01,.02,0,.03,0,.08-.04,.13-.1,.15-.19,.02-.11,.01-.21,0-.32,0-.02,0-.04,0-.06,0,0,.01,0,.02,0h0s.02,.01,.03,.02Z"/><path class="cls-35" d="M166.05,65.61h.1s.03,0,.03,.03c0,.01,0,.03,0,.04,0,.39,0,.77,0,1.16,0,.17-.14,.28-.27,.27-.08,0-.16,0-.24,0-.09,0-.17-.04-.22-.13,.02-.02,.04-.02,.06-.02,.09,0,.17,0,.26,0,.11,0,.18-.06,.23-.15,0-.01,.02-.03,0-.04-.02-.01-.03,0-.04,.02-.05,.09-.13,.13-.23,.13-.08,0-.16,0-.25,0-.03,0-.07,0-.08-.04,0-.02,0-.05,0-.07,0-.36,0-.73,0-1.09,0,0,0-.02,0-.03,0-.07,.02-.08,.08-.08,.13,0,.26,0,.39,0,.05,0,.08,0,.08-.06,0-.01,0-.03,.01-.04,.02,0,.02,.02,.03,.03,0,.02,0,.04,0,.07,0,.31,0,.61,0,.92,0,.02-.01,.06,.02,.07,.04,0,.02-.04,.02-.07,0-.27,0-.54,0-.81,0-.03,0-.06,.02-.08Z"/><path class="cls-35" d="M164.93,65.61s.06,0,.1,0c.03,0,.03,0,.03,.03,0,.08,0,.17,0,.25,0,.31,0,.62,0,.93,0,.06-.01,.12-.05,.17-.05,.07-.11,.1-.19,.1-.09,0-.18,0-.27,0-.09,0-.17-.04-.21-.13,.02-.02,.04-.02,.06-.02,.09,0,.17,0,.26,0,.1,0,.18-.05,.23-.14,0-.01,.02-.03,0-.05-.02-.01-.03,0-.04,.02-.05,.09-.13,.13-.23,.12-.08,0-.17,0-.25,0-.03,0-.07,0-.08-.04,0-.02,0-.05,0-.07,0-.36,0-.73,0-1.09,0,0,0-.02,0-.03,0-.07,.02-.08,.08-.08,.15,0,.29,0,.44,0,.02,0,.04,0,.06,.01,.02,.03,.02,.06,.02,.09,0,.27,0,.54,0,.81,0,.02,0,.04,0,.06,0,0,0,.02,.02,.02,.01,0,.02,0,.02-.02,0-.02,0-.04,0-.06,0-.27,0-.54,0-.81,0-.03,0-.06,.02-.08Z"/><path class="cls-35" d="M162.69,65.6s.06,0,.09,0c.03,0,.03,0,.03,.04,0,.06,0,.13,0,.19,0,.33,0,.67,0,1,0,.11-.05,.19-.14,.24-.04,.02-.07,.03-.11,.03-.09,0-.17,0-.26,0-.09,0-.17-.04-.22-.13,.02-.02,.04-.02,.06-.02,.09,0,.17,0,.26,0,.1,0,.18-.06,.23-.15,0-.01,.02-.03,0-.04-.02-.01-.03,0-.04,.02-.05,.09-.13,.13-.23,.12-.08,0-.16,0-.25,0-.03,0-.07,0-.08-.04,0-.02,0-.04,0-.07,0-.38,0-.75,0-1.13,0-.07,.01-.08,.08-.08,.14,0,.29,0,.43,0,.02,0,.04,0,.06,.01,.02,.02,.02,.05,.02,.08,0,.27,0,.53,0,.8,0,.02,0,.04,0,.06,0,.01,0,.03,.02,.03,.02,0,.02-.02,.02-.03,0-.02,0-.03,0-.05,0-.27,0-.54,0-.81,0-.03,0-.06,.02-.08Z"/><path class="cls-35" d="M169.57,58.33c.09,.04,.14,.11,.15,.21,0,.1,0,.2,0,.3,0,.12-.11,.22-.24,.23-.01,0-.03,0-.04,0-.38,0-.76,0-1.14,0,0,0-.02,0-.03,0-.02,0-.04,0-.03-.03,0-.02,0-.04,0-.06,0-.02,0-.03-.03-.03-.05,0-.1,0-.16,0,0,0-.02,0-.03,0,.02-.03,.06-.02,.08-.02,.33,0,.67,0,1,0,.02,0,.04,0,.06,0,0,0,.02,0,.01-.02,0,0,0,0-.01-.01-.02,0-.04,0-.06,0-.31,0-.62,0-.93,0-.03,0-.06,0-.08-.02,.01-.03,.04-.02,.06-.02,.02,0,.05,0,.07-.01,.01-.02,.01-.03,.01-.05,0-.14,0-.29,0-.43,0-.03,.01-.05,.04-.05,.02,0,.04,0,.06,0,.38,0,.76,0,1.14,0,.03,0,.03,.02,.04,.04,.01,.03,.01,.06,.01,.09,0,.07,0,.13,0,.2,0,.1-.04,.17-.12,.23h-.02s-.02,.03-.01,.04c0,.02,.02,.01,.03,0,.04-.02,.08-.05,.11-.09,.04-.06,.06-.12,.05-.19,0-.08,0-.17,0-.25,0-.01,0-.03,.01-.04Z"/><path class="cls-35" d="M158.77,58.3s.06,0,.09,0c.05,0,.05,0,.05,.05,0,.13,0,.26,0,.39,0,.09,0,.18,0,.28,0,.04,0,.05-.04,.05-.4,0-.79,0-1.19,0-.1,0-.18-.05-.23-.14,0,0,0-.02-.02-.02-.02-.02,0-.05-.02-.08,0-.1,0-.2,0-.3,0-.13,.13-.24,.26-.24,.19,0,.38,0,.57,0,.13,0,.26,0,.38,0,.02,0,.05,0,.07,.02,.01,.02,.01,.04,.01,.06,0,.14,0,.29,0,.43,0,.07-.01,.09-.09,.09-.32,0-.63,0-.95,0-.02,0-.06,0-.06,.01,0,.03,.04,.02,.06,.02,.33,0,.67,0,1,0,.08,0,.08,0,.08-.08,0-.15,0-.3,0-.46,0-.03,0-.05,.02-.08Z"/><path class="cls-35" d="M158.77,60.54s.08,0,.11,0c.02,0,.03,0,.03,.03,0,0,0,.02,0,.03,0,.22,0,.43,0,.65,0,0,0,.02,0,.03,0,.02,0,.03-.03,.03-.01,0-.02,0-.03,0-.38,0-.76,0-1.14,0-.06,0-.12-.01-.17-.04,0,0,0,0-.01,0h0s-.03-.02-.04-.04c-.01-.02-.02-.04-.03-.06,0,0-.01,0-.02,0-.01-.03-.01-.06-.02-.08,0-.09,0-.18,0-.27,0-.15,.11-.27,.26-.27,.07,0,.14,0,.2,0,.25,0,.49,0,.74,0,.03,0,.06,0,.08,.02,.01,.02,.01,.04,.01,.06,0,.14,0,.29,0,.43,0,.07-.01,.09-.09,.09-.31,0-.62,0-.94,0-.02,0-.04,0-.06,0-.01,0-.02,0-.02,.02,0,.01,.01,.01,.02,.02,.02,0,.03,0,.05,0,.33,0,.67,0,1,0h.04s.04-.01,.04-.04c0-.04,0-.08,0-.12,0-.13,0-.26,0-.39,0-.02,0-.05,.02-.07Z"/><path class="cls-35" d="M157.57,60.16c-.05-.02-.09-.06-.12-.1,0-.01,0-.03-.03-.03-.02-.02,0-.05-.02-.07,0-.1,0-.21,0-.31,0-.12,.09-.21,.21-.23,.04,0,.08-.01,.12-.01,.29,0,.59,0,.88,0,.03,0,.05,0,.08,.02,.01,.02,.01,.04,.01,.06,0,.14,0,.29,0,.43,0,.07-.01,.09-.09,.09-.31,0-.63,0-.94,0-.02,0-.07-.02-.07,.02,0,.03,.04,.02,.07,.02,.33,0,.66,0,.99,0,0,0,.02,0,.03,0,.04,0,.05-.01,.05-.05,0-.13,0-.26,0-.39,0-.04,0-.08,0-.11,0-.02,0-.04,.02-.06,.03,0,.07,0,.1,0,.03,0,.04,0,.04,.04,0,.24,0,.47,0,.71-.01,.02-.03,.01-.05,.01-.39,0-.77,0-1.16,0-.04,0-.09,0-.13-.02Z"/><path class="cls-35" d="M158.77,62.78s.08,0,.11,0c.02,0,.03,0,.03,.03,0,0,0,.02,0,.02,0,.22,0,.44,0,.66,0,.05,0,.05-.05,.05-.39,0-.79,0-1.18,0-.1,0-.18-.05-.23-.14,0,0,0-.02-.02-.02-.02-.02,0-.05-.02-.07,0-.11,0-.21,0-.32,0-.1,.06-.17,.15-.2,.05-.01,.1-.02,.15-.02,.3,0,.6,0,.89,0,.08,0,.08,0,.08,.08,0,.13,0,.27,0,.4,0,.07,0,.07-.07,.07-.32,0-.63,0-.95,0-.02,0-.05,0-.07,.01-.01,.02,0,.03,.01,.04,.01,0,.03,0,.04,0,.34,0,.68,0,1.02,0h0c.05,0,.06,0,.06-.06,0-.08,0-.16,0-.24,0-.08,0-.17,0-.25,0-.02,0-.05,.02-.07Z"/><path class="cls-35" d="M169.57,61.68c.09,.04,.14,.11,.15,.21,0,.1,0,.2,0,.3,0,.1-.06,.17-.16,.21-.03,0-.06,0-.09,0h-.02s-.04-.01-.07-.01c-.36,0-.71,0-1.07,0-.02,0-.05,0-.07,0-.03-.06-.01-.09,.05-.09,.27,0,.54,0,.81,0,.02,0,.05,0,.07-.02,.01-.02,0-.03-.02-.04-.02,0-.04,0-.06,0-.27,0-.53,0-.8,0-.03,0-.06,0-.08-.02,0-.01,0-.03,0-.04,0-.15,0-.3,0-.45,0-.07,.02-.09,.09-.09,.38,0,.75,0,1.13,0,.01,0,.02,0,.03,0,.02,0,.03,.02,.04,.04,.01,.03,.01,.06,.01,.09,0,.07,0,.15,0,.22,0,.09-.04,.17-.12,.22h0s-.03,.02-.02,.04c.01,.02,.03,0,.05,0,.05-.02,.08-.06,.11-.1,.03-.05,.04-.11,.04-.17,0-.08,0-.17,0-.25,0-.01,0-.03,.01-.04Z"/><path class="cls-35" d="M158.77,61.66s.03,0,.05,0c0,0,.01,0,.02,0q.07,0,.07,.08c0,.19,0,.38,0,.57q0,.07-.07,.07c-.39,0-.78,0-1.08,0,.33,0,.73,0,1.14,0,0,0,0,0,0,.01,0,.01-.03,0-.04,0-.4,0-.8,0-1.2,0-.02,0-.03,0-.05,0-.07-.02-.11-.06-.15-.12,0,0,0-.02-.02-.02-.02-.02-.02-.05-.02-.08,0-.09,0-.19,0-.28,0-.15,.11-.26,.26-.26,.12,0,.23,0,.35,0,.2,0,.39,0,.59,0,.03,0,.06,0,.08,.02,.01,.02,.01,.04,.01,.06,0,.14,0,.29,0,.43,0,.07-.01,.09-.09,.09-.31,0-.62,0-.92,0-.02,0-.03,0-.05,0-.03,0-.05,.01-.05,.04,0,.02,.02,.01,.03,.01,.36,0,.72,0,1.08,0,.02,0,.03,0,.04-.01,0-.02,0-.05,0-.08,0-.16,0-.31,0-.47,0-.03,0-.05,.02-.07Z"/><path class="cls-35" d="M160.93,56.03s0-.06,0-.09c0-.31,0-.61,0-.92,0-.08,.02-.15,.09-.21,.05-.04,.1-.06,.16-.06,.07,0,.15,0,.22,0,.02,0,.05,0,.07,0,.02,0,.03,.02,.03,.04,0,.03,.01,.07,.01,.1,0,.36,0,.71,0,1.07,0,0,0,.02,0,.03,0,.05-.02,.07-.07,.07-.12,0-.24,0-.37,0-.03,0-.06,0-.09,0-.02,0-.04,0-.05-.02Z"/><path class="cls-48" d="M159.34,60.9c0,.78,0,1.55,0,2.33h0c0,.05-.02,.07-.06,.05,0,0-.01,0-.01-.02,0-.01,0-.02,0-.03v-4.65s0-.02,0-.02c0-.04,0-.04,.04-.04,.02,0,.03,0,.03,.03,0,.01,0,.03,0,.04,0,.77,0,1.54,0,2.32Z"/><path class="cls-50" d="M167.44,57.02s.01,.02,0,.03c-.01,.01-.03,.02-.05,.02-.01,0-.02-.01-.02-.02-.02-.03-.03-.06-.06-.09-.03-.02-.05-.05-.07-.09h0s-.03-.03-.05-.04c-.09-.08-.2-.12-.32-.13-.03,0-.05,0-.08,0-1.31,0-2.62,0-3.93,0h0s-.06-.02-.04-.06c0,0,0-.01,.02-.01,.01,0,.02,0,.03,0,1.32,0,2.63,0,3.95,0,.27,0,.47,.12,.6,.35,0,.01,.01,.03,.02,.04Z"/><path class="cls-51" d="M161.27,56.64c.45,0,.89,0,1.34,0,0,0,0,0,.01,0t.04,.04s0,.04-.05,.04c-.88,0-1.76,0-2.64,0-.15,0-.29,.04-.41,.14-.15,.12-.23,.29-.23,.48,0,.32,0,.64,0,.97,0,0,0,.02,0,.03,0,.03,0,.03-.03,.03-.05,0-.04,0-.04-.04,0-.33,0-.66,0-.99,0-.31,.21-.59,.52-.67,.06-.02,.12-.02,.18-.02,.43,0,.87,0,1.3,0Z"/><path class="cls-56" d="M159.77,64.86l-.17-.08s-.04-.03-.05-.04c-.18-.14-.28-.32-.28-.56,0-.24,0-.48,0-.71,0,0,0-.02,0-.03,0-.02,0-.02,.02-.02,0,0,.02,0,.03,0,.02,0,.03,0,.03,.02,0,.01,0,.02,0,.03,0,.23,0,.46,0,.68,0,.26,.12,.45,.35,.58,.1,.05,.2,.06,.3,.06,.95,0,1.91,0,2.86,0,0,0,.02,0,.03,0,.05,0,.06,.01,.05,.06,0,.01,0,.02-.02,.02h-.03c-.97,0-1.94,0-2.9,0-.07,0-.14-.01-.2-.02Z"/><path class="cls-55" d="M165.41,66.88s.06,.02,.09,.02c.08,0,.17,0,.25,0,.09,0,.16-.05,.2-.13,0-.01,0-.03,.02-.03,.02,0,.04,0,.05,.02,.01,0,0,.02,0,.03-.04,.11-.15,.18-.27,.19-.1,0-.21,0-.31,0h-.04c-.11-.05-.19-.15-.2-.27,0-.02,0-.04,0-.06,0-.39,0-.79,0-1.18,0-.06,0-.05,.05-.05,.24,0,.48,0,.73,0,0,0,.02,0,.03,0,.02,0,.03,0,.03,.03,0,.05,0,.1,0,.15,0,0,0,.02,0,.02,0,.02,0,.04,0,.06,0,.29,0,.58,0,.87,0,0,0,.02,0,.02,0,.04,0,.04-.04,.04-.04,0-.04,0-.04-.05,0-.34,0-.67,0-1.01,0-.02,0-.03,0-.05-.03,.02-.05,.01-.08,.01-.17,0-.34,0-.51,0-.06,0-.07,0-.07,.07,0,.37,0,.73,0,1.1,0,.07,.02,.13,.08,.17,.01,0,.02,.02,.03,.04Z"/><path class="cls-54" d="M168.23,59.98s.03,0,.05,0c.28,0,.56,0,.85,0,0,0,.02,0,.03,0,.04,0,.06,.02,.04,.06,0,0,0,.01-.02,.01h-.04c-.29,0-.57,0-.86,0-.02,0-.03,0-.05,0-.06,0-.11,0-.17,0-.05,0-.05,0-.05-.05,0-.13,0-.26,0-.39,0-.12,0-.24,0-.36,0-.04,0-.04,.04-.04,.41,0,.82,0,1.23,0,.14,0,.24,.08,.28,.21v.02c.02,.1,.01,.21,.01,.31,0,.13-.08,.24-.19,.28-.03,.01-.03,.01-.04-.02-.01-.04-.01-.04,.03-.06,.08-.04,.13-.1,.13-.19,0-.09,0-.17,0-.26,0-.03,0-.06-.02-.09,0,0-.01,0-.02-.01-.07-.09-.16-.1-.26-.09-.33,0-.67,0-1,0-.02,0-.03,0-.05,0-.03,0-.04,.01-.04,.04,0,.19,0,.38,0,.57,0,.03,.02,.04,.04,.04,.03,0,.06,0,.09,.02Z"/><path class="cls-51" d="M169.57,60.57c0,.1,0,.21,0,.31,0,.13-.07,.23-.19,.27-.01,0-.03,.02-.04,0-.01-.04-.01-.05,.01-.06,.1-.04,.14-.12,.14-.22,0-.07,0-.15,0-.22,0-.04,0-.08-.02-.11-.02,0-.03-.02-.04-.03-.05-.05-.11-.07-.18-.07-.36,0-.72,0-1.08,0-.07,0-.07,0-.07,.07,0,.17,0,.34,0,.5,0,.07,0,.07,.07,.07,.02,0,.04,0,.06,.02,.02,0,.03,0,.05,0,.28,0,.56,0,.85,0,0,0,.02,0,.03,0t.04,.04s0,.03-.04,.03c-.04,0-.07,0-.11,0-.26,0-.52,0-.78,0-.02,0-.03,0-.05,0-.06,0-.12,0-.19,0-.03,0-.04,0-.04-.03,0-.26,0-.51,0-.77,0-.03,0-.03,.04-.03,.34,0,.68,0,1.02,0,.06,0,.13,0,.19,0,.15,0,.26,.1,.29,.21h0s0,.02,0,.02Z"/><path class="cls-52" d="M163.81,65.61s0,.03,0,.05c0,.29,0,.58,0,.87,0,0,0,.02,0,.03t-.04,.04s-.04,0-.04-.04c0-.3,0-.6,0-.9,0-.02,0-.03,0-.05-.02-.02-.02-.04-.02-.06,0-.03-.01-.04-.04-.04-.19,0-.38,0-.57,0-.03,0-.04,.01-.04,.04,0,0,0,.02,0,.02,0,.36,0,.73,0,1.09,0,.07,.02,.13,.08,.18,.01,.01,.02,.02,.03,.04,.03,.02,.06,.02,.1,.02,.08,0,.16,0,.24,0,.1,0,.17-.05,.21-.14,0-.01,0-.03,.02-.03,.02,0,.04,0,.05,.02,0,0,0,.02,0,.03-.04,.11-.15,.19-.27,.19-.1,0-.21,0-.31,0h-.03c-.12-.05-.21-.16-.21-.29,0-.13,0-.25,0-.38,0-.28,0-.56,0-.84,0-.01,0-.02,0-.03,0-.02,0-.03,.02-.02,0,0,.02,0,.03,0,.24,0,.49,0,.73,0,0,0,.02,0,.03,0,.02,0,.02,0,.02,.03,0,.05,0,.1,0,.16v.02Z"/><path class="cls-47" d="M169.57,61.68c0,.11,0,.21,0,.32,0,.12-.07,.23-.18,.27-.02,0-.03,.02-.05,0-.01-.04-.01-.05,.02-.06,.09-.04,.14-.11,.14-.21,0-.08,0-.16,0-.23,0-.04,0-.07-.02-.1-.03,0-.04-.03-.05-.04-.04-.04-.08-.06-.13-.06-.38,0-.75,0-1.13,0-.05,0-.06,0-.06,.06,0,.18,0,.36,0,.54,0,.05,0,.05,.06,.06,.02,0,.04,0,.06,.01h.92q.06,0,.06,.07h0s-.03,.02-.04,.02c-.3,0-.6,0-.9,0,0,0-.02,0-.03,0-.06,0-.12,0-.18,0-.04,0-.04,0-.04-.04,0-.25,0-.5,0-.76,0-.04,0-.04,.05-.04,.33,0,.66,0,.98,0,.07,0,.14,0,.2,0,.17,0,.28,.08,.33,.23Z"/><path class="cls-55" d="M158.77,59.42c0,.07,0,.15,0,.22,0,.13,0,.25,0,.38,0,.04,0,.04-.04,.04-.01,0-.03,0-.04,0h-1.09s-.02,0-.02-.02c0-.05,0-.05,.05-.05,.33,0,.67,0,1,0,.07,0,.06,0,.06-.06,0-.15,0-.3,0-.45,0-.02,0-.03,0-.05-.02-.02-.02-.04-.02-.07,0-.03-.01-.04-.04-.04-.01,0-.03,0-.04,0-.35,0-.7,0-1.05,0-.01,0-.02,0-.03,0-.12,0-.2,.08-.21,.2,0,.09,0,.17,0,.26,0,.07,.03,.13,.09,.17,.01,0,.03,.02,.04,.04,.01,0,.01,.02,.01,.03v.03s-.03,.02-.04,0c-.1-.04-.17-.11-.19-.22,0-.02,0-.05,0-.07,0-.07,0-.15,0-.22,0-.18,.13-.31,.31-.31,.4,0,.81,0,1.21,0,0,0,0,0,.01,0,.02,0,.03,0,.03,.03,0,.05,0,.1,0,.14v.03Z"/><path class="cls-55" d="M162.05,66.88s.06,.02,.09,.02c.08,0,.16,0,.25,0,.1,0,.16-.05,.2-.14,0-.01,0-.03,.02-.03,.02,0,.04,0,.05,.02,0,0,0,.02,0,.03-.04,.11-.15,.19-.27,.19-.1,0-.21,0-.31,0h-.02c-.14-.05-.22-.16-.22-.3,0-.41,0-.82,0-1.23,0-.04,0-.04,.04-.04,.25,0,.51,0,.76,0,.04,0,.04,0,.04,.04v.16c0,.09,0,.18,0,.27,0,.23,0,.45,0,.68,0,.05,0,.05-.05,.05-.02,0-.02,0-.02-.02v-.04c0-.29,0-.59,0-.88,0-.02,0-.03,0-.05-.01-.01-.02-.03-.02-.05,0-.05,0-.05-.06-.05-.05,0-.09,0-.14,0-.13,0-.26,0-.39,0-.06,0-.06,0-.06,.06,0,.36,0,.73,0,1.09,0,.08,.02,.14,.08,.19,.01,.01,.02,.02,.03,.04Z"/><path class="cls-53" d="M157.42,63.33s0,.04,0,.06c0,.02-.02,.02-.03,.01-.1-.04-.17-.11-.19-.22,0-.02,0-.04,0-.07,0-.08,0-.16,0-.23,0-.18,.13-.3,.3-.3,.4,0,.81,0,1.21,0h0s.04,0,.04,.04v.17s0,.05,0,.07c0,.17,0,.34,0,.52,0,.04,0,.04-.04,.04-.37,0-.74,0-1.11,0-.05,0-.05-.02-.03-.08,.02-.01,.03,0,.05,0,.33,0,.66,0,1,0q.05,0,.05-.05c0-.15,0-.3,0-.45,0-.01,0-.03,0-.04,0-.02,0-.04,0-.07,0-.06,0-.06-.06-.06,0,0-.02,0-.02,0-.35,0-.69,0-1.04,0-.02,0-.04,0-.06,0-.12,.01-.19,.09-.2,.2,0,.08,0,.17,0,.25,0,.07,.04,.12,.09,.16,.02,.01,.03,.02,.04,.04Z"/><path class="cls-51" d="M157.41,61.09s.02,.02,.02,.04c0,.01-.01,.02,0,.03,0,.02-.02,.01-.03,0-.11-.04-.17-.11-.19-.22,0-.02,0-.04,0-.07,0-.08,0-.15,0-.23,0-.2,.16-.31,.31-.3,.4,0,.81,0,1.21,0,.05,0,.05,0,.05,.05,0,.05,0,.1,0,.15,0,.06,0,.12,0,.18,0,.14,0,.28,0,.41,0,.04,0,.04-.04,.04-.37,0-.74,0-1.11,0-.01,0-.03,0-.03,0,0-.02,0-.04,0-.06,0,0,.01-.01,.02-.01h.04c.33,0,.66,0,.98,0,0,0,.02,0,.02,0,.05,0,.05,0,.05-.05,0-.16,0-.32,0-.48,0-.01,0-.02,0-.03-.02-.02-.01-.05-.02-.07,0-.02-.01-.03-.04-.04h-.03c-.37,0-.74,0-1.1,0-.06,0-.11,.01-.15,.06-.04,.04-.06,.1-.06,.15,0,.08,0,.16,0,.23,0,.08,.03,.14,.1,.18,.01,0,.02,.02,.03,.03Z"/><path class="cls-54" d="M164.93,65.61s0,.04,0,.06c0,.29,0,.58,0,.86,0,0,0,.01,0,.02,0,.04,0,.04-.04,.04-.03,0-.03,0-.03-.04,0-.3,0-.6,0-.9,0-.02,0-.03,0-.05-.01-.02-.02-.04-.01-.06,0-.03-.02-.04-.05-.04-.19,0-.37,0-.56,0-.04,0-.05,.02-.05,.06,0,.18,0,.36,0,.54,0,.18,0,.37,0,.55,0,.08,.02,.14,.08,.19,.01,0,.02,.02,.03,.03,.03,.02,.06,.02,.09,.02,.08,0,.17,0,.25,0,.09,0,.16-.05,.2-.13,0-.01,0-.03,.02-.03,.02,0,.04,0,.05,.02,0,0,0,.02,0,.03-.03,.08-.09,.14-.17,.18-.04,.01-.07,.02-.11,.02-.1,0-.2,0-.3,0h-.04c-.11-.05-.19-.16-.2-.28,0-.05,0-.1,0-.15,0-.36,0-.72,0-1.08,0-.06,0-.05,.05-.05,.25,0,.49,0,.74,0,0,0,.01,0,.02,0,.02,0,.03,0,.03,.03,0,.05,0,.1,0,.15v.02Z"/><path class="cls-47" d="M157.42,62.21s.02,.02,.02,.03c0,0,0,.02,0,.03,0,.03-.02,.02-.04,.01-.09-.03-.15-.09-.18-.18-.01-.03-.02-.07-.02-.1,0-.08,0-.16,0-.24,0-.15,.09-.26,.22-.29,.03,0,.06,0,.09,0,.4,0,.8,0,1.21,0h0s.04,0,.04,.04c0,.04,0,.09,0,.13,0,.01,0,.03,0,.04,0,.02,0,.04,0,.07,0,.17,0,.35,0,.52,0,.02,0,.04-.01,.05-.01,0-.02,0-.04,0-.36,0-.73,0-1.09,0-.01,0-.03,0-.04,0-.02-.02,0-.04-.01-.06,0,0,0-.01,.02-.01,.01,0,.03,0,.04,0,.33,0,.66,0,.98,0,0,0,.02,0,.03,0,.05,0,.05,0,.05-.05,0-.16,0-.32,0-.48v-.03s-.02-.04-.02-.06c0-.04-.02-.05-.05-.05,0,0-.02,0-.03,0-.36,0-.72,0-1.07,0-.15,0-.23,.08-.23,.23,0,.06,0,.12,0,.18,0,.09,.03,.17,.1,.22,.01,0,.02,.02,.03,.03Z"/><path class="cls-53" d="M168.1,63.34s.08,0,.12,0c.32,0,.63,0,.95,0,.03,0,.05,.03,.04,.06,0,0,0,0-.01,0-.01,0-.03,0-.04,0-.35,0-.71,0-1.06,0-.02,0-.03,0-.05,0-.02,0-.01-.02-.01-.03,0-.04,0-.08,0-.12v-.63s0-.02,0-.03c0-.02,0-.02,.02-.02,.01,0,.03,0,.04,0,.39,0,.78,0,1.17,0,.14,0,.27,.06,.33,.23,0,.1,0,.21,0,.31,0,.13-.06,.22-.18,.28-.01,0-.03,.02-.04,0-.01-.02-.02-.04-.01-.06,0,0,.01-.01,.02-.01,.1-.04,.14-.12,.14-.23,0-.07,0-.15,0-.22,0-.04,0-.07-.02-.1-.01,0-.02-.01-.03-.02-.05-.06-.12-.08-.2-.08-.21,0-.41,0-.62,0-.16,0-.31,0-.47,0-.06,0-.06,0-.06,.06,0,.18,0,.36,0,.53,0,.03,0,.05,0,.07Z"/><path class="cls-54" d="M157.42,58.85s.02,.02,0,.03c0,0,0,.02,0,.03,0,.02-.02,.01-.04,0-.1-.04-.17-.12-.19-.23,0-.03,0-.07,0-.1,0-.08,0-.16,0-.24,.02-.13,.12-.23,.25-.25,.02,0,.04,0,.07,0,.4,0,.79,0,1.19,0,0,0,.01,0,.02,0,.03,0,.03,0,.03,.03,0,.06,0,.11,0,.17,0,.02,0,.04,0,.06,0,.18,0,.35,0,.53,0,.04,0,.04-.04,.04-.37,0-.74,0-1.11,0-.01,0-.03,0-.04-.01,0-.02,0-.03,0-.05,0,0,.01-.01,.02-.01h1.04c.06,0,.05,0,.05-.05,0-.16,0-.31,0-.47,0-.01,0-.03,0-.04-.02-.02-.01-.05-.01-.08,0-.03-.01-.04-.04-.04h-.04c-.35,0-.7,0-1.05,0-.02,0-.03,0-.05,0-.11,.01-.19,.09-.2,.2,0,.09,0,.17,0,.26,0,.07,.04,.12,.09,.16,.02,.01,.03,.02,.04,.04Z"/><path class="cls-54" d="M168.09,58.86s.08,0,.12,0c.32,0,.63,0,.95,0,.04,0,.05,.02,.04,.06,0,0,0,.01-.02,.01-.01,0-.02,0-.03,0-.29,0-.58,0-.88,0h-.26s0-.03,0-.05c0-.25,0-.49,0-.74,0,0,0-.02,0-.02,0-.02,0-.03,.02-.03,0,0,.02,0,.02,0,.4,0,.8,0,1.21,0,.07,0,.13,.01,.18,.05,.06,.04,.1,.1,.12,.18,0,.11,0,.21,0,.32,0,.13-.07,.23-.19,.27-.01,0-.03,.02-.04,0-.01-.04-.01-.05,.02-.06,.09-.04,.14-.12,.14-.22,0-.08,0-.15,0-.23,0-.04,0-.07-.02-.1,0,0-.01,0-.01,0h0v-.02h-.01s-.02-.03-.03-.04h-.02v-.02s-.02,0-.03,0c-.04-.01-.08-.02-.13-.02-.35,0-.7,0-1.05,0-.07,0-.08,0-.08,.08,0,.17,0,.35,0,.52,0,.03,0,.05,0,.07Z"/><path class="cls-53" d="M160.93,66.88s.07,.02,.1,.02c.08,0,.15,0,.23,0,.1,0,.18-.04,.22-.14,0,0,0-.02,.02-.02,.02,0,.04,0,.05,.02,0,0,0,.02,0,.03-.04,.1-.14,.18-.25,.19-.1,0-.2,0-.3,0,0,0-.02,0-.02,0h-.04c-.12-.06-.18-.14-.2-.26,0-.02,0-.04,0-.06,0-.4,0-.8,0-1.19,0-.06,0-.05,.05-.05,.25,0,.49,0,.74,0,.02,0,.03,0,.05,0,0,.06,0,.11,0,.17,0,.32,0,.65,0,.97,0,.04,0,.05-.05,.04-.02,0-.02,0-.02-.02,0,0,0-.02,0-.03,0-.3,0-.6,0-.9,0-.05,0-.1,0-.16-.02,.01-.05,.01-.08,.01-.18,0-.35,0-.53,0-.07,0-.07,0-.07,.07,0,.35,0,.71,0,1.06,0,.08,.02,.16,.09,.21,.01,0,.02,.02,.02,.03Z"/><path class="cls-53" d="M160.93,56.03c.07,0,.14,0,.21,0,.1,0,.19,0,.29,0,.06,0,.05,0,.05-.05,0-.15,0-.3,0-.45,0-.22,0-.45,0-.67,0-.04,0-.08-.02-.12-.04-.08-.1-.12-.18-.12-.09,0-.19,0-.28,0-.08,0-.15,.05-.18,.12-.02,.04-.02,.04-.06,.03h-.02s0-.03,0-.04c.05-.11,.13-.18,.26-.18,.09,0,.19,0,.28,0,.12,0,.23,.08,.26,.2v.04s.03,.05,.03,.07c0,.4,0,.79,0,1.19,0,.08-.01,.09-.09,.09-.16,0-.33,0-.49,0-.02,0-.05,0-.07-.02-.06,0-.11,0-.17,0-.02,0-.03,0-.03-.03,0-.04,0-.09,0-.13v-.98h0s0-.04,0-.04c.02,0,.04,0,.06,0,0,0,.01,0,.01,.02,0,.01,0,.03,0,.04,0,.33,0,.67,0,1,0,.06,0,.05,.05,.05,.03,0,.05,0,.08,0Z"/><path class="cls-38" d="M160.93,56.11s.03,0,.05,0c.18,0,.35,0,.53,0,.05,0,.05,0,.05-.05,0-.41,0-.81,0-1.22,0-.02,0-.04,0-.07,.09,.05,.13,.13,.13,.23,0,.39,0,.79,0,1.18,0,0,0,0,0,.01t-.03,.03h-.69s-.04,0-.04-.04c0-.03,0-.06,0-.09Z"/><path class="cls-42" d="M159.64,57.53s0,.04,0,.06c0,.67,0,1.34,0,2.01,0,1.58,0,3.17,0,4.75,0,.02,0,.04,0,.06,0-.02,0-.03,0-.05,0-2.25,0-4.5,0-6.75,0-.03,0-.06,0-.09Z"/><path class="cls-21" d="M157.6,62.41s.04,0,.06,0c.39,0,.79,0,1.18,0,.02,0,.03,0,.05,0-.43,0-.85,0-1.28,0,.01-.02,.03-.01,.05-.01,.17,0,.34,0,.51,0,.22,0,.45,0,.67,0h.04s.02,0,.02-.02v-.03c0-.2,0-.39,0-.59,0,0,0-.02,0-.02,0-.02,0-.03-.03-.03-.02,0-.04,0-.06-.02q.1,0,.1,.09v.63s0,.04-.04,.04c-.4,0-.8,0-1.2,0-.03,0-.05,0-.07-.01Z"/><path class="cls-23" d="M168.25,62.37c.39,0,.78,0,1.18,0,.02,0,.04-.01,.05,.02-.4,0-.79,0-1.19,0,.4,0,.79,0,1.19,0,.03,0,.06-.01,.09,0h0s-.01,0-.02,0h-.02s-.03,0-.05,.01c-.01,0-.03,0-.04,0-.38,0-.76,0-1.15,0h-.03s-.03-.03,0-.05Z"/><path class="cls-17" d="M157.57,60.16c.14,.03,.28,.02,.43,.02,.28,0,.56,0,.85,0,.02,0,.04,0,.06,0,0,0,0,.02-.01,.02-.01,0-.03,0-.04,0-.39,0-.77,0-1.16,0-.04,0-.09,0-.13-.03Z"/><path class="cls-31" d="M163.98,65.65v1.2h0v-1.2h0Z"/><path class="cls-18" d="M168.25,62.37s0,.03,0,.05c-.02,0-.03-.01-.03-.03,0-.03,0-.06,0-.09,.01,0,.03,0,.04,0,.31,0,.62,0,.92,0-.01,.02-.03,.01-.05,.01-.12,0-.24,0-.37,0h-.47s-.01,0-.02,0c-.05,0-.06,.01-.04,.07Z"/><path class="cls-37" d="M157.48,61.22s.03,.02,.04,.04c-.02,0-.03-.02-.04-.04Z"/><path class="cls-35" d="M169.48,62.42s.03,0,.05,0c-.01,.01-.03,0-.05,0Z"/><path class="cls-22" d="M169.62,60.59s-.02,0-.03-.02c.01,0,.02,0,.03,.02Z"/><path class="cls-35" d="M169.54,62.41s.01,0,.02,0c0,0-.01,0-.02,0Z"/><path class="cls-22" d="M169.57,60.57h0s.01,0,.02,0h-.02Z"/><path class="cls-37" d="M157.52,61.25h.01s0,0-.01,0Z"/><path class="cls-56" d="M167.48,64.37c-.04,.15-.13,.27-.25,.36-.13,.1-.27,.14-.43,.14-1.03,0-2.07,0-3.1,0h-.54s-.02,0-.03,0c-.04,0-.04,0-.04-.04,0-.04,0-.04,.04-.04,.01,0,.02,0,.03,0,1.21,0,2.42,0,3.63,0,.1,0,.19-.01,.28-.05,.17-.08,.28-.2,.34-.38l.02-.04c.03-.06,.02-.13,.02-.19,0-.65,0-1.29,0-1.94,0-.02,0-.03,0-.05,0-.02,.01-.03,.04-.03,.02,0,.03,.01,.03,.03,0,.01,0,.02,0,.03,0,.64,0,1.28,0,1.92,0,.09,0,.18-.02,.27Z"/><path class="cls-57" d="M167.43,59.61c0-.74,0-1.48,0-2.22,0-.05,0-.1,0-.15,0-.02,0-.03,.02-.03,.04,0,.05,0,.05,.04,0,.04,0,.09,0,.13,0,1.23,0,2.46,0,3.69,0,.29,0,.57,0,.86,0,.05,0,.05-.04,.05-.03,0-.03,0-.03-.03,0-.03,0-.06,0-.09,0-.75,0-1.49,0-2.24Z"/><path class="cls-49" d="M167.48,64.37s0-.09,.01-.13c0-.03,0-.06,0-.09,0-.65,0-1.31,0-1.96v-.04s0-.02-.02-.02c-.02,0-.02,0-.02,.02v.04c0,.64,0,1.29,0,1.93,0,.05-.01,.11-.01,.16,0,.01,0,.03-.02,.04,.02-.13,.01-.27,.01-.4,0-.58,0-1.16,0-1.74,0,0,0-.01,0-.02,0-.04,.02-.06,.06-.04,0,0,.01,0,.01,.02,0,.01,0,.02,0,.03,0,.66,0,1.33,0,1.99,0,.07,0,.13-.02,.2v.02Z"/><path class="cls-32" d="M160.93,66.88c-.07-.03-.1-.08-.12-.15,0-.02,0-.05,0-.08,0-.38,0-.75,0-1.13,0,0,0-.02,0-.02,0-.02,0-.02,.02-.02,0,0,.01,0,.02,0,.2,0,.4,0,.6,0,.01,0,.03,0,.04,0,0,.03,0,.05,0,.08,0,.04,0,.05-.04,.05-.12,0-.25,0-.37,0-.04,0-.07,0-.11,0-.02,0-.03,0-.03,.03,0,0,0,0,0,.01v1.22Z"/><path class="cls-27" d="M163.17,66.88c-.08-.03-.12-.1-.12-.18,0-.02,0-.04,0-.07,0-.37,0-.73,0-1.1,0-.01,0-.02,0-.03,0-.01,0-.02,.02-.02,0,0,.02,0,.02,0,.2,0,.4,0,.6,0,.05,0,.04,0,.04,.05,0,.03,0,.05,0,.08-.17,0-.34,0-.52,0-.04,0-.04,0-.04,.04,0,.06,0,.13,0,.19v1.03Z"/><path class="cls-30" d="M168.1,63.34s0-.03,0-.04c0-.2,0-.4,0-.6,0-.04,0-.04,.04-.04,.38,0,.77,0,1.15,0,.09,0,.16,.04,.2,.12-.02,.01-.04,0-.06,0-.38,0-.75,0-1.13,0q-.06,0-.06,.06v.43s0,.02,0,.03c0,.02,0,.03-.03,.03-.03,0-.07,0-.1,0Z"/><path class="cls-30" d="M168.23,59.98s-.08,0-.12,0c-.02,0-.02,0-.02-.02,0-.21,0-.43,0-.64,0-.02,0-.02,.02-.02,0,0,.02,0,.02,0,.38,0,.76,0,1.14,0,.09,0,.16,.04,.2,.12-.02,0-.04,0-.06,0-.37,0-.74,0-1.12,0-.01,0-.02,0-.03,0-.03,0-.03,0-.04,.04h0v.52Z"/><path class="cls-40" d="M168.26,59.96h0Z"/><path class="cls-32" d="M168.23,61.1s-.07,0-.11,0c-.04,0-.04,0-.04-.04,0-.16,0-.33,0-.49,0-.04,0-.09,0-.13,0-.02,0-.03,.03-.03,0,0,0,0,.01,0,.38,0,.77,0,1.15,0,.09,0,.15,.04,.2,.12-.02,.01-.04,0-.06,0-.38,0-.75,0-1.13,0q-.06,0-.06,.06c0,.17,0,.33,0,.5Z"/><path class="cls-27" d="M165.41,66.88c-.07-.03-.11-.08-.12-.15,0-.02,0-.04,0-.06,0-.38,0-.75,0-1.13,0,0,0-.02,0-.03,0-.01,0-.02,.02-.02,0,0,.02,0,.02,0,.2,0,.4,0,.6,0,.01,0,.03,0,.04,0,0,.02,0,.04,0,.07,0,.06,0,.06-.05,.06-.12,0-.24,0-.36,0-.04,0-.08,0-.11,0-.02,0-.03,0-.03,.03,0,0,0,.01,0,.02,0,.39,0,.79,0,1.18v.03Z"/><path class="cls-41" d="M164.29,66.88c-.08-.03-.12-.1-.13-.18,0-.01,0-.03,0-.04v-1.12s0-.01,0-.02c0-.03,0-.03,.03-.03,.06,0,.13,0,.19,0,.13,0,.27,0,.4,0,.06,0,.05,0,.05,.06,0,.02,0,.05,0,.07-.17,0-.35,0-.52,0-.03,0-.03,0-.04,.03,0,.01,0,.03,0,.04v1.19Z"/><path class="cls-28" d="M162.05,66.88c-.08-.03-.12-.1-.13-.18,0-.02,0-.03,0-.05,0-.37,0-.74,0-1.11,0-.06,0-.05,.05-.05,.2,0,.4,0,.6,0,.04,0,.04,0,.04,.04,0,.03,0,.06,0,.09-.17,0-.35,0-.52,0-.02,0-.03,0-.03,.03,0,.4,0,.8,0,1.21v.03Z"/><path class="cls-28" d="M168.09,58.86s0-.03,0-.05c0-.2,0-.4,0-.59,0,0,0-.02,0-.02,0-.02,0-.02,.02-.02,0,0,.02,0,.03,0,.38,0,.75,0,1.13,0,.04,0,.08,0,.11,.03,0,0,.01,0,.02,.01h0s0,0,.01,0h0s.03,.03,.05,.05h0s0,0,0,.01h0s0,.02-.01,.02c-.01,0-.03,0-.04,0-.38,0-.75,0-1.13,0-.06,0-.06,0-.06,.06,0,.12,0,.23,0,.35,0,.05,0,.09,0,.14-.04,0-.09,0-.13,0Z"/><path class="cls-19" d="M168.23,58.85c0-.14,0-.29,0-.43,0-.03,0-.06,0-.09,0-.03,0-.04,.03-.04,.01,0,.02,0,.03,0,.38,0,.75,0,1.13,0,.02,0,.04,.01,.05-.02,0,0,.01,.01,.01,.02-.02,.01-.04,0-.06,0-.38,0-.75,0-1.13,0-.06,0-.06,0-.06,.06,0,.16,0,.31,0,.47,0,0,0,.02,0,.03Z"/><path class="cls-36" d="M169.47,58.32h0Z"/><path class="cls-28" d="M157.42,58.85c-.08-.02-.14-.09-.15-.19,0-.09,0-.19,0-.28,0-.12,.1-.21,.22-.21,.38,0,.76,0,1.15,0,0,0,.02,0,.02,0,.01,0,.02,0,.02,.02v.11c-.34,0-.68,0-1.02,0-.14,0-.25,.11-.25,.25,0,.1,0,.19,0,.29Z"/><path class="cls-36" d="M157.65,58.32h0Z"/><path class="cls-32" d="M157.41,61.09c-.09-.04-.14-.11-.14-.2,0-.09,0-.17,0-.26,0-.13,.1-.21,.22-.21,.38,0,.77,0,1.15,0,.04,0,.04,0,.04,.04,0,.03,0,.06,0,.09-.28,0-.56,0-.84,0-.06,0-.12,0-.18,0-.12,0-.21,.08-.24,.19,0,.02,0,.04,0,.07,0,.08,0,.16,0,.24,0,.02,0,.04,0,.05Z"/><path class="cls-30" d="M157.42,59.97c-.09-.03-.14-.1-.15-.19,0-.09,0-.18,0-.27,0-.12,.1-.21,.22-.21,.38,0,.77,0,1.15,0,.04,0,.04,0,.04,.04,0,.03,0,.06,0,.09-.3,0-.6,0-.91,0-.05,0-.09,0-.14,0-.13,.02-.22,.12-.22,.24,0,.1,0,.2,0,.3Z"/><path class="cls-30" d="M157.42,63.33c-.08-.02-.12-.08-.14-.15,0-.02,0-.04,0-.07,0-.07,0-.15,0-.22,0-.14,.09-.23,.24-.23,.38,0,.75,0,1.13,0,0,0,.01,0,.02,0,.02,0,.03,0,.03,.03,0,.03,0,.07,0,.1-.02,.01-.03,0-.05,0-.32,0-.64,0-.95,0-.04,0-.08,0-.12,.02-.08,.04-.13,.11-.13,.2,0,.1,0,.21,0,.31Z"/><path class="cls-20" d="M157.56,62.81s.05-.02,.07-.03c.02,0,.03,0,.05,0,.32,0,.65,0,.97,0h.03c0,.08,0,.17,0,.25,0,.09,0,.18,0,.27,0,.04,0,.04-.04,.04-.26,0-.51,0-.77,0-.1,0-.19,0-.29,0,.01-.02,.04-.01,.05-.01,.32,0,.65,0,.97,0,.07,0,.07,0,.07-.07,0-.14,0-.28,0-.42,0-.05,0-.05-.05-.05-.32,0-.64,0-.96,0-.04,0-.08,.02-.12,.02Z"/><path class="cls-26" d="M168.23,62.22s-.07,0-.1,0c-.04,0-.04,0-.04-.04,0-.06,0-.13,0-.19,0-.14,0-.27,0-.41,0-.04,0-.04,.04-.04,.38,0,.77,0,1.15,0,.09,0,.16,.04,.2,.12-.02,.01-.04,0-.06,0-.38,0-.75,0-1.13,0-.07,0-.06,0-.06,.07,0,.15,0,.29,0,.44,0,.02,0,.04,0,.06Z"/><path class="cls-26" d="M157.42,62.21c-.09-.03-.14-.1-.14-.2,0-.09,0-.17,0-.26,0-.13,.1-.22,.22-.22,.38,0,.77,0,1.15,0,.04,0,.04,0,.04,.04,0,.03,0,.06,0,.09-.34,0-.67,0-1.01,0-.15,0-.27,.12-.26,.27,0,.08,0,.15,0,.23,0,.02,0,.03,0,.05Z"/><path class="cls-24" d="M157.59,62.3s.03,0,.04,0c.36,0,.73,0,1.09,0,.01,0,.03,0,.04,0,0,0,.01,.01,0,.02,0,0,0,0-.02,0-.02-.02-.04,0-.06,0-.35,0-.71,0-1.06,0-.01,0-.03,0-.04,0,0,0,0,0,0,0Z"/><g><path class="cls-28" d="M162.6,54.76c-.02-.08-.09-.14-.19-.15-.09,0-.19,0-.28,0-.12,0-.21,.1-.21,.22,0,.38,0,.76,0,1.15,0,0,0,.02,0,.02,0,.01,0,.02,.02,.02h.11c0-.34,0-.68,0-1.02,0-.14,.11-.25,.25-.25,.1,0,.19,0,.29,0Z"/><path class="cls-35" d="M162.06,54.98c0-.12,.11-.24,.23-.24,.1,0,.2,0,.3,0,.03,0,.03,.03,.03,.05,0,.02,0,.04,0,.06,0,.36,0,.73,0,1.09,0,.03,0,.05-.01,.08h-.01s-.02,0-.03,.01c-.01,0-.03,0-.04,0,0-.03-.03-.03-.05-.03-.12,0-.24,0-.36,0-.06,0-.07,0-.07-.07,0-.31,0-.62,0-.93,0,0,0-.01,0-.02Z"/><path class="cls-53" d="M162.6,56.03s0,0,.01,0c0,0,0-.02,0-.03,0-.39,0-.77,0-1.16,0-.03,0-.06-.02-.09-.03-.08-.1-.12-.18-.13-.09,0-.18,0-.28,0-.09,0-.15,.05-.19,.13v.03s-.06,0-.08-.02c0-.04,.03-.08,.06-.12,.06-.07,.13-.1,.22-.1,.09,0,.18,0,.27,0,.13,0,.24,.08,.28,.21v.03s.03,.04,.03,.07c0,.4,0,.79,0,1.19,0,.07-.01,.09-.09,.09-.16,0-.33,0-.49,0-.02,0-.05,0-.07-.02h-.15c-.07,0-.06,0-.06-.06,0-.22,0-.44,0-.66,0-.14,0-.28,0-.42,0-.01,0-.03,0-.04,.02,0,.04,0,.06,0,0,0,0,0,0,.02,0,.01,0,.03,0,.04v1.01h0c0,.05,0,.05,.04,.05,.03,0,.06,0,.09,0,.02-.01,.04-.02,.06-.02,.12,0,.24,0,.36,0,.02,0,.04,0,.06,.02,.01,0,.03,0,.04,0,0,0,.01,0,.02,0Z"/><path class="cls-35" d="M162.05,56.11s.05,0,.08,0c.17,0,.33,0,.5,0,.05,0,.05,0,.05-.05,0-.33,0-.65,0-.98v-.29s.05,.02,.06,.05c.04,.05,.07,.11,.07,.17,0,.4,0,.79,0,1.19,0,.04,0,.04-.05,.04-.22,0-.45,0-.67,0-.04,0-.04,0-.04-.04,0-.03,0-.06,0-.09Z"/><path class="cls-39" d="M162.54,56.03c-.16,0-.32,0-.49,0,0-.08,0-.16,0-.23,0-.25,0-.5,0-.75,0-.02,0-.04,0-.06,.01,0,0-.02,.02-.03,.01,0,0,.02,0,.02-.02,.02-.02,.05-.02,.07v.87s0,.03,0,.04c0,.03,0,.03,.04,.03,.02,0,.03,0,.05,0,.13,0,.27,0,.4,0,.01,.02,0,.03-.01,.05Z"/><path class="cls-39" d="M162.6,56.03h-.02s0-.03,.02-.05c0,.02,0,.03,0,.05Z"/></g><path class="cls-19" d="M169.46,58.26s-.04-.03-.05-.05c.02,.01,.04,.03,.05,.05Z"/><path class="cls-19" d="M169.4,58.21s-.01,0-.02-.01c0,0,.01,0,.02,.01Z"/><path class="cls-19" d="M169.47,58.27s0,0,0-.01c0,0,0,0,0,.01Z"/><path class="cls-19" d="M169.41,58.22s0,0-.01,0c0,0,0,0,.01,0Z"/><path class="cls-33" d="M169.47,62.4h0Z"/><path class="cls-59" d="M167.48,64.18v-2.03h0v2.03h0Z"/><path class="cls-59" d="M167.48,61.9v-4.54h0v4.54h0Z"/><path class="cls-27" d="M161.25,61.34h0Z"/><g><path class="cls-28" d="M163.72,54.76c-.02-.08-.09-.14-.19-.15-.09,0-.19,0-.28,0-.12,0-.21,.1-.21,.22,0,.38,0,.76,0,1.15,0,0,0,.02,0,.02,0,.01,0,.02,.02,.02h.11c0-.34,0-.68,0-1.02,0-.14,.11-.25,.25-.25,.1,0,.19,0,.29,0Z"/><path class="cls-35" d="M163.18,54.98c0-.12,.11-.24,.23-.24,.1,0,.2,0,.3,0,.03,0,.03,.03,.03,.05,0,.02,0,.04,0,.06,0,.36,0,.73,0,1.09,0,.03,0,.05-.01,.08h-.01s-.02,0-.03,.01c-.01,0-.03,0-.04,0,0-.03-.03-.03-.05-.03-.12,0-.24,0-.36,0-.06,0-.07,0-.07-.07,0-.31,0-.62,0-.93,0,0,0-.01,0-.02Z"/><path class="cls-53" d="M163.72,56.03s0,0,.01,0c0,0,0-.02,0-.03,0-.39,0-.77,0-1.16,0-.03,0-.06-.02-.09-.03-.08-.1-.12-.18-.13-.09,0-.18,0-.28,0-.09,0-.15,.05-.19,.13v.03s-.06,0-.08-.02c0-.04,.03-.08,.06-.12,.06-.07,.13-.1,.22-.1,.09,0,.18,0,.27,0,.13,0,.24,.08,.28,.21v.03s.03,.04,.03,.07c0,.4,0,.79,0,1.19,0,.07-.01,.09-.09,.09-.16,0-.33,0-.49,0-.02,0-.05,0-.07-.02h-.15c-.07,0-.06,0-.06-.06,0-.22,0-.44,0-.66,0-.14,0-.28,0-.42,0-.01,0-.03,0-.04,.02,0,.04,0,.06,0,0,0,0,0,0,.02,0,.01,0,.03,0,.04v1.01h0c0,.05,0,.05,.04,.05,.03,0,.06,0,.09,0,.02-.01,.04-.02,.06-.02,.12,0,.24,0,.36,0,.02,0,.04,0,.06,.02,.01,0,.03,0,.04,0,0,0,.01,0,.02,0Z"/><path class="cls-35" d="M163.18,56.11s.05,0,.08,0c.17,0,.33,0,.5,0,.05,0,.05,0,.05-.05,0-.33,0-.65,0-.98v-.29s.05,.02,.06,.05c.04,.05,.07,.11,.07,.17,0,.4,0,.79,0,1.19,0,.04,0,.04-.05,.04-.22,0-.45,0-.67,0-.04,0-.04,0-.04-.04,0-.03,0-.06,0-.09Z"/><path class="cls-39" d="M163.66,56.03c-.16,0-.32,0-.49,0,0-.08,0-.16,0-.23,0-.25,0-.5,0-.75,0-.02,0-.04,0-.06,.01,0,0-.02,.02-.03,.01,0,0,.02,0,.02-.02,.02-.02,.05-.02,.07v.87s0,.03,0,.04c0,.03,0,.03,.04,.03,.02,0,.03,0,.05,0,.13,0,.27,0,.4,0,.01,.02,0,.03-.01,.05Z"/><path class="cls-39" d="M163.72,56.03h-.02s0-.03,.02-.05c0,.02,0,.03,0,.05Z"/></g><g><path class="cls-28" d="M164.84,54.76c-.02-.08-.09-.14-.19-.15-.09,0-.19,0-.28,0-.12,0-.21,.1-.21,.22,0,.38,0,.76,0,1.15,0,0,0,.02,0,.02,0,.01,0,.02,.02,.02h.11c0-.34,0-.68,0-1.02,0-.14,.11-.25,.25-.25,.1,0,.19,0,.29,0Z"/><path class="cls-35" d="M164.3,54.98c0-.12,.11-.24,.23-.24,.1,0,.2,0,.3,0,.03,0,.03,.03,.03,.05,0,.02,0,.04,0,.06,0,.36,0,.73,0,1.09,0,.03,0,.05-.01,.08h-.01s-.02,0-.03,.01c-.01,0-.03,0-.04,0,0-.03-.03-.03-.05-.03-.12,0-.24,0-.36,0-.06,0-.07,0-.07-.07,0-.31,0-.62,0-.93,0,0,0-.01,0-.02Z"/><path class="cls-53" d="M164.84,56.03s0,0,.01,0c0,0,0-.02,0-.03,0-.39,0-.77,0-1.16,0-.03,0-.06-.02-.09-.03-.08-.1-.12-.18-.13-.09,0-.18,0-.28,0-.09,0-.15,.05-.19,.13v.03s-.06,0-.08-.02c0-.04,.03-.08,.06-.12,.06-.07,.13-.1,.22-.1,.09,0,.18,0,.27,0,.13,0,.24,.08,.28,.21v.03s.03,.04,.03,.07c0,.4,0,.79,0,1.19,0,.07-.01,.09-.09,.09-.16,0-.33,0-.49,0-.02,0-.05,0-.07-.02h-.15c-.07,0-.06,0-.06-.06,0-.22,0-.44,0-.66,0-.14,0-.28,0-.42,0-.01,0-.03,0-.04,.02,0,.04,0,.06,0,0,0,0,0,0,.02,0,.01,0,.03,0,.04v1.01h0c0,.05,0,.05,.04,.05,.03,0,.06,0,.09,0,.02-.01,.04-.02,.06-.02,.12,0,.24,0,.36,0,.02,0,.04,0,.06,.02,.01,0,.03,0,.04,0,0,0,.01,0,.02,0Z"/><path class="cls-35" d="M164.3,56.11s.05,0,.08,0c.17,0,.33,0,.5,0,.05,0,.05,0,.05-.05,0-.33,0-.65,0-.98v-.29s.05,.02,.06,.05c.04,.05,.07,.11,.07,.17,0,.4,0,.79,0,1.19,0,.04,0,.04-.05,.04-.22,0-.45,0-.67,0-.04,0-.04,0-.04-.04,0-.03,0-.06,0-.09Z"/><path class="cls-39" d="M164.78,56.03c-.16,0-.32,0-.49,0,0-.08,0-.16,0-.23,0-.25,0-.5,0-.75,0-.02,0-.04,0-.06,.01,0,0-.02,.02-.03,.01,0,0,.02,0,.02-.02,.02-.02,.05-.02,.07v.87s0,.03,0,.04c0,.03,0,.03,.04,.03,.02,0,.03,0,.05,0,.13,0,.27,0,.4,0,.01,.02,0,.03-.01,.05Z"/><path class="cls-39" d="M164.84,56.03h-.02s0-.03,.02-.05c0,.02,0,.03,0,.05Z"/></g><g><path class="cls-28" d="M165.97,54.76c-.02-.08-.09-.14-.19-.15-.09,0-.19,0-.28,0-.12,0-.21,.1-.21,.22,0,.38,0,.76,0,1.15,0,0,0,.02,0,.02,0,.01,0,.02,.02,.02h.11c0-.34,0-.68,0-1.02,0-.14,.11-.25,.25-.25,.1,0,.19,0,.29,0Z"/><path class="cls-35" d="M165.43,54.98c0-.12,.11-.24,.23-.24,.1,0,.2,0,.3,0,.03,0,.03,.03,.03,.05,0,.02,0,.04,0,.06,0,.36,0,.73,0,1.09,0,.03,0,.05-.01,.08h-.01s-.02,0-.03,.01c-.01,0-.03,0-.04,0,0-.03-.03-.03-.05-.03-.12,0-.24,0-.36,0-.06,0-.07,0-.07-.07,0-.31,0-.62,0-.93,0,0,0-.01,0-.02Z"/><path class="cls-53" d="M165.97,56.03s0,0,.01,0c0,0,0-.02,0-.03,0-.39,0-.77,0-1.16,0-.03,0-.06-.02-.09-.03-.08-.1-.12-.18-.13-.09,0-.18,0-.28,0-.09,0-.15,.05-.19,.13v.03s-.06,0-.08-.02c0-.04,.03-.08,.06-.12,.06-.07,.13-.1,.22-.1,.09,0,.18,0,.27,0,.13,0,.24,.08,.28,.21v.03s.03,.04,.03,.07c0,.4,0,.79,0,1.19,0,.07-.01,.09-.09,.09-.16,0-.33,0-.49,0-.02,0-.05,0-.07-.02h-.15c-.07,0-.06,0-.06-.06,0-.22,0-.44,0-.66,0-.14,0-.28,0-.42,0-.01,0-.03,0-.04,.02,0,.04,0,.06,0,0,0,0,0,0,.02,0,.01,0,.03,0,.04v1.01h0c0,.05,0,.05,.04,.05,.03,0,.06,0,.09,0,.02-.01,.04-.02,.06-.02,.12,0,.24,0,.36,0,.02,0,.04,0,.06,.02,.01,0,.03,0,.04,0,0,0,.01,0,.02,0Z"/><path class="cls-35" d="M165.43,56.11s.05,0,.08,0c.17,0,.33,0,.5,0,.05,0,.05,0,.05-.05,0-.33,0-.65,0-.98v-.29s.05,.02,.06,.05c.04,.05,.07,.11,.07,.17,0,.4,0,.79,0,1.19,0,.04,0,.04-.05,.04-.22,0-.45,0-.67,0-.04,0-.04,0-.04-.04,0-.03,0-.06,0-.09Z"/><path class="cls-39" d="M165.91,56.03c-.16,0-.32,0-.49,0,0-.08,0-.16,0-.23,0-.25,0-.5,0-.75,0-.02,0-.04,0-.06,.01,0,0-.02,.02-.03,.01,0,0,.02,0,.02-.02,.02-.02,.05-.02,.07v.87s0,.03,0,.04c0,.03,0,.03,.04,.03,.02,0,.03,0,.05,0,.13,0,.27,0,.4,0,.01,.02,0,.03-.01,.05Z"/><path class="cls-39" d="M165.97,56.03h-.02s0-.03,.02-.05c0,.02,0,.03,0,.05Z"/></g></g></g></g><rect class="cls-27" x="102.19" y="58.61" width="24.96" height="3.32" rx="1.66" ry="1.66"/><rect class="cls-27" x="102.19" y="63.96" width="12.01" height="3.32" rx="1.66" ry="1.66"/></g></g></g></g></g></svg>