<?xml version="1.0" encoding="UTF-8"?><svg xmlns="http://www.w3.org/2000/svg" xmlns:xlink="http://www.w3.org/1999/xlink" viewBox="0 0 195 400"><defs><style>.cls-1,.cls-2,.cls-3,.cls-4,.cls-5,.cls-6,.cls-7,.cls-8,.cls-9{fill:none;}.cls-10{fill:url(#Degradado_sin_nombre_48-8);}.cls-10,.cls-11,.cls-12,.cls-13{mix-blend-mode:multiply;opacity:.5;}.cls-11{fill:url(#Degradado_sin_nombre_48-2);}.cls-12{fill:url(#Degradado_sin_nombre_48-4);}.cls-13{fill:url(#Degradado_sin_nombre_48-6);}.cls-2,.cls-5,.cls-6,.cls-7,.cls-8,.cls-14{stroke-linecap:round;}.cls-2,.cls-5,.cls-6,.cls-7,.cls-14{stroke-linejoin:round;}.cls-2,.cls-5,.cls-7,.cls-14{stroke:#fff;}.cls-2,.cls-8{stroke-width:.75px;}.cls-15{fill:url(#linear-gradient);}.cls-3{clip-path:url(#clippath-2);}.cls-4{clip-path:url(#clippath-1);}.cls-16{fill:#ededed;}.cls-17,.cls-14{fill:#fff;}.cls-18{fill:#efefef;}.cls-19{fill:#ccc;}.cls-20{fill:#d0d2d3;}.cls-21{fill:#09090c;}.cls-22{fill:#444;}.cls-23{fill:#4a4a4a;}.cls-24{fill:#3b3b3b;}.cls-25{fill:#606060;}.cls-26{clip-path:url(#clippath-3);}.cls-5,.cls-6{stroke-width:4px;}.cls-6{stroke:#d0d2d3;}.cls-7,.cls-9{stroke-width:.5px;}.cls-27{fill:url(#linear-gradient-8);}.cls-28{fill:url(#linear-gradient-9);}.cls-29{fill:url(#linear-gradient-3);}.cls-30{fill:url(#linear-gradient-4);}.cls-31{fill:url(#linear-gradient-2);}.cls-32{fill:url(#linear-gradient-6);}.cls-33{fill:url(#linear-gradient-7);}.cls-34{fill:url(#linear-gradient-5);}.cls-35{fill:url(#Degradado_sin_nombre_48);}.cls-36{fill:url(#linear-gradient-14);}.cls-37{fill:url(#linear-gradient-18);}.cls-38{fill:url(#linear-gradient-15);}.cls-39{fill:url(#linear-gradient-16);}.cls-40{fill:url(#linear-gradient-17);}.cls-41{fill:url(#linear-gradient-13);}.cls-42{fill:url(#linear-gradient-12);}.cls-43{fill:url(#linear-gradient-10);}.cls-44{fill:url(#linear-gradient-11);}.cls-45{isolation:isolate;}.cls-46{fill:url(#Degradado_sin_nombre_48-5);}.cls-47{fill:url(#Degradado_sin_nombre_48-3);}.cls-48{fill:url(#Degradado_sin_nombre_48-7);}.cls-8{stroke:#4a4a4a;}.cls-8,.cls-9{stroke-miterlimit:10;}.cls-14{stroke-width:3.43px;}.cls-49{fill:#c64e28;opacity:.59;}.cls-50{fill:#b30d31;opacity:.61;}.cls-9{stroke:#606060;}</style><linearGradient id="Degradado_sin_nombre_48" x1="1.11" y1="68.91" x2="1.11" y2="49.05" gradientTransform="matrix(1, 0, 0, 1, 0, 0)" gradientUnits="userSpaceOnUse"><stop offset="0" stop-color="#6d6f71"/><stop offset=".01" stop-color="#7b7d7f"/><stop offset=".05" stop-color="#9b9c9e"/><stop offset=".08" stop-color="#b6b7b8"/><stop offset=".12" stop-color="#cccdce"/><stop offset=".17" stop-color="#ddddde"/><stop offset=".23" stop-color="#e9e9ea"/><stop offset=".32" stop-color="#f0f0f1"/><stop offset=".55" stop-color="#f2f2f3"/><stop offset=".74" stop-color="#f0f0f1"/><stop offset=".81" stop-color="#e9e9ea"/><stop offset=".86" stop-color="#ddddde"/><stop offset=".9" stop-color="#cccdce"/><stop offset=".93" stop-color="#b6b7b8"/><stop offset=".96" stop-color="#9b9c9e"/><stop offset=".99" stop-color="#7b7d7f"/><stop offset="1" stop-color="#6d6f71"/></linearGradient><linearGradient id="Degradado_sin_nombre_48-2" x1="0" y1="58.98" x2="2.21" y2="58.98" xlink:href="#Degradado_sin_nombre_48"/><linearGradient id="Degradado_sin_nombre_48-3" x1="1.23" y1="123.35" x2="1.23" y2="89.5" xlink:href="#Degradado_sin_nombre_48"/><linearGradient id="Degradado_sin_nombre_48-4" x1="0" y1="106.43" x2="2.45" y2="106.43" xlink:href="#Degradado_sin_nombre_48"/><linearGradient id="Degradado_sin_nombre_48-5" x1="1.23" y1="166.16" x2="1.23" y2="132.31" xlink:href="#Degradado_sin_nombre_48"/><linearGradient id="Degradado_sin_nombre_48-6" x1="0" y1="149.24" x2="2.45" y2="149.24" xlink:href="#Degradado_sin_nombre_48"/><linearGradient id="Degradado_sin_nombre_48-7" x1="194.14" y1="153.09" x2="194.14" y2="102.58" xlink:href="#Degradado_sin_nombre_48"/><linearGradient id="Degradado_sin_nombre_48-8" x1="193.28" y1="127.83" x2="195" y2="127.83" xlink:href="#Degradado_sin_nombre_48"/><clipPath id="clippath-1"><path class="cls-1" d="M165.31,8.06h-18.86c-1.28,0-2.32,1.04-2.32,2.32v6.51c0,3.72-3.4,6.74-7.59,6.74H58.96c-4.19,0-7.59-3.02-7.59-6.74v-6.51c0-1.28-1.04-2.32-2.32-2.32H30.19c-11,0-19.91,8.91-19.91,19.91V369.06c0,11,8.91,19.91,19.91,19.91H165.31c11,0,19.91-8.91,19.91-19.91V27.98c0-11-8.91-19.91-19.91-19.91Z"/></clipPath><clipPath id="clippath-2"><path class="cls-4" d="M185.34,27.98V369.06c0,11.05-8.99,20.04-20.04,20.04H30.19c-11.05,0-20.04-8.99-20.04-20.04V27.98c0-11.05,8.99-20.04,20.04-20.04h18.86c1.35,0,2.45,1.1,2.45,2.45v6.51c0,3.65,3.35,6.62,7.46,6.62h77.58c4.11,0,7.46-2.97,7.46-6.62v-6.51c0-1.35,1.1-2.45,2.45-2.45h18.86c11.05,0,20.04,8.99,20.04,20.04Z"/></clipPath><clipPath id="clippath-3"><path class="cls-3" d="M185.09,27.98c0-10.91-8.87-19.79-19.79-19.79h-18.86c-1.21,0-2.2,.99-2.2,2.2v6.51c0,3.79-3.46,6.87-7.71,6.87H58.96c-4.25,0-7.71-3.08-7.71-6.87v-6.51c0-1.21-.99-2.2-2.2-2.2H30.19c-10.91,0-19.79,8.88-19.79,19.79V369.06c0,10.91,8.87,19.79,19.79,19.79H165.3c10.91,0,19.79-8.88,19.79-19.79V27.98Z"/></clipPath><linearGradient id="linear-gradient" x1="15.25" y1="89.77" x2="180.95" y2="89.77" gradientTransform="translate(-.26 3.07) rotate(-.16) scale(1 .96) skewX(.01)" gradientUnits="userSpaceOnUse"><stop offset="0" stop-color="#ff5a2b"/><stop offset=".9" stop-color="#f2a040"/></linearGradient><linearGradient id="linear-gradient-2" x1="104.29" y1="207.87" x2="105.22" y2="224.38" gradientTransform="matrix(1, 0, 0, 1, 0, 0)" gradientUnits="userSpaceOnUse"><stop offset=".02" stop-color="#a55582"/><stop offset=".42" stop-color="#b4496f"/><stop offset=".57" stop-color="#bc4768"/><stop offset=".82" stop-color="#d44455"/><stop offset=".91" stop-color="#de434d"/></linearGradient><linearGradient id="linear-gradient-3" x1="93.27" y1="218.52" x2="87.45" y2="233.4" gradientTransform="matrix(1, 0, 0, 1, 0, 0)" gradientUnits="userSpaceOnUse"><stop offset="0" stop-color="#ffde65"/><stop offset=".02" stop-color="#ffd954"/><stop offset=".13" stop-color="#ffc706"/><stop offset=".14" stop-color="#fdc10b"/><stop offset=".26" stop-color="#f39b30"/><stop offset=".32" stop-color="#f08d3f"/><stop offset=".47" stop-color="#eb6948"/></linearGradient><linearGradient id="linear-gradient-4" x1="97.07" y1="213.36" x2="99.46" y2="226.15" gradientTransform="matrix(1, 0, 0, 1, 0, 0)" gradientUnits="userSpaceOnUse"><stop offset=".02" stop-color="#cd5c6c"/><stop offset=".09" stop-color="#d65f68"/><stop offset=".27" stop-color="#e86561"/><stop offset=".4" stop-color="#ef685f"/><stop offset=".65" stop-color="#ee754f"/><stop offset=".96" stop-color="#ee8241"/></linearGradient><linearGradient id="linear-gradient-5" x1="100.86" y1="208.07" x2="101.79" y2="224.57" xlink:href="#linear-gradient-2"/><linearGradient id="linear-gradient-6" x1="100.28" y1="212.76" x2="102.67" y2="225.55" xlink:href="#linear-gradient-4"/><linearGradient id="linear-gradient-7" x1="101.17" y1="208.05" x2="102.1" y2="224.56" xlink:href="#linear-gradient-2"/><linearGradient id="linear-gradient-8" x1="101.32" y1="212.57" x2="103.71" y2="225.35" xlink:href="#linear-gradient-4"/><linearGradient id="linear-gradient-9" x1="95.68" y1="219.46" x2="89.86" y2="234.34" xlink:href="#linear-gradient-3"/><linearGradient id="linear-gradient-10" x1="93.4" y1="214.05" x2="95.79" y2="226.83" xlink:href="#linear-gradient-4"/><linearGradient id="linear-gradient-11" x1="100.14" y1="212.79" x2="102.53" y2="225.57" xlink:href="#linear-gradient-4"/><linearGradient id="linear-gradient-12" x1="100.72" y1="208.07" x2="101.65" y2="224.58" xlink:href="#linear-gradient-2"/><linearGradient id="linear-gradient-13" x1="100.14" y1="212.79" x2="102.53" y2="225.57" xlink:href="#linear-gradient-4"/><linearGradient id="linear-gradient-14" x1="95.47" y1="219.38" x2="89.66" y2="234.26" xlink:href="#linear-gradient-3"/><linearGradient id="linear-gradient-15" x1="94.02" y1="213.93" x2="96.41" y2="226.72" xlink:href="#linear-gradient-4"/><linearGradient id="linear-gradient-16" x1="95.61" y1="219.43" x2="89.8" y2="234.32" xlink:href="#linear-gradient-3"/><linearGradient id="linear-gradient-17" x1="93.27" y1="214.07" x2="95.66" y2="226.86" xlink:href="#linear-gradient-4"/><linearGradient id="linear-gradient-18" x1="-112.78" y1="-406.67" x2="-112.78" y2="-424.79" gradientTransform="translate(284.89 744.11)" gradientUnits="userSpaceOnUse"><stop offset="0" stop-color="#ee6934"/><stop offset=".39" stop-color="#f26646"/><stop offset="1" stop-color="#fd606d"/></linearGradient></defs><g class="cls-45"><g id="Layer_1"><g><g><path class="cls-19" d="M165.31,0H30.19C14.76,0,2.21,12.55,2.21,27.98V372.06c0,15.43,12.55,27.98,27.98,27.98H165.31c15.43,0,27.98-12.55,27.98-27.98V27.98c0-15.43-12.55-27.98-27.98-27.98Zm20.04,372.06c0,11.05-8.99,20.04-20.04,20.04H30.19c-11.05,0-20.04-8.99-20.04-20.04V27.98c0-11.05,8.99-20.04,20.04-20.04h18.86c1.35,0,2.45,1.1,2.45,2.45v6.51c0,3.65,3.35,6.62,7.46,6.62h77.58c4.11,0,7.46-2.97,7.46-6.62v-6.51c0-1.35,1.1-2.45,2.45-2.45h18.86c11.05,0,20.04,8.99,20.04,20.04V372.06Z"/><path class="cls-22" d="M114.02,12.55h-32.54c-.83,0-1.51,.68-1.51,1.51s.68,1.51,1.51,1.51h32.54c.83,0,1.51-.68,1.51-1.51s-.68-1.51-1.51-1.51Z"/><g><path class="cls-35" d="M0,51.23v15.51c0,1.2,.97,2.17,2.17,2.17h.04v-19.86h-.04c-1.2,0-2.17,.97-2.17,2.17Z"/><path class="cls-11" d="M0,51.23v15.51c0,1.2,.97,2.17,2.17,2.17h.04v-19.86h-.04c-1.2,0-2.17,.97-2.17,2.17Z"/></g><g><g><path class="cls-47" d="M0,91.74v29.37c0,1.24,1,2.24,2.24,2.24h.21v-33.85h-.21c-1.24,0-2.24,1-2.24,2.24Z"/><path class="cls-12" d="M0,91.74v29.37c0,1.24,1,2.24,2.24,2.24h.21v-33.85h-.21c-1.24,0-2.24,1-2.24,2.24Z"/></g><g><path class="cls-46" d="M0,134.55v29.37c0,1.24,1,2.24,2.24,2.24h.21v-33.85h-.21c-1.24,0-2.24,1-2.24,2.24Z"/><path class="cls-13" d="M0,134.55v29.37c0,1.24,1,2.24,2.24,2.24h.21v-33.85h-.21c-1.24,0-2.24,1-2.24,2.24Z"/></g></g><g><path class="cls-48" d="M193.28,102.58h0v50.51h0c.95,0,1.72-.99,1.72-2.21v-46.09c0-1.22-.77-2.21-1.72-2.21Z"/><path class="cls-10" d="M193.28,102.58h0v50.51h0c.95,0,1.72-.99,1.72-2.21v-46.09c0-1.22-.77-2.21-1.72-2.21Z"/></g><path class="cls-21" d="M189.49,27.98V369.06c0,13.34-10.85,24.19-24.19,24.19H30.19c-13.34,0-24.19-10.85-24.19-24.19V27.98C6,14.64,16.85,3.79,30.19,3.79H165.31c13.34,0,24.19,10.85,24.19,24.19Zm-24.19-19.91h-18.86c-1.28,0-2.32,1.04-2.32,2.32v6.51c0,3.72-3.4,6.74-7.59,6.74H58.96c-4.19,0-7.59-3.02-7.59-6.74v-6.51c0-1.28-1.04-2.32-2.32-2.32H30.19c-11,0-19.91,8.91-19.91,19.91V369.06c0,11,8.91,19.91,19.91,19.91H165.31c11,0,19.91-8.91,19.91-19.91V27.98c0-11-8.91-19.91-19.91-19.91Zm20.04,19.91V369.06c0,11.05-8.99,20.04-20.04,20.04H30.19c-11.05,0-20.04-8.99-20.04-20.04V27.98c0-11.05,8.99-20.04,20.04-20.04h18.86c1.35,0,2.45,1.1,2.45,2.45v6.51c0,3.65,3.35,6.62,7.46,6.62h77.58c4.11,0,7.46-2.97,7.46-6.62v-6.51c0-1.35,1.1-2.45,2.45-2.45h18.86c11.05,0,20.04,8.99,20.04,20.04Zm-.25,0c0-10.91-8.87-19.79-19.79-19.79h-18.86c-1.21,0-2.2,.99-2.2,2.2v6.51c0,3.79-3.46,6.87-7.71,6.87H58.96c-4.25,0-7.71-3.08-7.71-6.87v-6.51c0-1.21-.99-2.2-2.2-2.2H30.19c-10.91,0-19.79,8.88-19.79,19.79V369.06c0,10.91,8.87,19.79,19.79,19.79H165.3c10.91,0,19.79-8.88,19.79-19.79V27.98Z"/></g><g class="cls-26"><g><rect class="cls-17" x="7.63" y="6.58" width="181.12" height="62.71"/><rect class="cls-18" x="7.63" y="65.37" width="181.12" height="306.03"/><rect class="cls-15" x="15.29" y="72.56" width="165.61" height="33.26" rx="2.7" ry="2.7" transform="translate(.26 -.29) rotate(.17)"/><g><rect class="cls-17" x="23.24" y="79.1" width="148.28" height="5.69" rx="2.85" ry="2.85"/><rect class="cls-17" x="23.24" y="87.56" width="143.27" height="5.69" rx="2.85" ry="2.85"/><rect class="cls-17" x="23.24" y="96.02" width="18.96" height="5.69" rx="2.85" ry="2.85"/></g><g><rect class="cls-20" x="141.94" y="54.05" width="19.69" height="5.14" rx="1.79" ry="1.79"/><rect class="cls-16" x="71.11" y="49.59" width="54.02" height="11.68" rx="2.91" ry="2.91"/><rect class="cls-20" x="86.89" y="53.39" width="22.93" height="5.14" rx="1.93" ry="1.93"/><rect class="cls-20" x="35.5" y="53.39" width="16.21" height="5.14" rx="1.63" ry="1.63"/></g><g><rect class="cls-20" x="57.4" y="34.79" width="80.46" height="5.11" rx="2.56" ry="2.56"/><polyline class="cls-8" points="19.21 40.64 15.92 37.35 19.21 34.06"/><circle class="cls-23" cx="166.5" cy="37.35" r="1.13"/><circle class="cls-23" cx="170.39" cy="37.35" r="1.13"/><circle class="cls-23" cx="174.11" cy="37.35" r="1.13"/></g><rect class="cls-20" x="15.25" y="117.11" width="78.29" height="6.38" rx="2.32" ry="2.32"/><g><line class="cls-6" x1="28.83" y1="259.33" x2="167" y2="259.33"/><line class="cls-6" x1="28.83" y1="266.79" x2="167" y2="266.79"/><line class="cls-6" x1="26.43" y1="274.25" x2="169.73" y2="274.25"/></g><line class="cls-6" x1="18.11" y1="321.07" x2="156.27" y2="321.07"/><line class="cls-6" x1="18.11" y1="329.92" x2="53.68" y2="329.92"/><line class="cls-6" x1="18.11" y1="338.01" x2="80.03" y2="338.01"/><path class="cls-25" d="M194.29,370.01c1.93,0,1.93-3,0-3s-1.93,3,0,3h0Z"/><g><rect class="cls-17" x="16.31" y="132.7" width="163.78" height="171.36" rx="5.9" ry="5.9"/><g><rect class="cls-17" x="46.55" y="165.26" width="103.3" height="103.3" rx="5" ry="5"/><g><g><rect class="cls-24" x="55.71" y="259.15" width="4.22" height="4.22"/><rect class="cls-24" x="59.93" y="259.15" width="4.22" height="4.22"/><rect class="cls-24" x="64.15" y="259.15" width="4.22" height="4.22"/><rect class="cls-24" x="68.38" y="259.15" width="4.22" height="4.22"/><rect class="cls-24" x="72.6" y="259.15" width="4.22" height="4.22"/><rect class="cls-24" x="81.05" y="259.15" width="4.22" height="4.22"/><rect class="cls-24" x="85.27" y="259.15" width="4.22" height="4.22"/><rect class="cls-24" x="97.95" y="259.15" width="4.22" height="4.22"/><rect class="cls-24" x="106.39" y="259.15" width="4.47" height="4.22"/><rect class="cls-24" x="110.87" y="259.15" width="4.22" height="4.22"/><rect class="cls-24" x="119.32" y="259.15" width="4.22" height="4.22"/><rect class="cls-24" x="123.54" y="259.15" width="4.22" height="4.22"/><rect class="cls-24" x="127.76" y="259.15" width="4.22" height="4.22"/><rect class="cls-24" x="131.99" y="259.15" width="4.22" height="4.22"/><rect class="cls-24" x="136.21" y="259.15" width="4.22" height="4.22"/><rect class="cls-24" x="140.44" y="259.15" width="4.47" height="4.22"/><rect class="cls-24" x="51.48" y="259.15" width="4.22" height="4.22"/><rect class="cls-24" x="72.6" y="254.93" width="4.22" height="4.22"/><rect class="cls-24" x="85.27" y="254.93" width="4.22" height="4.22"/><rect class="cls-24" x="93.72" y="254.93" width="4.22" height="4.22"/><rect class="cls-24" x="97.95" y="254.93" width="4.22" height="4.22"/><rect class="cls-24" x="102.17" y="254.93" width="4.22" height="4.22"/><rect class="cls-24" x="106.39" y="254.93" width="4.47" height="4.22"/><rect class="cls-24" x="119.32" y="254.93" width="4.22" height="4.22"/><rect class="cls-24" x="140.44" y="254.93" width="4.47" height="4.22"/><rect class="cls-24" x="51.48" y="254.93" width="4.22" height="4.22"/><rect class="cls-24" x="59.93" y="250.71" width="4.22" height="4.22"/><rect class="cls-24" x="64.15" y="250.71" width="4.22" height="4.22"/><rect class="cls-24" x="72.6" y="250.71" width="4.22" height="4.22"/><rect class="cls-24" x="81.05" y="250.71" width="4.22" height="4.22"/><rect class="cls-24" x="85.27" y="250.71" width="4.22" height="4.22"/><rect class="cls-24" x="89.5" y="250.71" width="4.22" height="4.22"/><rect class="cls-24" x="97.95" y="250.71" width="4.22" height="4.22"/><rect class="cls-24" x="102.17" y="250.71" width="4.22" height="4.22"/><rect class="cls-24" x="106.39" y="250.71" width="4.47" height="4.22"/><rect class="cls-24" x="110.87" y="250.71" width="4.22" height="4.22"/><rect class="cls-24" x="119.32" y="250.71" width="4.22" height="4.22"/><rect class="cls-24" x="127.76" y="250.71" width="4.22" height="4.22"/><rect class="cls-24" x="131.99" y="250.71" width="4.22" height="4.22"/><rect class="cls-24" x="140.44" y="250.71" width="4.47" height="4.22"/><rect class="cls-24" x="51.48" y="250.71" width="4.22" height="4.22"/><rect class="cls-24" x="59.93" y="246.48" width="4.22" height="4.22"/><rect class="cls-24" x="64.15" y="246.48" width="4.22" height="4.22"/><rect class="cls-24" x="72.6" y="246.48" width="4.22" height="4.22"/><rect class="cls-24" x="81.05" y="246.48" width="4.22" height="4.22"/><rect class="cls-24" x="89.5" y="246.48" width="4.22" height="4.22"/><rect class="cls-24" x="97.95" y="246.48" width="4.22" height="4.22"/><rect class="cls-24" x="119.32" y="246.48" width="4.22" height="4.22"/><rect class="cls-24" x="127.76" y="246.48" width="4.22" height="4.22"/><rect class="cls-24" x="131.99" y="246.48" width="4.22" height="4.22"/><rect class="cls-24" x="140.44" y="246.48" width="4.47" height="4.22"/><rect class="cls-24" x="51.48" y="246.48" width="4.22" height="4.22"/><rect class="cls-24" x="72.6" y="242.26" width="4.22" height="4.22"/><rect class="cls-24" x="81.05" y="242.26" width="4.22" height="4.22"/><rect class="cls-24" x="85.27" y="242.26" width="4.22" height="4.22"/><rect class="cls-24" x="89.5" y="242.26" width="4.22" height="4.22"/><rect class="cls-24" x="97.95" y="242.26" width="4.22" height="4.22"/><rect class="cls-24" x="102.17" y="242.26" width="4.22" height="4.22"/><rect class="cls-24" x="110.87" y="242.26" width="4.22" height="4.22"/><rect class="cls-24" x="119.32" y="242.26" width="4.22" height="4.22"/><rect class="cls-24" x="140.44" y="242.26" width="4.47" height="4.22"/><rect class="cls-24" x="51.48" y="242.26" width="4.22" height="4.22"/><rect class="cls-24" x="55.71" y="238.03" width="4.22" height="4.22"/><rect class="cls-24" x="59.93" y="238.03" width="4.22" height="4.22"/><rect class="cls-24" x="64.15" y="238.03" width="4.22" height="4.22"/><rect class="cls-24" x="68.38" y="238.03" width="4.22" height="4.22"/><rect class="cls-24" x="72.6" y="238.03" width="4.22" height="4.22"/><rect class="cls-24" x="81.05" y="238.03" width="4.22" height="4.22"/><rect class="cls-24" x="89.5" y="238.03" width="4.22" height="4.22"/><rect class="cls-24" x="93.72" y="238.03" width="4.22" height="4.22"/><rect class="cls-24" x="102.17" y="238.03" width="4.22" height="4.22"/><rect class="cls-24" x="119.32" y="238.03" width="4.22" height="4.22"/><rect class="cls-24" x="123.54" y="238.03" width="4.22" height="4.22"/><rect class="cls-24" x="127.76" y="238.03" width="4.22" height="4.22"/><rect class="cls-24" x="131.99" y="238.03" width="4.22" height="4.22"/><rect class="cls-24" x="136.21" y="238.03" width="4.22" height="4.22"/><rect class="cls-24" x="140.44" y="238.03" width="4.47" height="4.22"/><rect class="cls-24" x="51.48" y="238.03" width="4.22" height="4.22"/><rect class="cls-24" x="93.72" y="233.81" width="4.22" height="4.22"/><rect class="cls-24" x="97.95" y="233.81" width="4.22" height="4.22"/><rect class="cls-24" x="102.17" y="233.81" width="4.22" height="4.22"/><rect class="cls-24" x="110.87" y="233.81" width="4.22" height="4.22"/><rect class="cls-24" x="55.71" y="229.59" width="4.22" height="4.22"/><rect class="cls-24" x="59.93" y="229.59" width="4.22" height="4.22"/><rect class="cls-24" x="64.15" y="229.59" width="4.22" height="4.22"/><rect class="cls-24" x="68.38" y="229.59" width="4.22" height="4.22"/><rect class="cls-24" x="81.05" y="229.59" width="4.22" height="4.22"/><rect class="cls-24" x="85.27" y="229.59" width="4.22" height="4.22"/><rect class="cls-24" x="89.5" y="229.59" width="4.22" height="4.22"/><rect class="cls-24" x="97.95" y="229.59" width="4.22" height="4.22"/><rect class="cls-24" x="102.17" y="229.59" width="4.22" height="4.22"/><rect class="cls-24" x="106.39" y="229.59" width="4.47" height="4.22"/><rect class="cls-24" x="119.32" y="229.59" width="4.22" height="4.22"/><rect class="cls-24" x="123.54" y="229.59" width="4.22" height="4.22"/><rect class="cls-24" x="127.76" y="229.59" width="4.22" height="4.22"/><rect class="cls-24" x="136.21" y="229.59" width="4.22" height="4.22"/><rect class="cls-24" x="140.44" y="229.59" width="4.47" height="4.22"/><rect class="cls-24" x="59.93" y="225.36" width="4.22" height="4.22"/><rect class="cls-24" x="64.15" y="225.36" width="4.22" height="4.22"/><rect class="cls-24" x="76.83" y="225.36" width="4.22" height="4.22"/><rect class="cls-24" x="81.05" y="225.36" width="4.22" height="4.22"/><rect class="cls-24" x="89.5" y="225.36" width="4.22" height="4.22"/><rect class="cls-24" x="102.17" y="225.36" width="4.22" height="4.22"/><rect class="cls-24" x="110.87" y="225.36" width="4.22" height="4.22"/><rect class="cls-24" x="123.54" y="225.36" width="4.22" height="4.22"/><rect class="cls-24" x="127.76" y="225.36" width="4.22" height="4.22"/><rect class="cls-24" x="55.71" y="221.14" width="4.22" height="4.22"/><rect class="cls-24" x="64.15" y="221.14" width="4.22" height="4.22"/><rect class="cls-24" x="68.38" y="221.14" width="4.22" height="4.22"/><rect class="cls-24" x="72.6" y="221.14" width="4.22" height="4.22"/><rect class="cls-24" x="76.83" y="221.14" width="4.22" height="4.22"/><rect class="cls-24" x="85.27" y="221.14" width="4.22" height="4.22"/><rect class="cls-24" x="89.5" y="221.14" width="4.22" height="4.22"/><rect class="cls-24" x="93.72" y="221.14" width="4.22" height="4.22"/><rect class="cls-24" x="97.95" y="221.14" width="4.22" height="4.22"/><rect class="cls-24" x="102.17" y="221.14" width="4.22" height="4.22"/><rect class="cls-24" x="106.39" y="221.14" width="4.47" height="4.22"/><rect class="cls-24" x="127.76" y="221.14" width="4.22" height="4.22"/><rect class="cls-24" x="131.99" y="221.14" width="4.22" height="4.22"/><rect class="cls-24" x="140.44" y="221.14" width="4.47" height="4.22"/><rect class="cls-24" x="51.48" y="221.14" width="4.22" height="4.22"/><rect class="cls-24" x="55.71" y="216.91" width="4.22" height="4.22"/><rect class="cls-24" x="59.93" y="216.91" width="4.22" height="4.22"/><rect class="cls-24" x="64.15" y="216.91" width="4.22" height="4.22"/><rect class="cls-24" x="81.05" y="216.91" width="4.22" height="4.22"/><rect class="cls-24" x="85.27" y="216.91" width="4.22" height="4.22"/><rect class="cls-24" x="102.17" y="216.91" width="4.22" height="4.22"/><rect class="cls-24" x="115.09" y="216.91" width="4.22" height="4.22"/><rect class="cls-24" x="119.32" y="216.91" width="4.22" height="4.22"/><rect class="cls-24" x="127.76" y="216.91" width="4.22" height="4.22"/><rect class="cls-24" x="131.99" y="216.91" width="4.22" height="4.22"/><rect class="cls-24" x="136.21" y="216.91" width="4.22" height="4.22"/><rect class="cls-24" x="140.44" y="216.91" width="4.47" height="4.22"/><rect class="cls-24" x="51.48" y="216.91" width="4.22" height="4.22"/><rect class="cls-24" x="64.15" y="212.69" width="4.22" height="4.22"/><rect class="cls-24" x="68.38" y="212.69" width="4.22" height="4.22"/><rect class="cls-24" x="72.6" y="212.69" width="4.22" height="4.22"/><rect class="cls-24" x="76.83" y="212.69" width="4.22" height="4.22"/><rect class="cls-24" x="81.05" y="212.69" width="4.22" height="4.22"/><rect class="cls-24" x="85.27" y="212.69" width="4.22" height="4.22"/><rect class="cls-24" x="97.95" y="212.69" width="4.22" height="4.22"/><rect class="cls-24" x="110.87" y="212.69" width="4.22" height="4.22"/><rect class="cls-24" x="115.09" y="212.69" width="4.22" height="4.22"/><rect class="cls-24" x="131.99" y="212.69" width="4.22" height="4.22"/><rect class="cls-24" x="51.48" y="212.69" width="4.22" height="4.22"/><rect class="cls-24" x="55.71" y="208.47" width="4.22" height="4.22"/><rect class="cls-24" x="59.93" y="208.47" width="4.22" height="4.22"/><rect class="cls-24" x="64.15" y="208.47" width="4.22" height="4.22"/><rect class="cls-24" x="68.38" y="208.47" width="4.22" height="4.22"/><rect class="cls-24" x="76.83" y="208.47" width="4.22" height="4.22"/><rect class="cls-24" x="85.27" y="208.47" width="4.22" height="4.22"/><rect class="cls-24" x="89.5" y="208.47" width="4.22" height="4.22"/><rect class="cls-24" x="97.95" y="208.47" width="4.22" height="4.22"/><rect class="cls-24" x="102.17" y="208.47" width="4.22" height="4.22"/><rect class="cls-24" x="106.39" y="208.47" width="4.47" height="4.22"/><rect class="cls-24" x="110.87" y="208.47" width="4.22" height="4.22"/><rect class="cls-24" x="119.32" y="208.47" width="4.22" height="4.22"/><rect class="cls-24" x="123.54" y="208.47" width="4.22" height="4.22"/><rect class="cls-24" x="127.76" y="208.47" width="4.22" height="4.22"/><rect class="cls-24" x="131.99" y="208.47" width="4.22" height="4.22"/><rect class="cls-24" x="140.44" y="208.47" width="4.47" height="4.22"/><rect class="cls-24" x="55.71" y="204.24" width="4.22" height="4.22"/><rect class="cls-24" x="64.15" y="204.24" width="4.22" height="4.22"/><rect class="cls-24" x="72.6" y="204.24" width="4.22" height="4.22"/><rect class="cls-24" x="76.83" y="204.24" width="4.22" height="4.22"/><rect class="cls-24" x="89.5" y="204.24" width="4.22" height="4.22"/><rect class="cls-24" x="93.72" y="204.24" width="4.22" height="4.22"/><rect class="cls-24" x="97.95" y="204.24" width="4.22" height="4.22"/><rect class="cls-24" x="106.39" y="204.24" width="4.47" height="4.22"/><rect class="cls-24" x="110.87" y="204.24" width="4.22" height="4.22"/><rect class="cls-24" x="115.09" y="204.24" width="4.22" height="4.22"/><rect class="cls-24" x="123.54" y="204.24" width="4.22" height="4.22"/><rect class="cls-24" x="131.99" y="204.24" width="4.22" height="4.22"/><rect class="cls-24" x="136.21" y="204.24" width="4.22" height="4.22"/><rect class="cls-24" x="140.44" y="204.24" width="4.47" height="4.22"/><rect class="cls-24" x="51.48" y="204.24" width="4.22" height="4.22"/><rect class="cls-24" x="55.71" y="200.02" width="4.22" height="4.22"/><rect class="cls-24" x="72.6" y="200.02" width="4.22" height="4.22"/><rect class="cls-24" x="76.83" y="200.02" width="4.22" height="4.22"/><rect class="cls-24" x="85.27" y="200.02" width="4.22" height="4.22"/><rect class="cls-24" x="89.5" y="200.02" width="4.22" height="4.22"/><rect class="cls-24" x="97.95" y="200.02" width="4.22" height="4.22"/><rect class="cls-24" x="102.17" y="200.02" width="4.22" height="4.22"/><rect class="cls-24" x="110.87" y="200.02" width="4.22" height="4.22"/><rect class="cls-24" x="115.09" y="200.02" width="4.22" height="4.22"/><rect class="cls-24" x="119.32" y="200.02" width="4.22" height="4.22"/><rect class="cls-24" x="123.54" y="200.02" width="4.22" height="4.22"/><rect class="cls-24" x="127.76" y="200.02" width="4.22" height="4.22"/><rect class="cls-24" x="131.99" y="200.02" width="4.22" height="4.22"/><rect class="cls-24" x="51.48" y="200.02" width="4.22" height="4.22"/><rect class="cls-24" x="85.27" y="195.79" width="4.22" height="4.22"/><rect class="cls-24" x="93.72" y="195.79" width="4.22" height="4.22"/><rect class="cls-24" x="97.95" y="195.79" width="4.22" height="4.22"/><rect class="cls-24" x="106.39" y="195.79" width="4.47" height="4.22"/><rect class="cls-24" x="110.87" y="195.79" width="4.22" height="4.22"/><rect class="cls-24" x="115.09" y="195.79" width="4.22" height="4.22"/><rect class="cls-24" x="55.71" y="191.57" width="4.22" height="4.22"/><rect class="cls-24" x="59.93" y="191.57" width="4.22" height="4.22"/><rect class="cls-24" x="64.15" y="191.57" width="4.22" height="4.22"/><rect class="cls-24" x="68.38" y="191.57" width="4.22" height="4.22"/><rect class="cls-24" x="72.6" y="191.57" width="4.22" height="4.22"/><rect class="cls-24" x="81.05" y="191.57" width="4.22" height="4.22"/><rect class="cls-24" x="85.27" y="191.57" width="4.22" height="4.22"/><rect class="cls-24" x="97.95" y="191.57" width="4.22" height="4.22"/><rect class="cls-24" x="115.09" y="191.57" width="4.22" height="4.22"/><rect class="cls-24" x="119.32" y="191.57" width="4.22" height="4.22"/><rect class="cls-24" x="127.76" y="191.57" width="4.22" height="4.22"/><rect class="cls-24" x="140.44" y="191.57" width="4.47" height="4.22"/><rect class="cls-24" x="51.48" y="191.57" width="4.22" height="4.22"/><rect class="cls-24" x="72.6" y="187.35" width="4.22" height="4.22"/><rect class="cls-24" x="106.39" y="187.35" width="4.47" height="4.22"/><rect class="cls-24" x="110.87" y="187.35" width="4.22" height="4.22"/><rect class="cls-24" x="119.32" y="187.35" width="4.22" height="4.22"/><rect class="cls-24" x="123.54" y="187.35" width="4.22" height="4.22"/><rect class="cls-24" x="131.99" y="187.35" width="4.22" height="4.22"/><rect class="cls-24" x="136.21" y="187.35" width="4.22" height="4.22"/><rect class="cls-24" x="140.44" y="187.35" width="4.47" height="4.22"/><rect class="cls-24" x="51.48" y="187.35" width="4.22" height="4.22"/><rect class="cls-24" x="59.93" y="183.12" width="4.22" height="4.22"/><rect class="cls-24" x="64.15" y="183.12" width="4.22" height="4.22"/><rect class="cls-24" x="72.6" y="183.12" width="4.22" height="4.22"/><rect class="cls-24" x="81.05" y="183.12" width="4.22" height="4.22"/><rect class="cls-24" x="85.27" y="183.12" width="4.22" height="4.22"/><rect class="cls-24" x="93.72" y="183.12" width="4.22" height="4.22"/><rect class="cls-24" x="97.95" y="183.12" width="4.22" height="4.22"/><rect class="cls-24" x="106.39" y="183.12" width="4.47" height="4.22"/><rect class="cls-24" x="123.54" y="183.12" width="4.22" height="4.22"/><rect class="cls-24" x="127.76" y="183.12" width="4.22" height="4.22"/><rect class="cls-24" x="131.99" y="183.12" width="4.22" height="4.22"/><rect class="cls-24" x="51.48" y="183.12" width="4.22" height="4.22"/><rect class="cls-24" x="59.93" y="178.9" width="4.22" height="4.22"/><rect class="cls-24" x="64.15" y="178.9" width="4.22" height="4.22"/><rect class="cls-24" x="72.6" y="178.9" width="4.22" height="4.22"/><rect class="cls-24" x="81.05" y="178.9" width="4.22" height="4.22"/><rect class="cls-24" x="89.5" y="178.9" width="4.22" height="4.22"/><rect class="cls-24" x="93.72" y="178.9" width="4.22" height="4.22"/><rect class="cls-24" x="97.95" y="178.9" width="4.22" height="4.22"/><rect class="cls-24" x="102.17" y="178.9" width="4.22" height="4.22"/><rect class="cls-24" x="106.39" y="178.9" width="4.47" height="4.22"/><rect class="cls-24" x="115.09" y="178.9" width="4.22" height="4.22"/><rect class="cls-24" x="119.32" y="178.9" width="4.22" height="4.22"/><rect class="cls-24" x="123.54" y="178.9" width="4.22" height="4.22"/><rect class="cls-24" x="131.99" y="178.9" width="4.22" height="4.22"/><rect class="cls-24" x="136.21" y="178.9" width="4.22" height="4.22"/><rect class="cls-24" x="140.44" y="178.9" width="4.47" height="4.22"/><rect class="cls-24" x="51.48" y="178.9" width="4.22" height="4.22"/><rect class="cls-24" x="72.6" y="174.67" width="4.22" height="4.22"/><rect class="cls-24" x="89.5" y="174.67" width="4.22" height="4.22"/><rect class="cls-24" x="93.72" y="174.67" width="4.22" height="4.22"/><rect class="cls-24" x="102.17" y="174.67" width="4.22" height="4.22"/><rect class="cls-24" x="106.39" y="174.67" width="4.47" height="4.22"/><rect class="cls-24" x="110.87" y="174.67" width="4.22" height="4.22"/><rect class="cls-24" x="115.09" y="174.67" width="4.22" height="4.22"/><rect class="cls-24" x="136.21" y="174.67" width="4.22" height="4.22"/><rect class="cls-24" x="51.48" y="174.67" width="4.22" height="4.22"/><rect class="cls-24" x="55.71" y="170.45" width="4.22" height="4.22"/><rect class="cls-24" x="59.93" y="170.45" width="4.22" height="4.22"/><rect class="cls-24" x="64.15" y="170.45" width="4.22" height="4.22"/><rect class="cls-24" x="68.38" y="170.45" width="4.22" height="4.22"/><rect class="cls-24" x="72.6" y="170.45" width="4.22" height="4.22"/><rect class="cls-24" x="81.05" y="170.45" width="4.22" height="4.22"/><rect class="cls-24" x="85.27" y="170.45" width="4.22" height="4.22"/><rect class="cls-24" x="106.39" y="170.45" width="4.47" height="4.22"/><rect class="cls-24" x="115.09" y="170.45" width="4.22" height="4.22"/><rect class="cls-24" x="123.54" y="170.45" width="4.22" height="4.22"/><rect class="cls-24" x="127.76" y="170.45" width="4.22" height="4.22"/><rect class="cls-24" x="140.44" y="170.45" width="4.47" height="4.22"/><rect class="cls-24" x="51.48" y="170.45" width="4.22" height="4.22"/></g><g><path class="cls-14" d="M108.14,220.12v-10.53c0-.88-.77-.8-.77-.8h-1.2s-1.79-.1-3.19,1.3c-1.47,1.47-1.5,3.23-1.5,3.23v.07h-2.25c-.87,0-1.87,.26-2.95,1.3-1.36,1.31-1.48,2.77-1.49,3.13h0v.08s-1.78,.03-2.22,.03-1.91,.17-3.12,1.5c-1.22,1.32-1.19,2.9-1.19,2.9v2.14c0,.55,.7,.56,.7,.56h14.29c.47,0,2.24-.19,3.59-1.74,1.35-1.55,1.31-3.18,1.31-3.18Z"/><g><path class="cls-31" d="M108.14,220.12v-10.53c0-.88-.77-.8-.77-.8h-1.2s-1.79-.1-3.19,1.3c-1.47,1.47-1.5,3.23-1.5,3.23v.07h0l.03,11.64h1.73c.47,0,2.24-.19,3.59-1.74,1.35-1.55,1.31-3.18,1.31-3.18Z"/><path class="cls-29" d="M92.57,217.94c-.45,0-1.91,.17-3.12,1.5-1.22,1.32-1.19,2.9-1.19,2.9v2.14c0,.55,.7,.56,.7,.56h5.56l.27-7.14s-1.77,.03-2.22,.03Z"/><path class="cls-30" d="M101.47,213.4h-2.25c-.87,0-1.87,.26-2.95,1.3-1.36,1.31-1.48,2.77-1.49,3.13v.45l.06,6.77h6.36l.26-11.63v-.02Z"/><polygon class="cls-34" points="101.5 225.04 101.5 225.04 101.47 213.4 101.5 225.04"/><polygon class="cls-32" points="101.5 225.04 101.5 225.04 101.47 213.4 101.5 225.04"/><polygon class="cls-33" points="101.47 213.4 101.47 213.4 101.47 213.41 101.47 213.4"/><polygon class="cls-27" points="101.47 213.4 101.47 213.4 101.47 213.41 101.47 213.4"/><polygon class="cls-28" points="94.84 225.04 94.85 225.04 94.79 218.27 94.84 225.04"/><polygon class="cls-43" points="94.84 225.04 94.85 225.04 94.79 218.27 94.84 225.04"/><path class="cls-50" d="M101.21,225.04h0Z"/><polygon class="cls-44" points="101.47 213.41 101.21 225.04 101.22 225.04 101.47 213.41"/><polygon class="cls-50" points="101.47 213.41 101.21 225.04 101.22 225.04 101.47 213.41"/><path class="cls-42" d="M101.47,213.41l-.25,11.63h.28l-.03-11.64v.02Z"/><path class="cls-41" d="M101.47,213.41l-.25,11.63h.28l-.03-11.64v.02Z"/><path class="cls-50" d="M101.47,213.41l-.25,11.63h.28l-.03-11.64v.02Z"/><path class="cls-49" d="M94.79,217.82h0v.08h0s0-.03,0-.08Z"/><polygon class="cls-36" points="94.79 217.9 94.52 225.04 94.52 225.04 94.79 217.9 94.79 217.9"/><polygon class="cls-49" points="94.79 217.9 94.52 225.04 94.52 225.04 94.79 217.9 94.79 217.9"/><path class="cls-38" d="M94.79,217.9v-.08c0,.05,0,.08,0,.08Z"/><path class="cls-49" d="M94.79,217.9v-.08c0,.05,0,.08,0,.08Z"/><polygon class="cls-39" points="94.79 217.9 94.52 225.04 94.84 225.04 94.79 218.27 94.79 217.9"/><polygon class="cls-40" points="94.79 217.9 94.52 225.04 94.84 225.04 94.79 218.27 94.79 217.9"/><polygon class="cls-49" points="94.79 217.9 94.52 225.04 94.84 225.04 94.79 218.27 94.79 217.9"/></g></g></g></g></g><g><rect class="cls-9" x="57.42" y="286.54" width="81.56" height="11.68" rx="3" ry="3"/><rect class="cls-25" x="80.88" y="291.05" width="33.88" height="3.11" rx="1.55" ry="1.55"/></g><rect class="cls-17" x="7.63" y="344.22" width="181.12" height="54.36"/><g><rect class="cls-23" x="16.78" y="353.42" width="161.99" height="19.22" rx="3.14" ry="3.14"/><line class="cls-5" x1="66.34" y1="363.02" x2="129.21" y2="363.02"/></g><g><rect class="cls-37" x="162.37" y="318.71" width="19.47" height="19.47" rx="3" ry="3" transform="translate(500.56 156.34) rotate(90)"/><g><path class="cls-2" d="M174.52,325.54h-4.83c-.35,0-.63,.28-.63,.63v3.06c0,.35,.28,.63,.63,.63h.81l-.13,1.49,1.76-1.49h2.38c.35,0,.63-.28,.63-.63v-3.06c0-.35-.28-.63-.63-.63Z"/><g><line class="cls-7" x1="170.4" y1="326.79" x2="173.27" y2="326.79"/><line class="cls-7" x1="170.4" y1="327.79" x2="173.27" y2="327.79"/><line class="cls-7" x1="170.4" y1="328.79" x2="172.71" y2="328.79"/></g></g></g></g></g></g></g></g></svg>