<svg xmlns="http://www.w3.org/2000/svg" width="175" height="131" xmlns:v="https://vecta.io/nano"><defs><linearGradient x1="55.502954%" y1="71.7842895%" x2="30.3028168%" y2="-16.483998%" id="A"><stop stop-color="#ffc481" offset="0%"/><stop stop-color="#ffd7ba" offset="24%"/><stop stop-color="#fff0e6" offset="58%"/><stop stop-color="#fff" offset="87%"/></linearGradient><linearGradient x1="90.1802491%" y1="67.7529341%" x2="9.63298862%" y2="65.966804%" id="B"><stop stop-color="#663600" offset="0%"/><stop stop-color="#5e3104" offset="1%"/><stop stop-color="#4d260b" offset="5%"/><stop stop-color="#431f10" offset="9%"/><stop stop-color="#401d11" offset="14%"/><stop stop-color="#45200f" offset="25%"/><stop stop-color="#532a08" offset="38%"/><stop stop-color="#663600" offset="49%"/><stop stop-color="#5f3300" offset="62%"/><stop stop-color="#512b00" offset="76%"/><stop stop-color="#4a2703" offset="83%"/><stop stop-color="#381b0a" offset="93%"/><stop stop-color="#30160d" offset="96%"/></linearGradient><linearGradient x1="15077.0964%" y1="106.129213%" x2="15183.5011%" y2="106.129213%" id="C"><stop stop-color="#663600" offset="0%"/><stop stop-color="#5e3104" offset="1%"/><stop stop-color="#4d260b" offset="5%"/><stop stop-color="#431f10" offset="9%"/><stop stop-color="#401d11" offset="14%"/><stop stop-color="#45200f" offset="25%"/><stop stop-color="#532a08" offset="38%"/><stop stop-color="#663600" offset="49%"/><stop stop-color="#5f3300" offset="62%"/><stop stop-color="#512b00" offset="76%"/><stop stop-color="#4a2703" offset="83%"/><stop stop-color="#381b0a" offset="93%"/><stop stop-color="#30160d" offset="96%"/></linearGradient><linearGradient x1="9319.82344%" y1="109.632864%" x2="9415.16402%" y2="109.632864%" id="D"><stop stop-color="#663600" offset="0%"/><stop stop-color="#5e3104" offset="1%"/><stop stop-color="#4d260b" offset="5%"/><stop stop-color="#431f10" offset="9%"/><stop stop-color="#401d11" offset="14%"/><stop stop-color="#45200f" offset="25%"/><stop stop-color="#532a08" offset="38%"/><stop stop-color="#663600" offset="49%"/><stop stop-color="#5f3300" offset="62%"/><stop stop-color="#512b00" offset="76%"/><stop stop-color="#4a2703" offset="83%"/><stop stop-color="#381b0a" offset="93%"/><stop stop-color="#30160d" offset="96%"/></linearGradient><linearGradient x1="99.9106345%" y1="50.0901829%" x2="-0.0893655049%" y2="50.0901829%" id="E"><stop stop-color="#b4cbdd" offset="0%"/><stop stop-color="#c1e6de" offset="73%"/></linearGradient><linearGradient x1="4687.29325%" y1="63.2903806%" x2="4734.23183%" y2="12.8258915%" id="F"><stop stop-color="#b4cbdd" offset="0%"/><stop stop-color="#c1e6de" offset="73%"/></linearGradient><linearGradient x1="3783.2461%" y1="49.9515973%" x2="3883.19836%" y2="49.9515973%" id="G"><stop stop-color="#b4cbdd" offset="0%"/><stop stop-color="#c1e6de" offset="73%"/></linearGradient><linearGradient x1="45.2615072%" y1="23.9018172%" x2="59.7201788%" y2="118.330441%" id="H"><stop stop-color="#ffcbba" offset="5%"/><stop stop-color="#ffc4b4" offset="20%"/><stop stop-color="#ffb2a4" offset="41%"/><stop stop-color="#ffaea0" offset="44%"/><stop stop-color="#e39486" offset="88%"/></linearGradient><linearGradient x1="84.8841528%" y1="96.4433423%" x2="-5.11574049%" y2="-13.8379091%" id="I"><stop stop-color="#ffcbba" offset="5%"/><stop stop-color="#ffc4b4" offset="20%"/><stop stop-color="#ffb2a4" offset="41%"/><stop stop-color="#ffaea0" offset="44%"/><stop stop-color="#e39486" offset="67%"/></linearGradient><linearGradient x1="80.5051302%" y1="44.0030134%" x2="-23.4184542%" y2="48.7220742%" id="J"><stop stop-color="#26303f" offset="0%"/><stop stop-color="#293a54" offset="22%"/><stop stop-color="#2b4263" offset="43%"/><stop stop-color="#2a3f5c" offset="59%"/><stop stop-color="#28354a" offset="81%"/><stop stop-color="#26303f" offset="91%"/></linearGradient><linearGradient x1="117.302453%" y1="76.0068707%" x2="-19.5167147%" y2="10.1751171%" id="K"><stop stop-color="#663600" offset="0%"/><stop stop-color="#5e3104" offset="1%"/><stop stop-color="#4d260b" offset="5%"/><stop stop-color="#431f10" offset="9%"/><stop stop-color="#401d11" offset="14%"/><stop stop-color="#45200f" offset="25%"/><stop stop-color="#532a08" offset="38%"/><stop stop-color="#663600" offset="49%"/><stop stop-color="#5f3300" offset="62%"/><stop stop-color="#512b00" offset="76%"/><stop stop-color="#4a2703" offset="83%"/><stop stop-color="#381b0a" offset="93%"/><stop stop-color="#30160d" offset="96%"/></linearGradient><linearGradient x1="29.5290431%" y1="9.45736065%" x2="67.6724859%" y2="86.7471639%" id="L"><stop stop-color="#ffcbba" offset="5%"/><stop stop-color="#ffc4b4" offset="20%"/><stop stop-color="#ffb2a4" offset="41%"/><stop stop-color="#ffaea0" offset="44%"/><stop stop-color="#e39486" offset="88%"/></linearGradient><linearGradient x1="55.2665404%" y1="82.8407419%" x2="47.8734554%" y2="-5.93788982%" id="M"><stop stop-color="#ffcbba" offset="5%"/><stop stop-color="#ffc4b4" offset="20%"/><stop stop-color="#ffb2a4" offset="41%"/><stop stop-color="#ffaea0" offset="44%"/><stop stop-color="#e39486" offset="88%"/></linearGradient><linearGradient x1="8419.70917%" y1="49.9885818%" x2="8519.68798%" y2="49.9885818%" id="N"><stop stop-color="#b4cbdd" offset="0%"/><stop stop-color="#c1e6de" offset="73%"/></linearGradient><linearGradient x1="167.254343%" y1="44.793855%" x2="-28.5714286%" y2="53.4999294%" id="O"><stop stop-color="#f28a00" offset="0%"/><stop stop-color="#fb9100" offset="19%"/><stop stop-color="#ff9500" offset="43%"/><stop stop-color="#ffda6a" offset="100%"/></linearGradient><linearGradient x1="159.319196%" y1="49.7350711%" x2="-4.71540179%" y2="50.1325495%" id="P"><stop stop-color="#f28a00" offset="0%"/><stop stop-color="#fb9100" offset="16%"/><stop stop-color="#ff9500" offset="35%"/><stop stop-color="#ffda6a" offset="100%"/></linearGradient><linearGradient x1="7825.82517%" y1="51.7335732%" x2="7642.54625%" y2="46.7382012%" id="Q"><stop stop-color="#f28a00" offset="0%"/><stop stop-color="#fb9100" offset="16%"/><stop stop-color="#ff9500" offset="35%"/><stop stop-color="#ffda6a" offset="100%"/></linearGradient></defs><g fill="none"><path d="M135.349 0H29.698c-8.311 0-15.049 5.903-15.049 13.17v96.323c0 2.2 3.053 3.276 4.793 1.699l14.891-13.569a7.55 7.55 0 0 1 5.072-1.856l95.907-.149c7.176 0 13.03-5.096 13.03-11.379V11.379C148.351 5.105 142.525 0 135.349 0z" fill="url(#A)"/><g transform="translate(32.435 5.448)"><path d="M68.972 2.711c10.414 5.151 11.82 19.909 9.8 40.727-.307 3.156-28.283 7.425-41.034-2.951-2.066-1.68 2.597-27.037 8.376-34.146C53.253-2.478 62.56-.482 68.972 2.711z" fill="url(#B)"/><path d="M69.224 2.933c5.435 3.016 8.721 8.502 9.977 14.349a83.96 83.96 0 0 1 1.405 13.143 49.69 49.69 0 0 1-.586 12.595c-.015.052-.062.088-.116.088s-.101-.036-.116-.088a104.32 104.32 0 0 0-1.052-23.603c-.987-6.497-4.048-12.484-9.716-16.243-.214-.167-.028-.371.205-.241z" fill="url(#C)"/><path d="M41.098 13.31C43.34 6.852 48.73 1.981 55.394.39c0 0 .065.065 0 .074-7.594 2.385-12.099 7.694-14.444 14.897-2.522 7.834-3.853 15.853-5.035 23.937-.017.066-.076.112-.144.112s-.127-.046-.144-.112a96.07 96.07 0 0 1 5.472-25.988h0z" fill="url(#D)"/><path d="M76.892 81.779l-8.376 1.773-2.038-10.572 1.331-9.114.214-1.485 2.168-14.85a36.17 36.17 0 0 1 4.16.473l.81.139" fill="url(#E)"/><path d="M30.665 73.166l9.372 3.907 3.909-10.432.428-1.169h0l.577-1.531 5.23-17.783v-.056l-3.444.111h-.931l-2.848.093s-10.684 4.752-12.657 11.62c-1.209 4.215-2.631 8.366-4.263 12.437l4.653 2.784" fill="url(#F)"/><path d="M32.778 92.211l1.861 11.509H75.98c1.182-11.296 4.374-39.743 3.816-45.405-.162-2.805-.643-5.582-1.433-8.279l-.056-.158a.76.76 0 0 0-.41-.455l-.112-.046h-.102c-.251-.501-2.727-1.049-6.18-1.541l-1.387-.195a179.99 179.99 0 0 0-18.465-1.448h-2.913c-1.247.065-2.02.213-2.131.464a7.23 7.23 0 0 0-1.498.733h0c-.92.574-1.722 1.317-2.364 2.19l-1.452 1.996c-1.303 1.782-4.384 6.497-7.445 11.286 0 0-3.565 3.713-1.145 29.339" fill="url(#G)"/><path d="M47.315 60.033c.12-2.928.614-5.829 1.47-8.632.614-1.968 1.266-4.028 2.95-5.253l2.541.074.168-2.367.586-8.418.186-2.562 13.169.316-.931 13.755v.316l2.718.325-.186.594a44.61 44.61 0 0 1-4.439 9.838c-1.885 3.102-4.547 5.661-7.725 7.425a9.99 9.99 0 0 1-5.398 1.281c-1.913-.112-3.634-1.195-4.56-2.868-.486-1.213-.675-2.524-.549-3.824h0z" fill="url(#H)"/><path d="M54.063 49.331a.35.35 0 0 1 0 .074c13.374-.232 12.443-16.02 12.443-16.02l-11.475 2.051-.586 8.418-.382 5.476z" fill="#a3452f" opacity=".22"/><path d="M44.067 25.218l.549-6.423c.121-3.091 1.861-6.228 3.63-8.854 1.09-1.682 2.47-3.159 4.076-4.362 4.65-3.12 10.524-3.811 15.775-1.856 6.915 2.729 7.753 9.625 6.012 15.871 4.356-2.265 4.653 3.341 4.653 3.341.316 5.569-5.175 5.69-5.175 5.69-.935 3.286-2.683 6.286-5.082 8.725a27.42 27.42 0 0 1-8.795 5.931c-4.899 1.873-10.444.092-13.327-4.279a17.67 17.67 0 0 1-2.531-11.825c.093-.603.14-1.309.214-1.958z" fill="url(#I)"/><path d="M76.622 25.404c-.339 3.164-1.762 6.115-4.03 8.353-2.265 2.197-5.227 3.539-8.376 3.796-1.565.127-3.14-.02-4.653-.436v-.056a1.16 1.16 0 0 0-.679-.928 3.62 3.62 0 0 0-.642-.167l-.698-.167a1.23 1.23 0 0 0-1.163.167c-.252.253-.421.577-.484.928-.079.337-.098.686-.056 1.03a1.02 1.02 0 0 0 .763.845 13.59 13.59 0 0 0 1.359.288c.465.127.961-.038 1.256-.418.165-.246.244-.54.223-.835 2.973.763 6.112.574 8.972-.538 3.102-1.25 5.662-3.55 7.231-6.497a14.35 14.35 0 0 0 1.675-5.355c-.026-.171-.172-.298-.345-.301s-.323.121-.353.291h0z" fill="url(#J)"/><path d="M60.643 18.897s-1.322.306-.689 1.466 3.127-.529 5.342 1.466c0 0 .428-3.035-4.653-2.933zm-8.954-.399s1.349.121.931 1.355-3.183-.084-5.091 2.209c-.037 0-.893-2.914 4.16-3.564zm4.244 9.931a3.5 3.5 0 0 0 1.638-.427c.123-.054.204-.173.21-.307s-.065-.259-.182-.324-.262-.058-.372.019a2.8 2.8 0 0 1-1.452.325l1.126-3.36c.05-.181-.051-.369-.229-.428s-.372.031-.441.206l-1.275 3.74a.39.39 0 0 0 0 .288.38.38 0 0 0 .233.176 4.06 4.06 0 0 0 .745.093h0zm4.654-2.348c0 .854.41 1.55.931 1.55s.866-.715.856-1.578-.41-1.55-.931-1.541-.866.705-.856 1.569zm-8.544.093c0 .863.41 1.559.931 1.55s.866-.705.856-1.569-.41-1.55-.931-1.55-.866.715-.856 1.569z" fill="#45240c"/><path d="M68.507 28.931c.27.928-.819 2.088-2.429 2.552s-3.146.056-3.416-.928.819-2.088 2.429-2.543 3.146-.028 3.416.919zm-17.115.278c-.205.835-1.517 1.234-2.941.882s-2.401-1.299-2.196-2.135 1.517-1.225 2.941-.928 2.438 1.401 2.196 2.181z" opacity=".65" fill="#fa6e64"/><path d="M58.251 30.843c-.151-.257-.459-.376-.745-.288a4.49 4.49 0 0 1-2.792-.102c-.141-.041-.292-.013-.41.074s-.186.225-.186.371c0 .668.261 1.856 2.029 1.856 2.196.093 2.485-1.244 2.103-1.912z" fill="#fff"/><path d="M44.644 18.777c1.647.594 7.781-1.856 11.336-9.337 0 0-3.667 6.497-4.653 7.24s3.434-1.411 6.394-7.369a7.84 7.84 0 0 0 2.168 4.891c1.671 1.648 3.57 3.048 5.64 4.158-1.712-2.45-1.582-3.713-2.159-5.513 0 0 6.831 16.289 15.17 18.981.437.139 2.708-16.892-4.905-24.726C68.656 1.977 59.358.26 55.952 1.467a10 10 0 0 0-7.976 3.462c-3.713 4.13-5.109 13.217-3.332 13.848z" fill="url(#K)"/><path d="M24.746 91.125C15.839 87.998 5.062 54.325 5.062 54.325c-3.425-.473-5.789-5.773-4.858-8.26s4.765-3.351 4.765-3.351c.029-2.454.187-4.904.475-7.342.428-2.979 2.355-2.042 2.41-.743s-.326 8.474-.326 8.474l1.908-7.889c.549-2.014 2.41-1.634 2.252.316s-1.117 8.465-1.117 8.465c3.025 1.569.54 7.063.54 7.063s9.307 15.639 14.407 21.681c1.173 1.374.27.798.847.882l.326-2.942s4.914 3.026 5.407 2.979a180.06 180.06 0 0 0 .717 18.563l-8.069-1.095z" fill="url(#L)"/><path d="M10.069 47.503c.042-.005.081-.026.107-.059s.038-.075.033-.117-.03-.08-.065-.104-.079-.034-.121-.026a22.19 22.19 0 0 1-4.309.26 1.06 1.06 0 0 1-.866-.928 2.11 2.11 0 0 1 1.489-1.856c1.37-.401 2.8-.558 4.225-.464.043.005.085-.008.118-.036s.05-.069.05-.112-.012-.083-.04-.114-.067-.05-.109-.053c-1.249-.056-2.5.047-3.723.306-.074-.5-.333-.953-.726-1.272a1.65 1.65 0 0 0-1.191-.306c-.071.017-.12.081-.12.153s.05.136.12.153c.331-.022.659.07.931.26.336.277.553.673.605 1.104l-.344.121a3.06 3.06 0 0 0-1.229.928 3.57 3.57 0 0 0-1.861-2.014c-.082-.033-.176.004-.214.084-.018.038-.02.082-.004.121s.048.069.087.084c.858.407 1.486 1.178 1.712 2.098h0a1.76 1.76 0 0 0-.214.928c.05.535.417.989.931 1.151h.093c.168.594.437 2.042 0 2.627a.55.55 0 0 1-.53.232c-.27 0-1.238-.381-2.373-3.258-.02-.053-.067-.091-.123-.101a.16.16 0 0 0-.149.056c-.036.044-.046.103-.026.156.745 1.856 1.61 3.109 2.392 3.397a1.27 1.27 0 0 0 .233.065.85.85 0 0 0 .819-.362l.214.102c.349.13.738.089 1.052-.111.726-.455.875-1.856.754-2.784.549 0 1.089-.111 1.508-.158v1.392c-.002.069.039.131.102.158h.056c.085-.005.154-.073.158-.158v-1.439l.549-.102zm-3.183 2.784a.87.87 0 0 1-.931 0c.195-.811.176-1.658-.056-2.46a9.38 9.38 0 0 0 1.601 0c.149.919-.074 2.098-.614 2.432v.028z" fill="#d5734e" opacity=".43"/><path d="M76.325 61.462s.074-1.244 5.714 3.917c6.952 6.358 3.611 41.544 3.611 41.544 2.96 1.782 3.034 7.574 1.219 9.486s-5.696 1.216-5.696 1.216c-.992 2.245-2.105 4.436-3.332 6.562-1.564 2.58-2.969.928-2.504-.26s3.63-7.657 3.63-7.657l-4.858 6.497c-1.303 1.624-2.857.566-1.945-1.16s4.356-7.36 4.356-7.36c-2.159-2.617 2.289-6.692 2.289-6.692s-3.583-27.176-6.282-28.772l3.797-17.319z" fill="url(#M)"/><path d="M75.161 48.199s8.097 1.169 10.973 11.37c2.95 10.469 4.923 16.038 4.923 16.038s-9.028 6.497-18.381 5.263c0 0-3.434-18.238-2.41-24.345.903-5.42 1.647-8.223 4.895-8.325z" fill="url(#N)"/></g><rect fill="url(#O)" transform="matrix(-1 0 0 -1 290.103518 103.877766)" x="127.104" y="44.347" width="35.896" height="15.184" rx="1.903"/><g fill="#fff"><path d="M148.695 49.516h-6.059a.28.28 0 0 1-.284-.12c-.062-.093-.062-.214 0-.307a.28.28 0 0 1 .284-.12h6.059a.28.28 0 0 1 .284.12c.062.093.062.214 0 .307a.28.28 0 0 1-.284.12h0zm6.981 0h-5.398a.28.28 0 0 1-.284-.12c-.062-.093-.062-.214 0-.307a.28.28 0 0 1 .284-.12h5.398a.28.28 0 0 1 .284.12c.062.093.062.214 0 .307a.28.28 0 0 1-.284.12h0zm-7.632 5.384h-5.407a.28.28 0 0 1-.284-.12c-.062-.093-.062-.214 0-.307a.28.28 0 0 1 .284-.12h5.407a.28.28 0 0 1 .228.274.28.28 0 0 1-.228.274zm5.109-2.84h-5.407a.28.28 0 0 1-.228-.274.28.28 0 0 1 .228-.274h5.407a.28.28 0 0 1 .284.12c.062.093.062.214 0 .307a.28.28 0 0 1-.284.12zm-6.97 0h-3.546a.28.28 0 0 1-.284-.12c-.062-.093-.062-.214 0-.307a.28.28 0 0 1 .284-.12h3.546a.28.28 0 0 1 .284.12c.062.093.062.214 0 .307a.28.28 0 0 1-.284.12zm5.695 2.84H149.7a.28.28 0 0 1-.228-.274.28.28 0 0 1 .228-.274h2.178a.28.28 0 0 1 .284.12c.062.093.062.214 0 .307a.28.28 0 0 1-.284.12zm-13.318-6.432c-1.669-1.113-3.895-.892-5.311.529a4.18 4.18 0 0 0-.497 5.3 3.07 3.07 0 0 0 1.145 1.142c1.66 1.03 3.813.78 5.192-.602a4.18 4.18 0 0 0 .578-5.18c-.255-.488-.638-.898-1.108-1.188h0zm-2.234 6.757c-1.35.06-2.603-.7-3.171-1.923s-.339-2.667.58-3.655a3.34 3.34 0 0 1 3.611-.854c1.266.472 2.12 1.66 2.163 3.007a3.29 3.29 0 0 1-.878 2.372 3.31 3.31 0 0 1-2.305 1.053zm-.186-5.3a.15.15 0 0 0-.109.047c-.028.03-.043.07-.04.111l.056 1.94c.018.075.085.128.163.128s.145-.053.163-.128l-.065-1.94c0-.044-.018-.085-.05-.115a.16.16 0 0 0-.118-.043z"/><path d="M136.066 51.985h0c-.003-.041.012-.081.04-.111s.068-.047.109-.047l1.498-.046c.086-.001.158.064.168.149h0c0 .089-.069.162-.158.167h-1.498c-.072.003-.137-.043-.158-.111z"/></g><path d="M9.558 19.797h28.274c1.406-.085 2.618.975 2.718 2.376v13.05a.51.51 0 0 1-.337.422c-.184.065-.389.02-.528-.115l-2.699-2.45a1.34 1.34 0 0 0-.931-.343H9.549c-1.217.08-2.27-.837-2.355-2.051v-8.873c.104-1.203 1.156-2.1 2.364-2.014z" fill="url(#P)"/><g fill="#fff"><path d="M25.864 24.772h6.692c.185 0 .335-.15.335-.334s-.15-.334-.335-.334h-6.692c-.185 0-.335.15-.335.334s.15.334.335.334zm-4.393 2.116h10.852c.131.022.263-.035.336-.147s.073-.255 0-.366-.205-.169-.336-.147H21.471c-.161.027-.279.166-.279.329s.118.302.279.329h0z"/><path d="M12.276 24.772h12.043c.185 0 .335-.15.335-.334s-.15-.334-.335-.334H12.276c-.185 0-.335.15-.335.334s.15.334.335.334zm9.027 2.116h12.099c.181-.005.326-.153.326-.334s-.144-.329-.326-.334H21.303c-.185 0-.335.15-.335.334a.34.34 0 0 0 .335.334zm-9.027 0h7.194c.131.022.263-.035.336-.147s.073-.255 0-.366-.205-.169-.336-.147h-7.194c-.131-.022-.263.035-.336.147s-.073.255 0 .366.205.169.336.147h0zm13.597-2.107h7.194c.185 0 .335-.15.335-.334s-.15-.334-.335-.334h-7.194c-.185 0-.335.15-.335.334s.15.334.335.334h0zm-13.597 4.233h11.466c.185 0 .335-.15.335-.334s-.15-.334-.335-.334H12.276c-.185 0-.335.15-.335.334s.15.334.335.334h0z"/></g><path d="M24.161 72.859H1.74C.834 72.806.055 73.496 0 74.4v8.353c.015.122.098.225.214.267s.246.013.335-.072L2.28 81.38c.155-.15.361-.236.577-.241h21.303c.777.042 1.444-.544 1.498-1.318v-5.569a1.41 1.41 0 0 0-.45-1.016c-.283-.263-.662-.399-1.048-.376z" fill="url(#Q)"/><g fill="#fff"><path d="M15.068 76.061h5.082c.123 0 .223-.1.223-.223s-.1-.223-.223-.223h-5.082c-.123 0-.223.1-.223.223s.1.223.223.223h0zM11.745 77.5h8.227c.123 0 .223-.1.223-.223s-.1-.223-.223-.223h-8.227c-.123 0-.223.1-.223.223s.1.223.223.223z"/><path d="M4.719 76.061h9.149c.123 0 .223-.1.223-.223s-.1-.223-.223-.223H4.719c-.123 0-.223.1-.223.223s.1.223.223.223h0zm6.887 1.439h9.149c.089.018.18-.019.231-.094s.051-.173 0-.249-.142-.112-.231-.094h-9.149c-.089-.018-.18.019-.231.094s-.051.173 0 .249.142.112.231.094zm-6.887 0h5.491c.123 0 .223-.1.223-.223s-.1-.223-.223-.223H4.719c-.123 0-.223.1-.223.223s.1.223.223.223zm10.358-1.439h5.463c.062.005.123-.015.17-.055s.076-.097.081-.159c-.019-.122-.127-.21-.251-.204h-5.463a.25.25 0 0 0-.261.223c.023.122.136.207.261.195zM4.719 78.864h8.702c.123 0 .223-.1.223-.223s-.1-.223-.223-.223H4.719c-.123 0-.223.1-.223.223s.1.223.223.223z"/></g><g opacity=".45" fill="#c4643b"><path d="M87.894 57.183h.009-.009zm-1.638-.325v.13c.01-.043.01-.087 0-.13z"/><path d="M87.894 57.183h0zm-1.657-.195v.009h.009z"/><path d="M85.055 57.081h0zm-.093 0h0 0 0 0v.065c0 .065 0 0 0 0v-.065.065c0-.046 0-.084 0 0h0s0-.074 0 0 0 0 0 0h0 .065s.056 0 .074.074h0 0s.056-.074.074 0h0s0-.093 0 0h0s.074 0 .084.074v-.065a.47.47 0 0 0 0 .121v-.074.056-.065.074h0 0v.084h0s0 .065 0 0a.4.4 0 0 1 0-.046h0 .065a.21.21 0 0 1 0-.111v.074-.084c.009.033.009.069 0 .102h0s0 .074 0 0h0 .056c.056 0 0 0 0-.102s0 .074.047.074 0-.056 0-.093 0 .056 0 .093 0 0 .056 0v-.065.056h0c0-.084.056.186.093.065h0v-.056.084c0-.102.047 0 .065 0 0 .176.065 0 .084.102h0v-.056c0-.056.093.065.149.102s0-.214 0-.111v.074c0-.084.074 0 .112-.074h0c0 .056 0 0 0 0v.065c0 .065 0-.065 0 0v-.056c0-.056 0 0 0 0v-.065c0 .093 0 .074 0 0 .005.025.005.05 0 .074v-.074c0 .121 0-.093 0 .056a.41.41 0 0 1 .093-.111v.111s0-.121.065-.102 0 0 0 .056.047 0 .065 0h0 0a1.39 1.39 0 0 1 0-.158v.176-.056c0-.056 0 0 0 .056s0-.065 0-.065h0v-.056h0s0-.102.056-.065 0 0 0 .093v-.056s0-.056 0 0h0 0 0v-.065h0v.084-.074h0s0-.074 0 0h0v.065c0 .065 0-.074.074-.065h0c0-.084 0 0 0 0h0 .056 0 .084 0 0v.056h0s0-.046 0 0h0 0 0v-.056c0-.056 0 0 0 0h.056 0 0 0 0 0 0 0 0 0 0 0 0v.102c0 .019 0-.046 0-.046h0 0 0 0-.056 0s0-.056 0 0h0v-.056c0-.065 0 .111-.056 0v.074c-.004-.031-.004-.062 0-.093v.056c.014.029.014.063 0 .093-.01-.033-.01-.069 0-.102h0 0v-.056h0v.056c0 .056 0-.084 0-.056-.01-.024-.01-.051 0-.074h0 0c.005.037.005.074 0 .111v-.065h0c0-.056 0 .065 0 .065.003-.022.003-.043 0-.065v.093c0 .028 0 0 0 0h0s0-.065 0 0v-.084c0 .046 0-.056 0 0v.084h0v.065.065c0 .065 0 0 0 0v-.121c0-.056 0 .065-.056 0h0c.005-.028.005-.056 0-.084v.084-.056.102-.111c0-.037 0 0 0 0s0 .056 0 0c.003.018.003.037 0 .056h0a.5.5 0 0 0 0 .074c0-.13-.047 0-.056-.111s0 0 0 0h0l.307-.139v-.065-.065h0c0-.056 0 .056 0 0h0c.013.039.013.082 0 .121a.29.29 0 0 0 0-.093v.111c0 .019 0-.056 0-.121h0c0-.074 0 0 0 0h0v.093h0c0 .093 0 0 0 0v-.093a.5.5 0 0 1 0 .102c-.004-.046-.004-.093 0-.139 0 0 0 .111-.047.111v-.186c0 .065 0 0-.074 0s0 0 0 .149 0 0 0 0v-.084-.056-.102c0-.037 0 .074 0 .056v.065c0 .074 0-.121 0 0h0l-.056.111c-.056.111 0-.056 0-.065s-.065.111-.084 0h0s0 .065 0 0h0s0 .056 0 0h0s0 .093-.074.111 0-.13 0-.149h0l-.084.111c-.028.037-.056 0-.074-.093a.23.23 0 0 1 0 .074s0 .065 0 0h0v-.056.102c0-.149-.074.056-.074-.084v.056-.056h0v.158-.074s0-.065-.065 0c0-.065 0 0 0 0h0c.004.031.004.062 0 .093h0 0s0 .056 0 0c0 0 0 .056 0 0h0 0a.48.48 0 0 1 0-.093s0 .093-.056.074h0 0c-.005.021-.005.044 0 .065h0v.065-.111c0-.028-.047 0-.065.074s0 0 0 0h0 0c0-.056-.074.102-.102 0h0-.13 0 0-.056-.819 0 0 0 .047 0 0v.056c0 .056 0 0 0 0l.158-.176zm.298-.176h-.009l.009.009v-.009zm2.234.204h0v.009z"/><path d="M85.614 57.313v-.009.009zm2.122-.093v-.009h0zm.121-.027h0zm-.075-.065h0 0s.019.009 0 0zm-.046-.047h0zm-.419.195l.009.019.009-.037zm-.028-.297v-.009l-.009.009zm-.577-.065v.074s.009-.093 0-.074zm-.242.056s0-.065 0 0-.009.009 0 0zm-.735-.149l.009-.019-.009.019zm9.762.91l.009-.009h-.009zm-3.155-.501v.009h0z"/><path d="M93.887 57.267v.139a.63.63 0 0 0 0-.139zm1.61.464h0zm-1.628-.324h0v.009zm-1.192.027h0z"/><path d="M95.497 57.722v.009-.009zm-2.913-.297v-.046c0-.046 0 0 0 .046h0 0 .047 0 0 0 0 0v.056c0 .056 0 0 0 0v-.056.065c0-.046 0-.074 0 0h0s0-.065 0 0 0 0 0 0h0 .065s.056 0 .074.065h0v-.046c0-.046 0 0 0 .046s.065-.074.074 0h0v-.046h0s.074 0 .074.084v-.065a.47.47 0 0 0 0 .121v-.074.056-.056h0v.084h0v.046c0-.065 0 .065 0 0h0 .065c.019 0 0-.102 0-.111v.074-.084c0-.084 0 .084 0 .102h0v.056s0 .074 0 0h0 .056c.056 0 0 0 0-.093s0 .074 0 .074v-.084c0-.028 0 0 0 .093.022.004.044.004.065 0v-.056.056h0c0-.074 0 .186.084.065h0v-.056.074c0 .074 0 0 .074 0 0 .176.056 0 .065.111h0c-.005-.018-.005-.037 0-.056.056 0 .093.074.14.111s0-.204 0-.102v.074c0-.093.074 0 .121-.065h0c0 .056 0 0 0 0-.002.022-.002.043 0 .065 0 0 0-.074 0 0h0v-.065c0 .102 0 .084 0 0s0 0 0 .074 0 0 0-.074c0 .121 0-.093 0 .056a.52.52 0 0 1 .102-.102v.111s.056-.121.084-.102c.005.018.005.037 0 .056h.074 0 0v-.158.176-.056c0-.056 0 0 0 .056s0-.065 0-.065v.056-.065h0s0-.093.065-.056 0 0 0 .093h0 0s0-.046 0 0h0 0 0v-.065h0v.084-.074.056s0-.074 0 0h0 .056c.056 0 0 0 0 .065s.056-.074.084-.065h0c0-.074 0 0 0 0h.056 0 .084 0 0 0 0 0 0 0c0-.056 0 0 0 0h.056 0 0 0 0 0 0 0 0 0 0 0v.102c0 .019 0-.046 0-.056h0 0 0 0-.056 0 0 0v-.056c0-.074 0 .102-.056 0v.074c-.004-.031-.004-.062 0-.093v.056c0-.019 0 .074 0 .093-.009-.033-.009-.069 0-.102h0 0v-.056h0v.046c0 .046 0-.084 0-.056s0-.065 0-.074v-.046h0 0 0v.111c0 .037 0 0 0 0v-.074h0c0-.056 0 .074 0 .065v-.056a.75.75 0 0 1 0 .084h0s0-.074 0 0v-.084s0-.056 0 0a.26.26 0 0 1 0 .084h0v.065c-.005.021-.005.044 0 .065 0-.074 0 0 0 0v-.121c0-.065 0 .056-.056 0h0v-.084.074-.056s0 .121-.047.102 0-.074 0-.111 0 0 0 0v.056h0a.12.12 0 0 0 0 .074v-.111h0v.074-.065-.074h0c0-.056 0 .046 0 0h0a.36.36 0 0 1-.056.121.29.29 0 0 0 0-.093v.111a.52.52 0 0 1 0-.121h0c0-.074 0 0 0 0h0s0 .102-.056.093h0c0 .084 0-.056 0 0v-.093a.56.56 0 0 1-.056.102c.014-.048.032-.095.056-.139v.093-.186c0 .065 0 0-.074 0s0 0 0 .149v-.084-.065-.093c0-.037 0 .065 0 0v.065c0 .074 0-.121 0 0h0s-.047 0-.074.111a.13.13 0 0 1 0-.065s-.074.111-.084 0h0s0 .056 0 0h0s0 .056 0 0h0s-.056.084-.084.102 0-.13 0-.139h0l-.093.111c-.028.037-.047 0-.065-.102a.23.23 0 0 1 0 .074s0 .056 0 0h0v-.065.111c0-.158-.084 0-.074-.093h0 0 0s0 .149-.056.149v-.074s0-.065-.065 0c0-.065 0 0 0 0v-.046.093h0 0s0 .056 0 0h0 0 0v-.093c0-.046 0 .084-.056.074h0 0v.065h0v.056-.111c0-.028 0 0-.065.074s0 0 0 0h-.047c-.047 0 0 0 0 0h0c0-.065-.074.084-.102 0h0-.14c-.037 0 0 0 0 0h0-.056 0 0 0 0 0v.056c0 .056 0 0 0 0h0l-.205-.464z"/><path d="M92.891 57.239v.009.009-.019zm2.215.381h0v.009zm-1.889.065v-.019.009zm2.122.065v-.009h0zm-.735.102h0zm.223-.121h0s0 .028 0 0zm-.018.019zm.651-.019h0zm-.074-.065h0zm-.047-.018h0zm-.419.121v.028l.009-.037zm-.009-.297v-.009l-.009.019zm-.568-.103v.065s.009-.084 0-.065zm-.968-.167l.009-.019-.019.009z"/></g></g></svg>