<svg xmlns="http://www.w3.org/2000/svg" width="175" height="131" xmlns:v="https://vecta.io/nano"><defs><linearGradient x1="45.2671632%" y1="69.3278444%" x2="66.4148989%" y2="-17.0072218%" id="A"><stop stop-color="#39466e" offset="0%"/><stop stop-color="#111c36" offset="51%"/><stop stop-color="#33456b" offset="85%"/></linearGradient><linearGradient x1="36.1465538%" y1="6.80011566%" x2="66.5853301%" y2="101.691086%" id="B"><stop stop-color="#39466e" offset="0%"/><stop stop-color="#111c36" offset="51%"/><stop stop-color="#33456b" offset="100%"/></linearGradient><linearGradient x1="44.4346823%" y1="26.429569%" x2="55.561288%" y2="73.5726336%" id="C"><stop stop-color="#99cbdd" offset="0%"/><stop stop-color="#e1e6e5" offset="82%"/></linearGradient><linearGradient x1="49.4956399%" y1="0.562563381%" x2="50.5030188%" y2="99.4405215%" id="D"><stop stop-color="#99cbdd" offset="0%"/><stop stop-color="#e1e6e5" offset="82%"/></linearGradient><linearGradient x1="44.741737%" y1="29.1496426%" x2="55.274625%" y2="70.8385821%" id="E"><stop stop-color="#99cbdd" offset="0%"/><stop stop-color="#e1e6e5" offset="82%"/></linearGradient><linearGradient x1="45.6853438%" y1="16.1993769%" x2="56.9748202%" y2="101.749341%" id="F"><stop stop-color="#193f5c" offset="15%"/><stop stop-color="#163354" offset="55%"/></linearGradient><linearGradient x1="26.3865207%" y1="73.4246575%" x2="69.1808096%" y2="34.086758%" id="G"><stop stop-color="#de7f00" offset="12%"/><stop stop-color="#ffae3d" offset="48%"/><stop stop-color="#ffda6a" offset="74%"/></linearGradient><linearGradient x1="16.8795603%" y1="84.3667704%" x2="93.0662681%" y2="29.2793871%" id="H"><stop stop-color="#de7f00" offset="28%"/><stop stop-color="#ffae3d" offset="48%"/><stop stop-color="#ffda6a" offset="74%"/></linearGradient><linearGradient x1="-46.9379623%" y1="50.0445115%" x2="246.701781%" y2="50.0445115%" id="I"><stop stop-color="#663600" offset="0%"/><stop stop-color="#5e3104" offset="2%"/><stop stop-color="#4d260b" offset="9%"/><stop stop-color="#431f10" offset="17%"/><stop stop-color="#401d11" offset="26%"/><stop stop-color="#663600" offset="49%"/><stop stop-color="#5f3300" offset="55%"/><stop stop-color="#512b00" offset="61%"/><stop stop-color="#4a2703" offset="69%"/><stop stop-color="#381b0a" offset="80%"/><stop stop-color="#30160d" offset="84%"/></linearGradient><linearGradient x1="58.7871902%" y1="23.9069796%" x2="22.0482437%" y2="119.696287%" id="J"><stop stop-color="#fcbba7" offset="0%"/><stop stop-color="#fa9778" offset="48%"/><stop stop-color="#f39071" offset="66%"/><stop stop-color="#e17e5f" offset="91%"/><stop stop-color="#d97657" offset="100%"/></linearGradient><linearGradient x1="42.9580684%" y1="30.6181796%" x2="70.5442407%" y2="76.3500763%" id="K"><stop stop-color="#fcbba7" offset="0%"/><stop stop-color="#fa9778" offset="48%"/><stop stop-color="#f39071" offset="66%"/><stop stop-color="#e17e5f" offset="91%"/><stop stop-color="#d97657" offset="100%"/></linearGradient><linearGradient x1="-64.7235822%" y1="50.0124451%" x2="104.749331%" y2="50.0124451%" id="L"><stop stop-color="#de7f00" offset="28%"/><stop stop-color="#ffae3d" offset="48%"/><stop stop-color="#ffda6a" offset="74%"/></linearGradient><linearGradient x1="1.75876915e-13%" y1="50%" x2="240.594059%" y2="50%" id="M"><stop stop-color="#3468b5" offset="5%"/><stop stop-color="#94edff" offset="54%"/></linearGradient><linearGradient x1="0%" y1="50%" x2="100%" y2="50%" id="N"><stop stop-color="#c73900" offset="5%"/><stop stop-color="#ff5615" offset="77%"/></linearGradient><linearGradient x1="39.6493382%" y1="-20.2358123%" x2="75.4705101%" y2="222.819005%" id="O"><stop stop-color="#3468b5" offset="5%"/><stop stop-color="#94edff" offset="54%"/></linearGradient><linearGradient x1="-27.5404619%" y1="78.1945095%" x2="230.580792%" y2="-23.0766785%" id="P"><stop stop-color="#8cedb1" offset="0%"/><stop stop-color="#90ecb0" offset="2%"/><stop stop-color="#bbe3a1" offset="30%"/><stop stop-color="#d4eab5" offset="41%"/><stop stop-color="#ebf0c6" offset="54%"/><stop stop-color="#f3f2cd" offset="63%"/></linearGradient><linearGradient x1="1.02895012%" y1="50.5438292%" x2="118.555982%" y2="49.2386391%" id="Q"><stop stop-color="#b4e1dd" offset="1%"/><stop stop-color="#f3f4e5" offset="86%"/></linearGradient><linearGradient x1="-21.4154739%" y1="52.4924471%" x2="486.796968%" y2="34.8187311%" id="R"><stop stop-color="#f28a00" offset="0%"/><stop stop-color="#f88b10" offset="4%"/><stop stop-color="#fd8d1d" offset="9%"/><stop stop-color="#ff8d21" offset="14%"/><stop stop-color="#fc821d" offset="32%"/><stop stop-color="#f46411" offset="64%"/><stop stop-color="#e83a00" offset="100%"/></linearGradient><linearGradient x1="26.3931674%" y1="61.4820553%" x2="91.1887984%" y2="23.7297861%" id="S"><stop stop-color="#b4cbdd" offset="2%"/><stop stop-color="#c1e6de" offset="60%"/></linearGradient><linearGradient x1="-63.1485899%" y1="-63.1049545%" x2="75.7619265%" y2="75.8055619%" id="T"><stop stop-color="#de7f00" offset="0%"/><stop stop-color="#ffae3d" offset="52%"/><stop stop-color="#ffda6a" offset="100%"/></linearGradient></defs><g fill="none" fill-rule="evenodd"><g fill-rule="nonzero"><path d="M59.637 4.032l52.107.002a6.08 6.08 0 0 1 6.075 6.075l.004 109.784c.001 3.355-2.719 6.075-6.074 6.075l-52.108-.002a6.08 6.08 0 0 1-6.075-6.075l-.004-109.784c-.001-3.355 2.719-6.075 6.074-6.075z" fill="url(#A)" transform="matrix(.989323 .145738 -.145738 .989323 10.387872 -11.794719)"/><path d="M60.209 5.265l51.031.002a4.88 4.88 0 0 1 4.88 4.88l.004 109.181a4.88 4.88 0 0 1-4.879 4.88l-51.031-.002a4.88 4.88 0 0 1-4.88-4.88l-.004-109.181a4.88 4.88 0 0 1 4.879-4.88z" fill="url(#B)" transform="matrix(.989323 .145738 -.145738 .989323 10.34974 -11.802325)"/></g><g stroke="#20283d" stroke-width=".5"><path d="M93.664 11.399c-.285-.039-.542-.192-.711-.425a1.08 1.08 0 0 1 .227-1.522c.231-.177.523-.251.81-.207h0c.592.091 1.001.641.919 1.235-.07.461-.422.828-.879.919h0a1.12 1.12 0 0 1-.365 0zm.267-1.788a.74.74 0 0 0-.533.138.67.67 0 0 0-.277.474.71.71 0 0 0 .84.81h0a.68.68 0 0 0 .296-.138.71.71 0 0 0 .277-.464.71.71 0 0 0-.603-.82h0zm4.247 5.533l-10.263-1.512h0c-.224-.22-.339-.527-.316-.84a.87.87 0 0 1 .316-.672.89.89 0 0 1 .652-.158h0l9.878 1.462a.85.85 0 0 1 .573.336.89.89 0 0 1 .158.652.87.87 0 0 1-.701.731h0a.7.7 0 0 1-.296 0h0zm-10.105-1.858l10.155 1.492h.168c.212-.04.375-.211.405-.425.03-.271-.156-.518-.425-.563l-9.878-1.462h0a.49.49 0 0 0-.365.099.46.46 0 0 0-.198.356.69.69 0 0 0 .138.504z" opacity=".89"/><path d="M77.74 119.334c-2.929-.435-4.952-3.163-4.518-6.093s3.16-4.954 6.09-4.521 4.954 3.159 4.523 6.089c-.207 1.409-.966 2.678-2.11 3.526s-2.577 1.208-3.985.999h0zm1.511-10.246a4.99 4.99 0 0 0-1.458 9.872 4.99 4.99 0 0 0 5.666-4.201 5 5 0 0 0-4.208-5.671h0z"/></g><g fill-rule="nonzero"><path fill="url(#C)" transform="matrix(.145738 -.989323 .989323 .145738 13.024074 137.694697)" d="M43.053 34.345l86.385-.003-.002 53.925-86.385.003z"/><path fill="url(#D)" transform="matrix(.145738 -.989323 .989323 .145738 58.618037 108.715502)" d="M90.399-6.547h3.725l-.002 53.925h-3.725z"/><path fill="url(#E)" opacity=".81" transform="matrix(.145738 -.989323 .989323 .145738 11.672811 137.686571)" d="M49.289 40.931l72.552-.003-.001 42.308-72.552.003z"/><g transform="translate(50.487 26.993)"><path fill="url(#F)" d="M35.63 78.212l3.526-39.897-.85-.573-13.839-.761-.79.336-3.131 38.672z"/><path fill="url(#G)" d="M55.13 81.087l-2.055-35.214-13.869-8.062-.049.504-3.526 39.897z"/><path fill="url(#H)" d="M20.546 75.989l3.131-38.672.207-2.599L6.46 43.551 0 72.966z"/><path d="M45.785 8.407c.117-2.649-1.935-4.892-4.583-5.009a4.94 4.94 0 0 0-.662 0C38.119 1.51 36.391-.555 32.341.137a5.61 5.61 0 0 0-3.803 2.539 4.2 4.2 0 0 0-.306.593c-1.425.164-2.784.687-3.951 1.522a4.94 4.94 0 0 0-3.181 6.314l.336 1.176c.107 2.15.527 4.274 1.245 6.304.198 0 .78.672.78.672s2.114 1.69 2.736.672a20.04 20.04 0 0 0 .573-2.391v-1.64a14.13 14.13 0 0 1 .128-3.596 4.01 4.01 0 0 1 1.373-2.055c1.649.756 3.452 1.115 5.265 1.047.586.392 1.271.611 1.976.632.69.035 1.376-.13 1.976-.474a4.8 4.8 0 0 0 3.299 1.541c.243.02.488.02.731 0a4.32 4.32 0 0 1 .543 1.176c.198.879 1.976-.692 2.677-2.964a4.81 4.81 0 0 0 1.047-2.796z" fill="url(#I)"/><path fill="#e17460" opacity=".46" d="M42.841 12.26h0l.188 5.454z"/><path d="M43.355 27.545v-.494h0l-.326-9.317v-.613l-.148-4.496a4.73 4.73 0 0 1-2.074.385 4.8 4.8 0 0 1-3.378-1.561c-.599.344-1.285.509-1.976.474-1.549-.065-2.902-1.067-3.418-2.529-.863-.053-1.73.007-2.578.178a4.06 4.06 0 0 0-2.588 2.727 14.13 14.13 0 0 0-.128 3.596v1.64c-.104.641-.263 1.273-.474 1.887-.741 1.225-1.294-.148-1.521-.919a.62.62 0 0 0-.622-.435h0c-.838.003-1.629.383-2.156 1.034s-.732 1.505-.56 2.325l.079.425a3.3 3.3 0 0 0 3.359 2.727h0v1.047l-1.146 10.878a5.01 5.01 0 0 0 4.416 5.543l3.517.395a5.02 5.02 0 0 0 5.542-4.426l.395-3.567a6.69 6.69 0 0 0 5.789-6.906z" fill="url(#J)"/><g fill="#e17460"><path d="M43.355 27.545v-.494c.059 1.692-.558 3.338-1.715 4.574a6.37 6.37 0 0 1-4.449 2.016l-4.495.158a6.38 6.38 0 0 1-4.577-1.725c-1.236-1.16-1.96-2.765-2.011-4.46l-.109-3.102h-1.126l.128 3.596a6.69 6.69 0 0 0 4.08 5.928c-.073.264-.106.537-.099.81.059 1.759 1.847 3.132 3.951 3.053s3.833-1.571 3.773-3.33v-.168h.178a6.69 6.69 0 0 0 6.47-6.857z" opacity=".46"/><path d="M36.855 30.213a.17.17 0 0 1-.109-.059c-.035-.034-.055-.08-.055-.128s.02-.095.055-.128a1.79 1.79 0 0 1 1.976-.336c.045.023.079.063.094.112s.01.101-.015.145-.06.078-.106.093-.098.01-.141-.014a1.42 1.42 0 0 0-1.59.267c-.03.028-.068.045-.109.049zm-13.197-7.697c-.059-.009-.111-.046-.138-.099-.024-.044-.029-.097-.015-.145s.049-.089.094-.112l.909-.445-.79-1.541a.17.17 0 0 1-.019-.142c.015-.048.051-.086.098-.105s.094-.029.141-.014.085.049.106.093l.988 1.867-1.245.622c-.04.019-.085.026-.128.02z"/></g><g fill="#fff"><path d="M39.67 36.447l1.195 4.318c.145.508-.008 1.054-.395 1.413l-4.672 4.367a.73.73 0 0 1-1.334-.059l-3.161-4.822 7.112-5.997c.514-.484 1.284-.03 1.255.781z"/><path d="M23.391 33.157l8.841 8.892-6.421 4.071c-.609.396-1.42.253-1.857-.326l-4.307-6.412c-.307-.472-.307-1.08 0-1.551l2.855-4.604a.65.65 0 0 1 .889-.069z"/></g><path d="M55.297 49.154h0v-1.512l.079-5.632c-2.963-.83-5.828-4.683-5.818-4.673L47 35.044c-.471-.408-.564-1.103-.217-1.62.197-.271.499-.446.833-.482s.666.071.916.294l2.43 2.174c.177.176.448.22.671.108s.351-.354.317-.602c-.142-.76-.483-1.469-.988-2.055l-5.828-6.353c-.214-.232-.327-.539-.314-.854s.151-.612.384-.825h0a1.57 1.57 0 0 1 1.857.277l4.05 4.417c.182.199.478.244.711.109l.158-.099c.27-.155.366-.497.217-.771l-3.368-6.709c-.292-.551-.126-1.234.385-1.591.283-.181.629-.235.953-.146s.595.31.746.61l3.28 6.521a.78.78 0 0 0 .929.395.88.88 0 0 0 .573-1.107l-1.976-6.215c-.207-.591.066-1.244.632-1.512.306-.137.656-.136.962.002s.538.4.638.719l2.065 6.462c.142.429.415.802.78 1.067h0a.62.62 0 0 0 .677.039c.214-.122.335-.358.311-.602l-.257-3.033c-.072-.621.331-1.198.938-1.344.33-.063.67.016.939.217s.44.506.473.84l.77 6.61a39.53 39.53 0 0 1 .682 10.869l.504 5.701.138 1.294h0l-8.673 1.304z" fill="url(#K)"/><path d="M55.307 37.218c-.128-.021-.237-.107-.286-.227-.592-1.272-1.877-2.077-3.28-2.055-.099.003-.194-.035-.265-.104s-.111-.163-.111-.262c-.006-.204.152-.375.356-.385 1.696-.005 3.24.979 3.951 2.52.039.093.039.198 0 .291s-.114.166-.207.203c-.051.016-.105.023-.158.02z" fill="#e27f6d"/><path d="M52.561 42.712a3.16 3.16 0 0 0-2.578 3.369L52.7 80.366c-.207 3.221 5.542 5.928 11.597 4.851h0c2.678-.488 5.044-2.04 6.559-4.301a10.07 10.07 0 0 0 1.482-7.703l-5.68-29.928a3.17 3.17 0 0 0-3.694-2.529l-10.402 1.956z" fill="url(#L)"/></g><circle fill="url(#M)" cx="95.393" cy="97.863" r="3.991"/><path d="M97.734 97.508l-.859.099.069-.435c.011-.073-.008-.148-.052-.208s-.111-.099-.185-.108l-2.479-.366c-.152-.018-.291.086-.316.237l-.267 1.818c-.018.152.086.291.237.316l2.47.366c.155.024.301-.082.326-.237l.059-.435.79.336.267-1.344s0-.049-.059-.04z" fill="#fff"/><circle fill="url(#N)" cx="81.919" cy="95.877" r="3.991"/><path d="M84.3 96.451v-.267a1.77 1.77 0 0 0-1.492-1.976l-1.185-.178c-.532-.09-1.079.041-1.512.364s-.715.809-.78 1.345v.089c-.11.081-.184.202-.207.336v.119h0c-.01.025-.01.054 0 .079v.346c-.012.133.085.251.217.267l1.422.207c.113-.001.21-.078.237-.188v-.326c.006-.043.006-.086 0-.128v-.109c.023-.2-.064-.397-.227-.514.05-.28.311-.471.593-.435l1.185.178c.149.02.255.157.237.306v.316c-.136.075-.228.211-.247.366v.119h0c-.005.026-.005.053 0 .079v.346c-.006.135.093.251.227.267l1.413.207c.136.024.267-.063.296-.198v-.316c.006-.043.006-.086 0-.128v-.119c.019-.172-.047-.342-.178-.455h0z" fill="#fff"/><circle fill="url(#O)" transform="matrix(.145738 -.989323 .989323 .145738 -34.365024 148.008921)" cx="68.522" cy="93.904" r="3.992"/><path d="M68.396 94.751a.89.89 0 0 0 .988-.751l.198-1.294a.89.89 0 0 0-1.213-.982.89.89 0 0 0-.545.725l-.198 1.294a.89.89 0 0 0 .77 1.008h0zm1.521-1.077c-.05-.009-.101.003-.142.033s-.068.075-.075.125l-.089.632a.69.69 0 0 1-.77.573l-.909-.138a.72.72 0 0 1-.603-.81l.099-.642c.012-.1-.058-.192-.158-.207s-.197.048-.217.148l-.089.642c-.089.597.322 1.154.919 1.245h.247l-.079.563h0-.296c-.103-.012-.197.057-.217.158-.012.1.058.192.158.207l.988.148c.101.008.193-.059.217-.158.012-.103-.057-.197-.158-.217h-.306 0l.079-.553h.286c.277.042.559-.028.783-.195a1.05 1.05 0 0 0 .412-.694l.099-.632c.012-.054-.001-.111-.036-.155s-.086-.07-.142-.072h0z" fill="#fff"/><path d="M82.304 41.456s.988.138.612 1.047-2.371-.188-3.892 1.462c0 0-.533-2.203 3.28-2.51zm6.144-.682s-.988.178-.583 1.077 2.371-.277 3.951 1.314c.049.04.445-2.233-3.368-2.391zm-1.946 10.72a5.58 5.58 0 0 1-3.191-.988.25.25 0 0 1-.118-.167c-.014-.07.004-.142.048-.198.038-.062.101-.105.172-.118a.26.26 0 0 1 .203.049h0c.109.079 2.865 1.976 4.662-.089.104-.103.271-.103.375 0 .098.106.098.269 0 .375a3.11 3.11 0 0 1-2.153 1.136h0zm-.049-3.715a2.57 2.57 0 0 1-1.255-.207c-.097-.032-.167-.116-.181-.217s.031-.201.116-.258.194-.06.282-.009c.349.146.731.197 1.106.148l-1.067-2.44c-.058-.134-.001-.289.128-.356.065-.03.14-.032.207-.006s.121.078.149.144l1.205 2.747c.029.066.029.141 0 .207s-.086.125-.158.148a2.54 2.54 0 0 1-.533.099h0zm-3.625-.948c.049.652-.198 1.196-.563 1.225s-.691-.474-.741-1.116.198-1.196.563-1.225.691.474.741 1.116zm6.401-.494c0 .642-.207 1.186-.563 1.215s-.701-.474-.751-1.116.207-1.196.563-1.225.701.504.751 1.126z" fill="#45240c"/><path d="M75.123 48.945c0 .731.988 1.373 2.203 1.423s2.282-.504 2.311-1.245-.988-1.373-2.203-1.423-2.282.504-2.311 1.245zm14.086-.267c.217.711 1.363.988 2.558.622s1.976-1.235 1.778-1.976-1.363-.988-2.558-.613-1.985 1.275-1.778 1.966z" opacity=".23" fill="#fa6e64"/><path d="M16.437 15.747h27.165c1.195 0 2.163.969 2.163 2.164v16.708c.011.581-.213 1.141-.619 1.556s-.963.648-1.544.648h-4.03l.929 6.294-8.377-6.294H16.437c-1.191 0-2.158-.963-2.163-2.154V17.911c0-1.195.969-2.164 2.163-2.164z" fill="url(#P)"/><path d="M42.812 21.26h-21.95v-1.028h21.949zm-3.645 3.261h-21.95v-1.028h21.949zm-11.429 3.3h-10.52v-1.028h10.52zm14.619 5.236h-10.52V32.03h10.52z" fill="#fff"/><rect fill="url(#Q)" y="91.826" width="56.641" height="18.111" rx="1.748"/><g fill="#fff"><rect x="19.351" y="96.905" width="32.133" height="1.591" rx=".691"/><rect x="19.351" y="100.403" width="32.133" height="1.591" rx=".691"/><rect x="19.351" y="103.584" width="32.133" height="1.591" rx=".691"/></g><path d="M9.927 107.131h0a6.55 6.55 0 0 1-6.539-6.541h0a6.54 6.54 0 0 1 6.539-6.541h0a6.54 6.54 0 0 1 6.539 6.541h0a6.55 6.55 0 0 1-6.539 6.541z" fill="url(#R)"/><path d="M8.89 99.178c-.071-.443.1-.89.449-1.173s.821-.358 1.24-.198.72.532.791.975c.066.408-.072.823-.369 1.111s-.716.411-1.122.332c-.518-.104-.914-.524-.988-1.047h0zm-1.739.089a2.89 2.89 0 0 0 .405 1.581l.395.672 2.153 3.883 1.827-3.369.691-1.116c.289-.473.443-1.017.445-1.571.019-1.637-1.292-2.98-2.929-2.999s-2.979 1.293-2.998 2.93l.01-.01zm142.146-36.193h-19.983c-.209-.005-.375-.176-.375-.385s.168-.375.375-.375h19.983c.101-.003.199.036.272.106s.113.168.113.269-.041.2-.113.272-.17.113-.272.113z" fill="#fff"/><path d="M167.384 51.899h-42.09c-1.007-.003-1.973.396-2.685 1.108s-1.111 1.679-1.108 2.686v20.828a.69.69 0 0 0 1.195.484l3.734-3.952a1.75 1.75 0 0 1 1.264-.543h39.66a3.26 3.26 0 0 0 3.25-3.28V55.18a3.27 3.27 0 0 0-3.22-3.28h0z" fill="url(#S)"/><path d="M153.9 59.685h-26.67c-.207 0-.375-.168-.375-.375s.166-.38.375-.385h26.67c.209.005.375.176.375.385s-.168.375-.375.375h0zm10.965 0h-9.256c-.207 0-.375-.168-.375-.375s.166-.38.375-.385h9.256c.211.005.38.175.385.385-.005.209-.176.376-.385.375h0zm-.326 3.389h-14.965c-.102 0-.2-.041-.272-.113s-.113-.17-.113-.272.041-.198.113-.269.171-.109.272-.106h14.965c.207 0 .375.168.375.375s-.166.38-.375.385h0zm-11.429 3.389h-25.88c-.187-.03-.324-.191-.324-.38s.137-.35.324-.38h25.881c.15-.024.301.042.384.17s.083.293 0 .42-.234.195-.384.17h0z" fill="#fff"/><circle fill="url(#T)" transform="matrix(.707107 -.707107 .707107 .707107 12.731674 133.671641)" cx="167.722" cy="51.467" r="5.147"/><path fill="#fff" d="M168.303 53.876h-.701v-4.278l-.721.435v-.731l.721-.474h.701z"/></g></g></svg>