<svg xmlns="http://www.w3.org/2000/svg" xmlns:xlink="http://www.w3.org/1999/xlink" width="175" height="131" xmlns:v="https://vecta.io/nano"><defs><linearGradient x1="-18.042285%" y1="-9.97501955%" x2="82.598089%" y2="78.7272142%" id="A"><stop stop-color="#de7f00" offset="24%"/><stop stop-color="#ffae3d" offset="52%"/><stop stop-color="#ffda6a" offset="88%"/></linearGradient><linearGradient x1="22.7656347%" y1="52.1049981%" x2="77.8582741%" y2="45.6332348%" id="B"><stop stop-color="#f28a00" offset="0%"/><stop stop-color="#f88b10" offset="4%"/><stop stop-color="#fd8d1d" offset="9%"/><stop stop-color="#ff8d21" offset="14%"/><stop stop-color="#fc821d" offset="32%"/><stop stop-color="#f46411" offset="64%"/><stop stop-color="#e83a00" offset="100%"/></linearGradient><linearGradient x1="33.4591741%" y1="40.3241804%" x2="65.9206419%" y2="52.3211638%" id="C"><stop stop-color="#99cbdd" offset="0%"/><stop stop-color="#e1e6e5" offset="82%"/></linearGradient><linearGradient x1="-1805.77617%" y1="1580.54269%" x2="-1709.98797%" y2="1580.54269%" id="D"><stop stop-color="#99cbdd" offset="0%"/><stop stop-color="#e1e6e5" offset="82%"/></linearGradient><linearGradient x1="-986.727391%" y1="2513.81857%" x2="-887.573195%" y2="2513.81857%" id="E"><stop stop-color="#99cbdd" offset="0%"/><stop stop-color="#e1e6e5" offset="82%"/></linearGradient><linearGradient x1="-986.727391%" y1="2748.14815%" x2="-887.573195%" y2="2748.14815%" id="F"><stop stop-color="#99cbdd" offset="0%"/><stop stop-color="#e1e6e5" offset="82%"/></linearGradient><linearGradient x1="-1063.7968%" y1="2192.71586%" x2="-980.933229%" y2="2192.71586%" id="G"><stop stop-color="#99cbdd" offset="0%"/><stop stop-color="#e1e6e5" offset="82%"/></linearGradient><linearGradient x1="-5017.6684%" y1="9600.50199%" x2="-4933.4778%" y2="9600.50199%" id="H"><stop stop-color="#99cbdd" offset="0%"/><stop stop-color="#e1e6e5" offset="82%"/></linearGradient><linearGradient x1="-5006.42157%" y1="9573.24493%" x2="-4922.5523%" y2="9573.24493%" id="I"><stop stop-color="#99cbdd" offset="0%"/><stop stop-color="#e1e6e5" offset="82%"/></linearGradient><linearGradient x1="-4983.8053%" y1="9524.03054%" x2="-4899.92171%" y2="9524.03054%" id="J"><stop stop-color="#99cbdd" offset="0%"/><stop stop-color="#e1e6e5" offset="82%"/></linearGradient><linearGradient x1="-4964.70168%" y1="9505.11825%" x2="-4880.84778%" y2="9505.11825%" id="K"><stop stop-color="#99cbdd" offset="0%"/><stop stop-color="#e1e6e5" offset="82%"/></linearGradient><linearGradient x1="-2684.95113%" y1="3842.05458%" x2="-2582.00786%" y2="3842.05458%" id="L"><stop stop-color="#99cbdd" offset="0%"/><stop stop-color="#e1e6e5" offset="82%"/></linearGradient><linearGradient x1="4.51844707%" y1="-1.18740375%" x2="95.6852017%" y2="101.856883%" id="M"><stop stop-color="#99cbdd" offset="0%"/><stop stop-color="#e1e6e5" offset="82%"/></linearGradient><linearGradient x1="-2684.28675%" y1="3811.79821%" x2="-2580.95302%" y2="3811.79821%" id="N"><stop stop-color="#99cbdd" offset="0%"/><stop stop-color="#e1e6e5" offset="82%"/></linearGradient><linearGradient x1="-14.7859425%" y1="-59.2204287%" x2="75.7571885%" y2="44.3578354%" id="O"><stop stop-color="#99cbdd" offset="0%"/><stop stop-color="#e1e6e5" offset="82%"/></linearGradient><linearGradient x1="-453.054755%" y1="1215.78417%" x2="-351.815562%" y2="1215.78417%" id="P"><stop stop-color="#99cbdd" offset="0%"/><stop stop-color="#e1e6e5" offset="82%"/></linearGradient><linearGradient x1="-453.054755%" y1="1262.26415%" x2="-351.815562%" y2="1262.26415%" id="Q"><stop stop-color="#99cbdd" offset="0%"/><stop stop-color="#e1e6e5" offset="82%"/></linearGradient><linearGradient x1="-4811.29538%" y1="9265.30433%" x2="-4727.62299%" y2="9265.30433%" id="R"><stop stop-color="#99cbdd" offset="0%"/><stop stop-color="#e1e6e5" offset="82%"/></linearGradient><linearGradient x1="-4836.3776%" y1="9277.50655%" x2="-4752.70521%" y2="9277.50655%" id="S"><stop stop-color="#99cbdd" offset="0%"/><stop stop-color="#e1e6e5" offset="82%"/></linearGradient><linearGradient x1="-4884.31306%" y1="9305.19312%" x2="-4800.44379%" y2="9305.19312%" id="T"><stop stop-color="#99cbdd" offset="0%"/><stop stop-color="#e1e6e5" offset="82%"/></linearGradient><linearGradient x1="-4900.05863%" y1="9324.30992%" x2="-4815.86803%" y2="9324.30992%" id="U"><stop stop-color="#99cbdd" offset="0%"/><stop stop-color="#e1e6e5" offset="82%"/></linearGradient><linearGradient x1="-2577.21722%" y1="3764.59793%" x2="-2474.1913%" y2="3764.59793%" id="V"><stop stop-color="#99cbdd" offset="0%"/><stop stop-color="#e1e6e5" offset="82%"/></linearGradient><linearGradient x1="-21.1821086%" y1="-60.4860501%" x2="69.5686901%" y2="43.3294508%" id="W"><stop stop-color="#99cbdd" offset="0%"/><stop stop-color="#e1e6e5" offset="82%"/></linearGradient><linearGradient x1="-2628.18901%" y1="3755.24086%" x2="-2524.82229%" y2="3755.24086%" id="X"><stop stop-color="#99cbdd" offset="0%"/><stop stop-color="#e1e6e5" offset="82%"/></linearGradient><linearGradient x1="-18.9041534%" y1="-59.0547585%" x2="71.8466454%" y2="44.7610704%" id="Y"><stop stop-color="#99cbdd" offset="0%"/><stop stop-color="#e1e6e5" offset="82%"/></linearGradient><linearGradient x1="-999.152542%" y1="695.285714%" x2="-875.684485%" y2="695.285714%" id="Z"><stop stop-color="#99cbdd" offset="0%"/><stop stop-color="#e1e6e5" offset="82%"/></linearGradient><linearGradient x1="-999.869537%" y1="695.371429%" x2="-876.320939%" y2="695.371429%" id="a"><stop stop-color="#99cbdd" offset="0%"/><stop stop-color="#e1e6e5" offset="82%"/></linearGradient><linearGradient x1="-275.529457%" y1="587.702834%" x2="-192.442953%" y2="587.702834%" id="b"><stop stop-color="#99cbdd" offset="0%"/><stop stop-color="#e1e6e5" offset="82%"/></linearGradient><linearGradient x1="-919.477261%" y1="1334.16878%" x2="-842.498576%" y2="1334.16878%" id="c"><stop stop-color="#99cbdd" offset="0%"/><stop stop-color="#e1e6e5" offset="82%"/></linearGradient><linearGradient x1="-15228.5%" y1="23003.5%" x2="-15178.5%" y2="23003.5%" id="d"><stop stop-color="#99cbdd" offset="0%"/><stop stop-color="#e1e6e5" offset="82%"/></linearGradient><linearGradient x1="-15263%" y1="22982%" x2="-15180%" y2="22982%" id="e"><stop stop-color="#99cbdd" offset="0%"/><stop stop-color="#e1e6e5" offset="82%"/></linearGradient><linearGradient x1="-15286%" y1="22956.5%" x2="-15198%" y2="22956.5%" id="f"><stop stop-color="#99cbdd" offset="0%"/><stop stop-color="#e1e6e5" offset="82%"/></linearGradient><linearGradient x1="-15310%" y1="22931%" x2="-15217%" y2="22931%" id="g"><stop stop-color="#99cbdd" offset="0%"/><stop stop-color="#e1e6e5" offset="82%"/></linearGradient><linearGradient x1="-15333.5%" y1="22906%" x2="-15237.5%" y2="22906%" id="h"><stop stop-color="#99cbdd" offset="0%"/><stop stop-color="#e1e6e5" offset="82%"/></linearGradient><linearGradient x1="-15203.9604%" y1="22881.5%" x2="-15105.9406%" y2="22881.5%" id="i"><stop stop-color="#99cbdd" offset="0%"/><stop stop-color="#e1e6e5" offset="82%"/></linearGradient><linearGradient x1="-14786.5385%" y1="22857.5%" x2="-14688.4615%" y2="22857.5%" id="j"><stop stop-color="#99cbdd" offset="0%"/><stop stop-color="#e1e6e5" offset="82%"/></linearGradient><linearGradient x1="-14528.3019%" y1="22385.2941%" x2="-14429.2453%" y2="22385.2941%" id="k"><stop stop-color="#99cbdd" offset="0%"/><stop stop-color="#e1e6e5" offset="82%"/></linearGradient><linearGradient x1="-14279.6296%" y1="21932.6923%" x2="-14180.5556%" y2="21932.6923%" id="l"><stop stop-color="#99cbdd" offset="0%"/><stop stop-color="#e1e6e5" offset="82%"/></linearGradient><linearGradient x1="-14168.8073%" y1="21497.1698%" x2="-14069.7248%" y2="21497.1698%" id="m"><stop stop-color="#99cbdd" offset="0%"/><stop stop-color="#e1e6e5" offset="82%"/></linearGradient><linearGradient x1="-14060.9091%" y1="21076.8519%" x2="-13960.9091%" y2="21076.8519%" id="n"><stop stop-color="#99cbdd" offset="0%"/><stop stop-color="#e1e6e5" offset="82%"/></linearGradient><linearGradient x1="-13954.0541%" y1="20672.7273%" x2="-13854.955%" y2="20672.7273%" id="o"><stop stop-color="#99cbdd" offset="0%"/><stop stop-color="#e1e6e5" offset="82%"/></linearGradient><linearGradient x1="-13849.1071%" y1="20283.0357%" x2="-13749.1071%" y2="20283.0357%" id="p"><stop stop-color="#99cbdd" offset="0%"/><stop stop-color="#e1e6e5" offset="82%"/></linearGradient><linearGradient x1="-30.6829268%" y1="-104.571429%" x2="58.097561%" y2="5.97402597%" id="q"><stop stop-color="#99cbdd" offset="0%"/><stop stop-color="#e1e6e5" offset="82%"/></linearGradient><linearGradient x1="86.7682927%" y1="234.078947%" x2="174.756098%" y2="345.078947%" id="r"><stop stop-color="#99cbdd" offset="0%"/><stop stop-color="#e1e6e5" offset="82%"/></linearGradient><linearGradient x1="-19.804878%" y1="71.9066667%" x2="66.0487805%" y2="184.84%" id="s"><stop stop-color="#99cbdd" offset="0%"/><stop stop-color="#e1e6e5" offset="82%"/></linearGradient><linearGradient x1="-14056.7568%" y1="20564.5455%" x2="-13958.5586%" y2="20564.5455%" id="t"><stop stop-color="#99cbdd" offset="0%"/><stop stop-color="#e1e6e5" offset="82%"/></linearGradient><linearGradient x1="-14469.4444%" y1="21117.757%" x2="-14371.2963%" y2="21117.757%" id="u"><stop stop-color="#99cbdd" offset="0%"/><stop stop-color="#e1e6e5" offset="82%"/></linearGradient><linearGradient x1="-14904.7619%" y1="21704.8077%" x2="-14807.619%" y2="21704.8077%" id="v"><stop stop-color="#99cbdd" offset="0%"/><stop stop-color="#e1e6e5" offset="82%"/></linearGradient><linearGradient x1="-15366.6667%" y1="22325.7426%" x2="-15270.5882%" y2="22325.7426%" id="w"><stop stop-color="#99cbdd" offset="0%"/><stop stop-color="#e1e6e5" offset="82%"/></linearGradient><linearGradient x1="-15696%" y1="22526.5%" x2="-15605%" y2="22526.5%" id="x"><stop stop-color="#99cbdd" offset="0%"/><stop stop-color="#e1e6e5" offset="82%"/></linearGradient><linearGradient x1="-15704%" y1="22508%" x2="-15643%" y2="22508%" id="y"><stop stop-color="#99cbdd" offset="0%"/><stop stop-color="#e1e6e5" offset="82%"/></linearGradient><linearGradient x1="-15305.5%" y1="23085.5%" x2="-15256.5%" y2="23085.5%" id="z"><stop stop-color="#99cbdd" offset="0%"/><stop stop-color="#e1e6e5" offset="82%"/></linearGradient><linearGradient x1="-15341%" y1="23066%" x2="-15262%" y2="23066%" id="AA"><stop stop-color="#99cbdd" offset="0%"/><stop stop-color="#e1e6e5" offset="82%"/></linearGradient><linearGradient x1="-15368%" y1="23043%" x2="-15283%" y2="23043%" id="AB"><stop stop-color="#99cbdd" offset="0%"/><stop stop-color="#e1e6e5" offset="82%"/></linearGradient><linearGradient x1="-15394%" y1="23019.5%" x2="-15303%" y2="23019.5%" id="AC"><stop stop-color="#99cbdd" offset="0%"/><stop stop-color="#e1e6e5" offset="82%"/></linearGradient><linearGradient x1="-15418%" y1="22996.5%" x2="-15324%" y2="22996.5%" id="AD"><stop stop-color="#99cbdd" offset="0%"/><stop stop-color="#e1e6e5" offset="82%"/></linearGradient><linearGradient x1="-15290.099%" y1="22973.5%" x2="-15194.0594%" y2="22973.5%" id="AE"><stop stop-color="#99cbdd" offset="0%"/><stop stop-color="#e1e6e5" offset="82%"/></linearGradient><linearGradient x1="-15016.5049%" y1="22723.7624%" x2="-14918.4466%" y2="22723.7624%" id="AF"><stop stop-color="#99cbdd" offset="0%"/><stop stop-color="#e1e6e5" offset="82%"/></linearGradient><linearGradient x1="-14476.6355%" y1="22046.1538%" x2="-14379.4393%" y2="22046.1538%" id="AG"><stop stop-color="#99cbdd" offset="0%"/><stop stop-color="#e1e6e5" offset="82%"/></linearGradient><linearGradient x1="-14363.8889%" y1="21814.2857%" x2="-14265.7407%" y2="21814.2857%" id="AH"><stop stop-color="#99cbdd" offset="0%"/><stop stop-color="#e1e6e5" offset="82%"/></linearGradient><linearGradient x1="-14254.1284%" y1="21385.0467%" x2="-14155.0459%" y2="21385.0467%" id="AI"><stop stop-color="#99cbdd" offset="0%"/><stop stop-color="#e1e6e5" offset="82%"/></linearGradient><linearGradient x1="-14144.5455%" y1="21165.7407%" x2="-14045.4545%" y2="21165.7407%" id="AJ"><stop stop-color="#99cbdd" offset="0%"/><stop stop-color="#e1e6e5" offset="82%"/></linearGradient><linearGradient x1="-14037.8378%" y1="20950.4587%" x2="-13938.7387%" y2="20950.4587%" id="AK"><stop stop-color="#99cbdd" offset="0%"/><stop stop-color="#e1e6e5" offset="82%"/></linearGradient><linearGradient x1="-13933.0357%" y1="20552.2523%" x2="-13833.0357%" y2="20552.2523%" id="AL"><stop stop-color="#99cbdd" offset="0%"/><stop stop-color="#e1e6e5" offset="82%"/></linearGradient><linearGradient x1="3.65701468%" y1="-7.5302701%" x2="94.5711301%" y2="102.449274%" id="AM"><stop stop-color="#99cbdd" offset="0%"/><stop stop-color="#e1e6e5" offset="82%"/></linearGradient><linearGradient x1="3.49074029%" y1="-4.8669597%" x2="94.4537699%" y2="103.295249%" id="AN"><stop stop-color="#99cbdd" offset="0%"/><stop stop-color="#e1e6e5" offset="82%"/></linearGradient><linearGradient x1="3.33676086%" y1="-5.82632031%" x2="95.2578956%" y2="102.818336%" id="AO"><stop stop-color="#99cbdd" offset="0%"/><stop stop-color="#e1e6e5" offset="82%"/></linearGradient><linearGradient x1="-14266.3636%" y1="21227.1028%" x2="-14166.3636%" y2="21227.1028%" id="AP"><stop stop-color="#99cbdd" offset="0%"/><stop stop-color="#e1e6e5" offset="82%"/></linearGradient><linearGradient x1="-14686.9159%" y1="21813.4615%" x2="-14585.9813%" y2="21813.4615%" id="AQ"><stop stop-color="#99cbdd" offset="0%"/><stop stop-color="#e1e6e5" offset="82%"/></linearGradient><linearGradient x1="-14985.7143%" y1="22434.6535%" x2="-14885.7143%" y2="22434.6535%" id="AR"><stop stop-color="#99cbdd" offset="0%"/><stop stop-color="#e1e6e5" offset="82%"/></linearGradient><linearGradient x1="-15447.0588%" y1="22632.5%" x2="-15347.0588%" y2="22632.5%" id="AS"><stop stop-color="#99cbdd" offset="0%"/><stop stop-color="#e1e6e5" offset="82%"/></linearGradient><linearGradient x1="-15775%" y1="22606%" x2="-15678%" y2="22606%" id="AT"><stop stop-color="#99cbdd" offset="0%"/><stop stop-color="#e1e6e5" offset="82%"/></linearGradient><linearGradient x1="-15774%" y1="22582.5%" x2="-15712%" y2="22582.5%" id="AU"><stop stop-color="#99cbdd" offset="0%"/><stop stop-color="#e1e6e5" offset="82%"/></linearGradient><linearGradient x1="-3445.1586%" y1="5555.48745%" x2="-3347.35132%" y2="5555.48745%" id="AV"><stop stop-color="#99cbdd" offset="0%"/><stop stop-color="#e1e6e5" offset="82%"/></linearGradient><linearGradient x1="-15867.5%" y1="17545.3125%" x2="-15823.5%" y2="17545.3125%" id="AW"><stop stop-color="#99cbdd" offset="0%"/><stop stop-color="#e1e6e5" offset="82%"/></linearGradient><linearGradient x1="-10954.4828%" y1="12976.3006%" x2="-10880%" y2="12976.3006%" id="AX"><stop stop-color="#99cbdd" offset="0%"/><stop stop-color="#e1e6e5" offset="82%"/></linearGradient><linearGradient x1="-8398.4127%" y1="22390%" x2="-8307.93651%" y2="22390%" id="AY"><stop stop-color="#99cbdd" offset="0%"/><stop stop-color="#e1e6e5" offset="82%"/></linearGradient><linearGradient x1="-15541.1765%" y1="22398.5%" x2="-15443.1373%" y2="22398.5%" id="AZ"><stop stop-color="#99cbdd" offset="0%"/><stop stop-color="#e1e6e5" offset="82%"/></linearGradient><linearGradient x1="-11.6910476%" y1="50.3233556%" x2="112.625975%" y2="49.6522039%" id="Aa"><stop stop-color="#f0f3f1" offset="0%"/><stop stop-color="#e2f7f8" offset="28%"/><stop stop-color="#dcf9fa" offset="51%"/><stop stop-color="#eff2f2" offset="91%"/><stop stop-color="#f1f1f1" offset="95%"/><stop stop-color="#99cbdd" offset="100%"/></linearGradient><linearGradient x1="4.02317511%" y1="50.4258295%" x2="101.996778%" y2="49.6715113%" id="Ab"><stop stop-color="#ff7e59" offset="34%"/><stop stop-color="#ffa862" offset="76%"/><stop stop-color="#ffba66" offset="98%"/></linearGradient><linearGradient x1="25.5868137%" y1="50.3605084%" x2="121.161482%" y2="49.2567777%" id="Ac"><stop stop-color="#ff7e59" offset="34%"/><stop stop-color="#ffa862" offset="76%"/><stop stop-color="#ffba66" offset="98%"/></linearGradient><path id="Ad" d="M36.078 95.618c-.845.647-1.422 1.324-1.282 1.503s.935-.209 1.78-.856 1.412-1.324 1.273-1.503-.925.199-1.77.856z"/></defs><g fill="none" fill-rule="evenodd"><g fill-rule="nonzero"><path d="M42.23 17.621l89.544-.019c2.318-.002 4.198 1.877 4.199 4.195l-.015 64.182c-.002 2.318-1.881 4.196-4.199 4.199l-89.544.019c-2.318.002-4.198-1.877-4.199-4.195l.015-64.182c.002-2.318 1.881-4.196 4.199-4.199z" fill="url(#A)" transform="matrix(.151088 -.98852 .98852 .151088 20.570018 131.751693)"/><g fill="#ffbf70"><path d="M129.609 15.137l-13.501 88.495a4.18 4.18 0 0 1-2.366 3.166 3.83 3.83 0 0 0 .159-.667l13.501-88.485c.171-1.105-.103-2.233-.764-3.135s-1.652-1.504-2.756-1.673L60.465 3.131a4.19 4.19 0 0 0-2.436.358C58.672 1.548 60.61.345 62.632.632l63.427 9.707c1.109.16 2.107.757 2.774 1.658s.946 2.032.775 3.141z" opacity=".5" style="mix-blend-mode:screen"/><path d="M117.54 94.274l-1.432 9.358c-.352 2.298-2.497 3.875-4.792 3.524L47.889 97.45c-1.103-.167-2.095-.767-2.755-1.667s-.935-2.027-.764-3.131l8.947-58.738c.411 8.337 2.275 16.538 5.508 24.232A61.94 61.94 0 0 0 83.38 86.897c10.238 6.225 22.269 8.824 34.159 7.377h0z" opacity=".5" style="mix-blend-mode:multiply"/></g><g fill="#fff"><ellipse cx="82.058" cy="86.2" rx="3.37" ry="3.375"/><path d="M90.469 87.902l-.716 4.719-16.901-2.588.716-4.709 4.563.697a3.98 3.98 0 0 0 3.378 3.815c1.898.288 3.731-.823 4.356-2.64l4.603.707zm.815-5.535l-.716 4.709-4.573-.697a3.98 3.98 0 0 0-3.38-3.842c-1.909-.289-3.749.835-4.365 2.667l-4.563-.697.716-4.719 16.881 2.578zm-6.711-12.643c-13.4-2.052-22.601-14.593-20.553-28.012s14.571-22.634 27.971-20.584 22.604 14.589 20.558 28.008c-2.056 13.416-14.575 22.629-27.976 20.588zm7.059-46.244a22.18 22.18 0 0 0-22.337 10.457 22.25 22.25 0 0 0 1.102 24.667c5.315 7.243 14.465 10.565 23.18 8.418a22.21 22.21 0 0 0 16.635-18.226c1.836-12.126-6.476-23.452-18.581-25.317z"/><path d="M83.58 68.384l7.061-46.264 2.339.358-7.061 46.264z"/><path d="M65.427 43.315l.357-2.342 45.708 6.996-.357 2.342z"/><path d="M73.777 64.955c-.496-.07-.894-.445-.994-.936a58.98 58.98 0 0 1 6.442-41.067c.212-.388.623-.625 1.065-.615a1.18 1.18 0 0 1 1.035.664c.194.398.151.87-.112 1.226a57.64 57.64 0 0 0-6.114 39.314c.123.642-.287 1.264-.925 1.404a1.47 1.47 0 0 1-.398.01zm22.428 3.425a1.16 1.16 0 0 1-.398-.129 1.19 1.19 0 0 1-.563-.711c-.086-.302-.048-.627.105-.901a58.02 58.02 0 0 0 6.054-39.334c-.158-.631.218-1.273.845-1.444a1.17 1.17 0 0 1 .898.121c.271.159.467.42.544.725a59.49 59.49 0 0 1-6.263 41.077 1.17 1.17 0 0 1-1.223.597z"/><path d="M109.934 38.344a1.11 1.11 0 0 1-.457-.169 57.38 57.38 0 0 0-39.15-5.973c-.63.11-1.234-.301-1.363-.928s.263-1.244.885-1.392c13.947-2.924 28.479-.682 40.9 6.312.472.301.669.892.472 1.416s-.734.839-1.287.754v-.02zM85.836 61.311c-7.026-1.062-13.806-3.372-20.022-6.82-.569-.315-.778-1.031-.467-1.603a1.19 1.19 0 0 1 1.611-.468c12.024 6.583 25.975 8.729 39.418 6.063a1.18 1.18 0 0 1 1.184.284c.312.306.43.76.307 1.18s-.467.738-.895.827a56.51 56.51 0 0 1-21.136.538h0z"/></g><path d="M149.005 51.694c-4.555-2.256-10.074-.395-12.338 4.161-1.68 3.395-.418 13.102.089 17.92.139 1.294 1.094 2.22 2.197 1.543.487-.289.994-.627 1.62-.996 4.404-2.768 11.105-7.327 12.586-10.324 2.232-4.548.374-10.047-4.156-12.305h0zm.129 10.354a4.71 4.71 0 0 1-4.54 2.613c-1.902-.129-3.539-1.392-4.148-3.201s-.069-3.807 1.367-5.062 3.486-1.52 5.194-.672c2.326 1.162 3.274 3.99 2.118 6.322h.01z" fill="url(#B)"/><path fill="url(#C)" d="M17.398 112.951l-1.402 1.254-.815.737-5.219-10.792 8.261-4.221-.109 1.742z"/><path d="M15.996 114.205l-.815.737-5.239-10.822 8.261-4.221-.109 1.742c-1.909 1.252-3.182 3.271-3.49 5.535a11.96 11.96 0 0 0 1.392 7.029h0z" fill="url(#D)" opacity=".5" style="mix-blend-mode:multiply"/><path fill="url(#E)" d="M15.28 96.096l-6.184 6.939L0 95.24l1.183-.777 1.302-.866 9.862 1.931z"/><path d="M15.28 96.096l-6.184 6.969L0 95.24l1.183-.777a10.93 10.93 0 0 0 5.567 2.788c2.03.307 4.089-.327 5.597-1.722l2.933.567z" fill="url(#F)" opacity=".5" style="mix-blend-mode:multiply"/><path d="M15.996 98.734l-3.191 2.907-1.66 1.374-1.69 1.334-1.72 1.304-1.74 1.254-3.619 2.359c-.074.038-.166.012-.209-.06a.15.15 0 0 1 0-.179l3.201-2.907 1.65-1.374 1.69-1.334 1.72-1.294 1.75-1.264 3.619-2.35c.06-.052.149-.052.209 0a.15.15 0 0 1-.01.229h0z" fill="url(#G)"/><path d="M15.201 73.367c-.845.657-1.64.996-1.78.856s.437-.846 1.282-1.503 1.63-.996 1.77-.856-.427.856-1.273 1.503z" fill="url(#H)"/><path d="M18.79 75.478c-.845.647-1.64.996-1.78.856s.437-.856 1.282-1.503 1.63-.996 1.77-.856-.427.846-1.273 1.503z" fill="url(#I)"/><path d="M23.86 79.729c-.835.657-1.63.996-1.77.856s.427-.846 1.273-1.503 1.64-.996 1.78-.856-.457.856-1.282 1.503z" fill="url(#J)"/><path d="M25.848 82.377c-.835.657-1.63.996-1.77.856s.437-.846 1.273-1.503 1.64-.996 1.78-.856-.408.856-1.282 1.503z" fill="url(#K)"/><path d="M20.877 68.28l-1.312-1.702c-.551-.712-.422-1.737.288-2.29l1.71-1.314c.107-.087.245-.127.382-.11s.261.089.344.2l2.674 3.474a.52.52 0 0 1-.109.747l-1.7 1.314a1.63 1.63 0 0 1-2.277-.319h0z" fill="url(#L)"/><path fill="url(#M)" transform="matrix(.791863 -.610698 .610698 .791863 -37.294619 26.136953)" d="M18.142 66.261l3.113-.002-.002 3.045-3.113.002z"/><path d="M32.718 72.402l-1.312-1.702c-.264-.343-.38-.777-.324-1.207s.28-.819.623-1.083l1.7-1.314c.228-.177.556-.137.736.09l2.644 3.474a.51.51 0 0 1-.089.727l-1.7 1.314a1.63 1.63 0 0 1-2.277-.299h0z" fill="url(#N)"/><path fill="url(#O)" transform="matrix(.791863 -.610698 .610698 .791863 -37.343311 34.261742)" d="M30.037 70.394l3.113-.002-.002 3.045-3.113.002z"/><path fill="url(#P)" d="M42.262 73.855L27.737 85.642l-6.283-8.293-13.69-9.119 3.46-1.633 1.501-.697 26.385 7.108z"/><path d="M42.262 73.855L27.737 85.642l-6.283-8.293-13.69-9.07 3.46-1.633a22.46 22.46 0 0 0 7.178 6.471 7.95 7.95 0 0 0 2.277.996c.811.178 1.659.054 2.386-.348.535-.412 1.043-.858 1.521-1.334a1.72 1.72 0 0 1 1.859-.338 11.58 11.58 0 0 0-1.988 3.465c-.424 1.253-.184 2.636.636 3.674.797.76 1.89 1.124 2.982.996a8.45 8.45 0 0 0 3.062-.996c3.087-1.504 5.818-3.649 8.013-6.292l3.112.916z" fill="url(#Q)" opacity=".5" style="mix-blend-mode:multiply"/><path d="M40.025 105.603c-.845.657-1.422 1.324-1.282 1.503s.935-.199 1.78-.856 1.412-1.324 1.282-1.503-.935.209-1.78.856z" fill="url(#R)"/><path d="M38.902 101.591c-.845.657-1.412 1.324-1.282 1.503s.935-.199 1.78-.856 1.422-1.324 1.282-1.503-.915.209-1.78.856z" fill="url(#S)"/><use xlink:href="#Ad" fill="url(#T)"/><use xlink:href="#Ad" x="-2.038" y="-2.648" fill="url(#U)"/><path d="M46.378 101.452l1.342 1.673a1.63 1.63 0 0 0 2.287.299l1.69-1.294a.51.51 0 0 0 .089-.727l-2.674-3.465c-.083-.11-.206-.182-.342-.201s-.274.018-.384.101l-1.66 1.304c-.354.259-.59.648-.655 1.082s.045.876.307 1.228z" fill="url(#V)"/><path fill="url(#W)" transform="matrix(.791505 -.611162 .611162 .791505 -52.97741 49.735596)" d="M44.854 100.996l3.107-.002-.002 3.039-3.107.002z"/><path d="M45.403 88.878l1.322 1.702a1.63 1.63 0 0 0 2.287.299l1.69-1.314a.54.54 0 0 0 .099-.737l-2.674-3.465c-.179-.225-.503-.269-.736-.1l-1.66 1.324c-.347.26-.577.647-.639 1.077s.05.866.311 1.213h0z" fill="url(#X)"/><path fill="url(#Y)" transform="matrix(.791863 -.610698 .610698 .791863 -45.538048 46.596558)" d="M44.035 88.584l3.113-.002-.002 3.045-3.113.002z"/><path fill="url(#Z)" d="M46.616 109.904l-3.509 4.201-5.339-15.57-6.402-8.193 15.062-11.081.02 2.091.159 27.577z"/><path d="M46.616 109.904l-3.509 4.171-5.329-15.551-6.402-8.183 15.052-11.11v2.081l-4.513 3.494c-2.013 1.49-3.675 3.403-4.871 5.605a5.84 5.84 0 0 0-.706 2.987c.039 1.043.605 1.996 1.501 2.529a3.97 3.97 0 0 0 3.778-.498c1.143-.667 2.565-2.917 3.46-1.991 1.292 1.444-2.982 2.588-3.847 4.311-.766 1.434-.447 3.186-.099 4.779a11.2 11.2 0 0 0 1.869 4.759c.86 1.092 2.203 1.688 3.589 1.593l.03 1.025z" fill="url(#a)" opacity=".5" style="mix-blend-mode:multiply"/><path d="M37.579 87.604a164.24 164.24 0 0 1-19.416 12.624l-8.59 4.58a1.02 1.02 0 0 1-1.432-.179c-.346-.445-.266-1.087.179-1.434 4.977-5.659 10.261-11.04 15.827-16.118 2.515-2.28 5.18-4.55 7.953-6.65 14.386-11.1 28.324-19.304 29.825-17.323s-9.971 13.4-24.347 24.501z" fill="url(#b)"/><path d="M18.511 95.837c-.491 1.409-.611 2.921-.348 4.39l-8.59 4.58a1.02 1.02 0 0 1-1.432-.179c-.346-.445-.266-1.087.179-1.434 4.977-5.659 10.261-11.04 15.827-16.118-.994 1.165-1.889 2.359-2.774 3.584a19.56 19.56 0 0 0-2.863 5.177h0z" fill="url(#c)" opacity=".5" style="mix-blend-mode:multiply"/><path fill="url(#d)" d="M26.425 93.567l.328-.229.179.249-.348.219z"/><path fill="url(#e)" d="M27.419 92.86l.666-.478.209.319-.686.438z"/><path fill="url(#f)" d="M28.741 91.904l.666-.478.249.368-.676.458z"/><path fill="url(#g)" d="M30.063 90.949l.666-.478.288.418-.676.458z"/><path fill="url(#h)" d="M31.386 89.993l.666-.478.318.448-.676.468z"/><path fill="url(#i)" d="M32.708 89.027l.666-.478.338.478-.666.468z"/><path fill="url(#j)" d="M34.03 88.062l.656-.488.378.518-.676.468z"/><path fill="url(#k)" d="M35.342 87.086l.656-.478.398.538-.666.478z"/><path fill="url(#l)" d="M36.655 86.12l.656-.488.418.558-.666.478z"/><path fill="url(#m)" d="M37.967 85.145l.656-.498.427.577-.666.478z"/><path fill="url(#n)" d="M39.279 84.159l.646-.498.447.587-.666.488z"/><path fill="url(#o)" d="M40.582 83.164l.646-.498.457.597-.656.498z"/><path fill="url(#p)" d="M41.874 82.168l.646-.508.467.617-.646.498z"/><path fill="url(#q)" transform="matrix(.789727 -.613459 .613459 .789727 -40.629131 43.899503)" d="M43.315 80.833h.816l-.001.766-.816.001z"/><path fill="url(#r)" transform="matrix(.78456 -.620053 .620053 .78456 -40.031209 45.191089)" d="M44.609 79.824h.816v.756h-.816z"/><path fill="url(#s)" transform="matrix(.778572 -.627555 .627555 .778572 -39.437673 46.581982)" d="M45.883 78.804l.816-.001-.001.746h-.816z"/><path fill="url(#t)" d="M47.004 78.106l.636-.518.467.558-.626.538z"/><path fill="url(#u)" d="M48.276 77.071l.626-.518.447.518-.616.548z"/><path fill="url(#v)" d="M49.529 76.025l.616-.538.427.488-.606.548z"/><path fill="url(#w)" d="M50.762 74.95l.616-.538.398.428-.596.577z"/><path fill="url(#x)" d="M51.985 73.865l.596-.548.358.358-.577.587z"/><path fill="url(#y)" d="M53.198 72.73l.288-.289.328.319-.288.299z"/><path fill="url(#z)" d="M22.935 89.555l.318-.259-.199-.229-.308.269z"/><path fill="url(#AA)" d="M23.89 88.778l.626-.508-.239-.289-.616.538z"/><path fill="url(#AB)" d="M25.152 87.753l.636-.508-.288-.348-.606.548z"/><path fill="url(#AC)" d="M26.425 86.738l.646-.518-.328-.388-.626.538z"/><path fill="url(#AD)" d="M27.697 85.712l.636-.508-.348-.438-.626.528z"/><path fill="url(#AE)" d="M28.98 84.687l.636-.508-.378-.458-.626.528z"/><path fill="url(#AF)" d="M30.262 83.671l.636-.508-.398-.498-.626.528z"/><path fill="url(#AG)" d="M31.545 82.666l.646-.508-.427-.528-.636.518z"/><path fill="url(#AH)" d="M32.827 81.65l.646-.508-.437-.538-.636.508z"/><path fill="url(#AI)" d="M34.12 80.645l.646-.508-.447-.558-.636.508z"/><path fill="url(#AJ)" d="M35.412 79.639l.646-.498-.447-.577-.646.508z"/><path fill="url(#AK)" d="M36.704 78.644l.656-.488-.457-.597-.646.498z"/><path fill="url(#AL)" d="M38.017 77.658l.656-.488-.467-.617-.646.498z"/><path fill="url(#AM)" transform="matrix(.800836 -.598884 .598884 .800836 -37.738972 38.772615)" d="M39.017 75.749l.816-.001-.001.756-.816.001z"/><path fill="url(#AN)" transform="matrix(.805928 -.592013 .592013 .805928 -36.584954 38.703283)" d="M40.332 74.775l.816-.001-.001.756-.816.001z"/><path fill="url(#AO)" transform="matrix(.811574 -.58425 .58425 .811574 -35.417598 38.55659)" d="M41.66 73.815l.816-.001v.746h-.816z"/><path fill="url(#AP)" d="M43.286 73.775l.666-.468-.418-.597-.676.468z"/><path fill="url(#AQ)" d="M44.618 72.83l.666-.468-.378-.567-.686.458z"/><path fill="url(#AR)" d="M45.96 71.904l.676-.458-.348-.548-.696.448z"/><path fill="url(#AS)" d="M47.322 70.988l.676-.448-.308-.498-.706.418z"/><path fill="url(#AT)" d="M48.684 70.102l.696-.438-.258-.438-.716.408z"/><path fill="url(#AU)" d="M50.106 69.236l.348-.209-.209-.398-.368.189z"/><path d="M56.349 64.885s2.386-.289 2.913.209-.348 2.708-.348 2.708h.338s1.988-2.31 1.64-3.534-4.295.149-4.295.149l-.249.468z" fill="url(#AV)"/><path fill="url(#AW)" d="M57.144 65.174l.706-1.274"/><path fill="url(#AX)" d="M58.397 65.204l1.442-1.722"/><path fill="url(#AY)" d="M59.153 65.841l1.879-.757"/><path fill="url(#AZ)" d="M59.063 66.856l1.014.05"/><path fill="url(#Aa)" transform="matrix(.967753 -.2519 .2519 .967753 -22.205031 36.368575)" d="M90.839 88.427l80.226-.027-.011 33-80.226.027z"/><path fill="url(#Ab)" transform="matrix(.967753 -.2519 .2519 .967753 -18.660112 34.947485)" d="M87.056 88.902l80.226-.027-.001 2.937-80.226.027z"/><path fill="url(#Ac)" transform="matrix(.967753 -.2519 .2519 .967753 -25.740851 37.807006)" d="M94.684 117.988l80.226-.027-.001 2.937-80.226.027z"/></g><g opacity=".89"><g stroke="#ffba66" stroke-width="1.618"><path d="M120.621 95.22l.447 1.752"/><path stroke-dasharray="5.458207928773128" d="M122.093 100.914l3.589 13.778"/><path d="M126.188 116.664l.457 1.752"/></g><g fill="#ffba66" fill-rule="nonzero"><path d="M156.241 89.011l8.447-2.202.446 1.715-8.447 2.202zm.647 2.501l8.447-2.202.143.549-8.447 2.202zm.303 1.208l8.447-2.202.143.549-8.447 2.202zm.504 1.721l8.467-2.185.142.55-8.467 2.185zm.138.701l8.447-2.202.363 1.397-8.447 2.202zm.689 2.525l8.467-2.185.164.637-8.467 2.185zm.271 1.049l8.467-2.185.288 1.12-8.467 2.185z"/><path d="M159.024 99.725l8.447-2.202.163.626-8.447 2.202zm.235.926l8.447-2.202.165.636-8.447 2.202zm.239.937l8.447-2.202.07.27-8.447 2.202zm.219.783l8.447-2.202.178.684-8.447 2.202zm.268 1.051l8.447-2.202.115.443-8.447 2.202zm.189.723l8.447-2.202.293 1.127-8.447 2.202zm.426 1.656l8.447-2.202.168.646-8.447 2.202zm-65.823 1.519l9.566-2.469.239.927-9.566 2.469zm31.312-4.192l9.544-2.488.213.819-9.544 2.488zm19.335-8.709l9.544-2.488.213.819-9.544 2.488zm.457 1.762l4.955-1.292.213.819L146.094 97zm-17.641 15.025l9.544-2.488.213.819-9.544 2.488zm-1.766-6.597l15.836-4.128.213.819-15.836 4.128zm.365 1.409l4.368-1.139.213.819-4.368 1.139zm1.736 6.499l12.421-3.238.213.819-12.421 3.238zm13.15-3.438l3.752-.978.213.819-3.752.978zm-44.605 7.17l9.566-2.469.239.927-9.566 2.469zm.406 1.137l3.492-.91.24.925-3.492.91zm-2.327-8.77l13.912-3.626.24.925-13.912 3.626zm15.231-3.965l4.079-1.063.24.925-4.079 1.063zm-14.8 5.626l4.734-1.234.24.925-4.734 1.234zm2.293 8.629l11.584-3.019.24.925-11.584 3.019zm29.011-24.294c-1.296.323-2.268 1.397-2.462 2.72s.43 2.632 1.578 3.313 2.594.601 3.66-.205a3.3 3.3 0 0 0 1.2-3.469 3.29 3.29 0 0 0-3.977-2.359h0zm3.738 3.863c-.07 0-.258.179-.567.348-.026-.466-.093-.929-.199-1.384l.785-.209a3.08 3.08 0 0 1-.02 1.244h0zm-1.988 2.17l-.209-.796a8.34 8.34 0 0 0 1.332-.498v.667a2.91 2.91 0 0 1-1.133.627h.01zm-1.591.06l-.348-.558a7.76 7.76 0 0 0 1.422-.219l.209.796a2.98 2.98 0 0 1-1.292-.02h.01zm-2.147-1.991l.775-.199a7.9 7.9 0 0 0 .497 1.304h-.646a3.05 3.05 0 0 1-.636-1.085l.01-.02zm-.07-1.563a6.33 6.33 0 0 1 .547-.348 8.11 8.11 0 0 0 .209 1.463l-.775.199a2.79 2.79 0 0 1 .02-1.314h0zm1.988-2.15l.199.767a7.47 7.47 0 0 0-1.332.518c-.015-.215-.015-.432 0-.647a3.07 3.07 0 0 1 1.133-.677v.04zm1.581-.06a5.14 5.14 0 0 1 .338.538c-.476.024-.949.094-1.412.209l-.199-.767a3.04 3.04 0 0 1 1.273-.02v.04zm-.994 1.065a7.09 7.09 0 0 1 1.501-.209 7.82 7.82 0 0 1 .557 1.454l-1.62.428-.437-1.673zm-.308.08l.437 1.673-1.63.428c-.122-.509-.192-1.03-.209-1.553a6.84 6.84 0 0 1 1.402-.587v.04zm-1.113 2.399l1.63-.418.418 1.593c-.496.12-1.002.19-1.511.209a7.03 7.03 0 0 1-.537-1.424v.04zm2.356 1.095l-.418-1.593 1.62-.428a7.32 7.32 0 0 1 .199 1.473 8.6 8.6 0 0 1-1.402.508v.04zm1.442-2.429a8.31 8.31 0 0 0-.517-1.384c.212-.011.424-.011.636 0a2.99 2.99 0 0 1 .666 1.155l-.785.229zm-.268-1.702h-.418l-.209-.358a2.8 2.8 0 0 1 .626.338v.02zm-4.136.548v.428l-.378.219a2.87 2.87 0 0 1 .378-.667v.02zm.507 4.171h.447l.219.388a2.98 2.98 0 0 1-.666-.418v.03zm4.175-.498v-.458l.398-.229a3.19 3.19 0 0 1-.398.667v.02z"/></g></g></g></svg>